SplineFontDB: 3.0
FontName: Kenia-Regular
FullName: Kenia
FamilyName: Kenia
Weight: Book
Copyright: Copyright (c) 2010 by Julia Petretta. All rights reserved.
Version: 1.000
ItalicAngle: 0
UnderlinePosition: -50
UnderlineWidth: 50
Ascent: 750
Descent: 250
LayerCount: 2
Layer: 0 1 "Back"  1
Layer: 1 1 "Fore"  0
NeedsXUIDChange: 1
XUID: [1021 781 951470743 11644728]
FSType: 512
OS2Version: 3
OS2_WeightWidthSlopeOnly: 0
OS2_UseTypoMetrics: 1
CreationTime: 1291738200
ModificationTime: 1292067414
PfmFamily: 17
TTFWeight: 400
TTFWidth: 5
LineGap: 0
VLineGap: 0
Panose: 2 0 5 6 5 0 0 2 0 3
OS2TypoAscent: 0
OS2TypoAOffset: 1
OS2TypoDescent: 0
OS2TypoDOffset: 1
OS2TypoLinegap: 0
OS2WinAscent: 0
OS2WinAOffset: 1
OS2WinDescent: 0
OS2WinDOffset: 1
HheadAscent: -208
HheadAOffset: 1
HheadDescent: 80
HheadDOffset: 1
OS2SubXSize: 700
OS2SubYSize: 650
OS2SubXOff: 0
OS2SubYOff: 140
OS2SupXSize: 700
OS2SupYSize: 650
OS2SupXOff: 0
OS2SupYOff: 477
OS2StrikeYSize: 50
OS2StrikeYPos: 250
OS2Vendor: 'pyrs'
OS2CodePages: 00000001.00000000
OS2UnicodeRanges: 80000003.00000000.00000000.00000000
Lookup: 258 0 0 "'kern' Horizontal Kerning in Latin lookup 0"  {"'kern' Horizontal Kerning in Latin lookup 0 per glyph data 0"  "'kern' Horizontal Kerning in Latin lookup 0 per glyph data 1"  "'kern' Horizontal Kerning in Latin lookup 0 kerning class 2"  "'kern' Horizontal Kerning in Latin lookup 0 kerning class 3"  "'kern' Horizontal Kerning in Latin lookup 0 kerning class 4"  "'kern' Horizontal Kerning in Latin lookup 0 kerning class 5"  "'kern' Horizontal Kerning in Latin lookup 0 kerning class 6"  "'kern' Horizontal Kerning in Latin lookup 0 kerning class 7"  "'kern' Horizontal Kerning in Latin lookup 0 kerning class 8"  "'kern' Horizontal Kerning in Latin lookup 0 kerning class 9"  } ['kern' ('latn' <'dflt' > ) ]
DEI: 91125
KernClass2: 2+ 3 "'kern' Horizontal Kerning in Latin lookup 0 kerning class 2" 
 3 P R
 1 T
 1 r
 37 idieresis icircumflex igrave iacute i
 0 {} -10 {} 0 {} 0 {} 0 {} -30 {}

StartChar: g
Encoding: 103 103 4
Width: 452
Flags: HW
LayerCount: 2
Fore
SplineSet
255 105 m 1,0,1
 261 93 261 93 261 67.5 c 128,-1,2
 261 42 261 42 234 21 c 128,-1,3
 207 0 207 0 169 0 c 0,4,5
 109 0 109 0 77 32 c 128,-1,6
 45 64 45 64 45 112 c 2,7,-1
 45 390 l 2,8,9
 45 450.051 45 450.051 85.3571 479.026 c 128,-1,10
 125.714 508 125.714 508 179 508 c 1,11,-1
 179 156 l 2,12,13
 179 112.765 179 112.765 199.5 99.5 c 0,14,15
 208 94 208 94 225.083 94 c 128,-1,16
 242.167 94 242.167 94 255 105 c 1,0,1
197 403 m 1,17,18
 191 415 191 415 191 440.5 c 128,-1,19
 191 466 191 466 218 487 c 128,-1,20
 245 508 245 508 283 508 c 0,21,22
 343 508 343 508 375 477.5 c 128,-1,23
 407 447 407 447 407 390 c 2,24,-1
 407 -21 l 2,25,26
 407 -70.6316 407 -70.6316 365.812 -105.316 c 128,-1,27
 324.625 -140 324.625 -140 273 -140 c 1,28,-1
 273 352 l 2,29,30
 273 395.235 273 395.235 252.5 408.5 c 0,31,32
 244 414 244 414 226.917 414 c 128,-1,33
 209.833 414 209.833 414 197 403 c 1,17,18
241 -127 m 2,34,35
 241 -168 241 -168 277.5 -168 c 0,36,37
 294 -168 294 -168 308 -156 c 1,38,39
 312 -166.667 312 -166.667 312 -181.833 c 0,40,41
 312 -215.087 312 -215.087 286.907 -244.543 c 128,-1,42
 261.815 -274 261.815 -274 213.741 -274 c 128,-1,43
 165.667 -274 165.667 -274 138.333 -244.48 c 128,-1,44
 111 -214.96 111 -214.96 111 -180.98 c 0,45,46
 111 -123.529 111 -123.529 152 -97 c 0,47,48
 179.818 -79 179.818 -79 221 -79 c 0,49,50
 233 -79 233 -79 241 -81 c 1,51,-1
 241 -127 l 2,34,35
EndSplineSet
Validated: 524289
EndChar

StartChar: a
Encoding: 97 97 5
Width: 452
Flags: HW
LayerCount: 2
Fore
SplineSet
197 403 m 1,0,1
 191 415 191 415 191 440.5 c 128,-1,2
 191 466 191 466 218 487 c 128,-1,3
 245 508 245 508 283 508 c 0,4,5
 343 508 343 508 375 477.5 c 128,-1,6
 407 447 407 447 407 390 c 2,7,-1
 407 0 l 1,8,9
 319.111 0 319.111 0 285.5 60.5 c 0,10,11
 273 83 273 83 273 118 c 2,12,-1
 273 352 l 2,13,14
 273 395.235 273 395.235 252.5 408.5 c 0,15,16
 244 414 244 414 226.917 414 c 128,-1,17
 209.833 414 209.833 414 197 403 c 1,0,1
255 105 m 1,18,19
 261 93 261 93 261 67.5 c 128,-1,20
 261 42 261 42 234 21 c 128,-1,21
 207 0 207 0 169 0 c 0,22,23
 109 0 109 0 77 32 c 128,-1,24
 45 64 45 64 45 112 c 2,25,-1
 45 390 l 2,26,27
 45 450.051 45 450.051 85.3571 479.026 c 0,28,29
 125.714 508 125.714 508 179 508 c 1,30,-1
 179 156 l 2,31,32
 179 112.765 179 112.765 199.5 99.5 c 0,33,34
 208 94 208 94 225.083 94 c 128,-1,35
 242.167 94 242.167 94 255 105 c 1,18,19
EndSplineSet
Validated: 524289
EndChar

StartChar: l
Encoding: 108 108 6
Width: 224
Flags: HW
LayerCount: 2
Fore
SplineSet
45 726 m 1,0,-1
 56 726 l 2,1,2
 108 726 108 726 143.5 698 c 128,-1,3
 179 670 179 670 179 609 c 2,4,-1
 179 0 l 1,5,-1
 173 0 l 2,6,7
 88.8605 0 88.8605 0 56.5 60.5 c 0,8,9
 45 82 45 82 45 114 c 2,10,-1
 45 726 l 1,0,-1
EndSplineSet
Validated: 524289
EndChar

StartChar: h
Encoding: 104 104 7
Width: 452
Flags: HW
LayerCount: 2
Fore
SplineSet
45 726 m 1,0,-1
 56 726 l 2,1,2
 108 726 108 726 143.5 698 c 128,-1,3
 179 670 179 670 179 609 c 2,4,-1
 179 0 l 1,5,-1
 173 0 l 2,6,7
 88.8605 0 88.8605 0 56.5 60.5 c 0,8,9
 45 82 45 82 45 114 c 2,10,-1
 45 726 l 1,0,-1
197 403 m 1,11,12
 191 415 191 415 191 440.5 c 128,-1,13
 191 466 191 466 218 487 c 128,-1,14
 245 508 245 508 283 508 c 0,15,16
 343 508 343 508 375 477.5 c 128,-1,17
 407 447 407 447 407 390 c 2,18,-1
 407 0 l 1,19,20
 319.111 0 319.111 0 285.5 60.5 c 0,21,22
 273 83 273 83 273 118 c 2,23,-1
 273 352 l 2,24,25
 273 395.235 273 395.235 252.5 408.5 c 0,26,27
 244 414 244 414 226.917 414 c 128,-1,28
 209.833 414 209.833 414 197 403 c 1,11,12
EndSplineSet
Validated: 524289
EndChar

StartChar: o
Encoding: 111 111 8
Width: 452
Flags: HW
LayerCount: 2
Fore
SplineSet
255 105 m 1,0,1
 261 93 261 93 261 67.5 c 128,-1,2
 261 42 261 42 234 21 c 128,-1,3
 207 0 207 0 169 0 c 0,4,5
 109 0 109 0 77 32 c 128,-1,6
 45 64 45 64 45 112 c 2,7,-1
 45 390 l 2,8,9
 45 450.051 45 450.051 85.3571 479.026 c 0,10,11
 125.714 508 125.714 508 179 508 c 1,12,-1
 179 156 l 2,13,14
 179 112.765 179 112.765 199.5 99.5 c 0,15,16
 208 94 208 94 225.083 94 c 128,-1,17
 242.167 94 242.167 94 255 105 c 1,0,1
197 403 m 1,18,19
 191 415 191 415 191 440.5 c 128,-1,20
 191 466 191 466 218 487 c 128,-1,21
 245 508 245 508 283 508 c 0,22,23
 343 508 343 508 375 477.5 c 128,-1,24
 407 447 407 447 407 390 c 2,25,-1
 407 118 l 2,26,27
 407 55.3077 407 55.3077 362.5 24.5 c 0,28,29
 327.111 2.05611e-06 327.111 2.05611e-06 273 0 c 1,30,-1
 273 352 l 2,31,32
 273 395.235 273 395.235 252.5 408.5 c 0,33,34
 244 414 244 414 226.917 414 c 128,-1,35
 209.833 414 209.833 414 197 403 c 1,18,19
EndSplineSet
Validated: 524289
EndChar

StartChar: p
Encoding: 112 112 9
Width: 452
Flags: HW
LayerCount: 2
Fore
SplineSet
273 508 m 1,0,1
 359.778 508 359.778 508 394.5 445.5 c 0,2,3
 407 423 407 423 407 390 c 2,4,-1
 407 122 l 2,5,6
 407 65 407 65 377 32.5 c 128,-1,7
 347 0 347 0 290 0 c 0,8,9
 251.632 0 251.632 0 222.316 20.6296 c 128,-1,10
 193 41.2593 193 41.2593 193 67.7963 c 128,-1,11
 193 94.3333 193 94.3333 197 105 c 1,12,13
 211 92 211 92 235.5 92 c 128,-1,14
 260 92 260 92 266.5 111.5 c 128,-1,15
 273 131 273 131 273 156 c 2,16,-1
 273 508 l 1,0,1
45 390 m 2,17,18
 45 447 45 447 77 478 c 128,-1,19
 109 509 109 509 169 509 c 0,20,21
 208 509 208 509 233 487 c 128,-1,22
 258 465 258 465 258 438 c 128,-1,23
 258 411 258 411 253 401 c 1,24,25
 239 414 239 414 223.5 414 c 0,26,27
 196.824 414 196.824 414 187.912 397.167 c 128,-1,28
 179 380.333 179 380.333 179 352 c 2,29,-1
 179 -249 l 1,30,31
 91.1111 -249 91.1111 -249 57.5 -188.5 c 0,32,33
 45 -166 45 -166 45 -131 c 2,34,-1
 45 390 l 2,17,18
EndSplineSet
Validated: 524289
EndChar

StartChar: q
Encoding: 113 113 10
Width: 452
Flags: HW
LayerCount: 2
Fore
SplineSet
255 105 m 1,0,1
 260 95 260 95 260 68.5 c 128,-1,2
 260 42 260 42 233.5 21 c 128,-1,3
 207 0 207 0 169 0 c 0,4,5
 109 0 109 0 77 32 c 128,-1,6
 45 64 45 64 45 112 c 2,7,-1
 45 390 l 2,8,9
 45 450.051 45 450.051 85.3571 479.026 c 0,10,11
 125.714 508 125.714 508 179 508 c 1,12,-1
 179 156 l 2,13,14
 179 112.765 179 112.765 199.5 99.5 c 0,15,16
 208 94 208 94 225.083 94 c 128,-1,17
 242.167 94 242.167 94 255 105 c 1,0,1
197 403 m 1,18,19
 192 413 192 413 192 439.5 c 128,-1,20
 192 466 192 466 218 487 c 128,-1,21
 244 508 244 508 283 508 c 0,22,23
 343 508 343 508 375 477.5 c 128,-1,24
 407 447 407 447 407 390 c 2,25,-1
 407 -131 l 2,26,27
 407 -193.692 407 -193.692 362.5 -224.5 c 0,28,29
 327.111 -249 327.111 -249 273 -249 c 1,30,-1
 273 352 l 2,31,32
 273 395.235 273 395.235 252.5 408.5 c 0,33,34
 244 414 244 414 226.917 414 c 128,-1,35
 209.833 414 209.833 414 197 403 c 1,18,19
EndSplineSet
Validated: 524289
EndChar

StartChar: d
Encoding: 100 100 11
Width: 452
Flags: HW
LayerCount: 2
Fore
SplineSet
285 726 m 2,0,1
 407 726 407 726 407 600 c 2,2,-1
 407 108 l 2,3,4
 407 60.1212 407 60.1212 371.5 30 c 128,-1,5
 336.143 -4.17594e-06 336.143 -4.17594e-06 284 0 c 2,6,-1
 273 0 l 1,7,-1
 273 726 l 1,8,-1
 285 726 l 2,0,1
169 0 m 0,9,10
 45 0 45 0 45 132 c 2,11,-1
 45 398 l 2,12,13
 45 446 45 446 77 477 c 128,-1,14
 109 508 109 508 169 508 c 0,15,16
 207 508 207 508 234 487 c 128,-1,17
 261 466 261 466 261 440.5 c 0,18,19
 261 415 261 415 255 403 c 1,20,21
 241 414 241 414 223 414 c 2,22,-1
 219 414 l 1,23,24
 179 410.522 179 410.522 179 360 c 2,25,-1
 179 159 l 2,26,27
 179 126 179 126 191 110 c 128,-1,28
 203 94 203 94 222 94 c 128,-1,29
 241 94 241 94 254 105 c 1,30,31
 261 91 261 91 261 74 c 0,32,33
 261 42 261 42 234 21 c 128,-1,34
 207 0 207 0 169 0 c 0,9,10
EndSplineSet
Validated: 524321
EndChar

StartChar: b
Encoding: 98 98 12
Width: 452
Flags: HW
LayerCount: 2
Fore
SplineSet
45 600 m 2,0,1
 45 726 45 726 167 726 c 2,2,-1
 179 726 l 1,3,-1
 179 0 l 1,4,-1
 168 0 l 2,5,6
 115.857 0 115.857 0 80.5 30 c 128,-1,7
 45 60.1212 45 60.1212 45 108 c 2,8,-1
 45 600 l 2,0,1
197 403 m 1,9,10
 191 415 191 415 191 440.5 c 128,-1,11
 191 466 191 466 218 487 c 128,-1,12
 245 508 245 508 283 508 c 0,13,14
 343 508 343 508 375 477 c 128,-1,15
 407 446 407 446 407 398 c 2,16,-1
 407 132 l 2,17,18
 407 0 407 0 283 0 c 0,19,20
 245 0 245 0 218 21 c 128,-1,21
 191 42 191 42 191 74 c 0,22,23
 191 91 191 91 198 105 c 1,24,25
 211 94 211 94 230 94 c 128,-1,26
 249 94 249 94 261 110 c 128,-1,27
 273 126 273 126 273 159 c 2,28,-1
 273 360 l 2,29,30
 273 410.522 273 410.522 233 414 c 1,31,-1
 229 414 l 2,32,33
 211 414 211 414 197 403 c 1,9,10
EndSplineSet
Validated: 524289
EndChar

StartChar: u
Encoding: 117 117 13
Width: 452
Flags: HW
LayerCount: 2
Fore
SplineSet
51 507 m 2,0,1
 179 507 179 507 179 387 c 2,2,-1
 179 158 l 2,3,4
 179 114.765 179 114.765 199.5 101.5 c 0,5,6
 208 96 208 96 225.083 96 c 128,-1,7
 242.167 96 242.167 96 255 107 c 1,8,9
 261 95 261 95 261 69.5 c 128,-1,10
 261 44 261 44 235 22 c 128,-1,11
 209 0 209 0 159.5 0 c 128,-1,12
 110 0 110 0 77.5 32 c 128,-1,13
 45 64 45 64 45 130 c 2,14,-1
 45 507 l 1,15,-1
 51 507 l 2,0,1
407 2 m 1,16,-1
 396 2 l 2,17,18
 344 2 344 2 308.5 29.5 c 128,-1,19
 273 57 273 57 273 119 c 2,20,-1
 273 507 l 1,21,-1
 279 507 l 2,22,23
 363.614 507 363.614 507 395.5 446 c 0,24,25
 407 424 407 424 407 393 c 2,26,-1
 407 2 l 1,16,-1
EndSplineSet
Validated: 524289
EndChar

StartChar: m
Encoding: 109 109 14
Width: 680
Flags: HW
LayerCount: 2
Fore
SplineSet
401 0 m 2,0,1
 273 0 273 0 273 120 c 2,2,-1
 273 352 l 2,3,4
 273 395.235 273 395.235 252.5 408.5 c 0,5,6
 244 414 244 414 226.917 414 c 128,-1,7
 209.833 414 209.833 414 197 403 c 1,8,9
 193 411 193 411 193 425 c 2,10,-1
 193 434 l 2,11,12
 193 466 193 466 221 487 c 128,-1,13
 249 508 249 508 298.5 508 c 128,-1,14
 348 508 348 508 377.5 475.5 c 128,-1,15
 407 443 407 443 407 380 c 2,16,-1
 407 0 l 1,17,-1
 401 0 l 2,0,1
45 508 m 1,18,-1
 56 508 l 2,19,20
 108 508 108 508 143.5 480 c 128,-1,21
 179 452 179 452 179 391 c 2,22,-1
 179 0 l 1,23,-1
 173 0 l 2,24,25
 88.8605 0 88.8605 0 56.5 60.5 c 0,26,27
 45 82 45 82 45 114 c 2,28,-1
 45 508 l 1,18,-1
629 0 m 2,29,30
 501 0 501 0 501 120 c 2,31,-1
 501 352 l 2,32,33
 501 395.235 501 395.235 480.5 408.5 c 0,34,35
 472 414 472 414 454.917 414 c 128,-1,36
 437.833 414 437.833 414 425 403 c 1,37,38
 421 411 421 411 421 421 c 0,39,40
 421 456 421 456 445 482 c 128,-1,41
 469 508 469 508 521.5 508 c 128,-1,42
 574 508 574 508 604.5 475.5 c 128,-1,43
 635 443 635 443 635 380 c 2,44,-1
 635 0 l 1,45,-1
 629 0 l 2,29,30
EndSplineSet
Validated: 524289
EndChar

StartChar: x
Encoding: 120 120 15
Width: 424
Flags: HW
LayerCount: 2
Fore
SplineSet
50 508 m 1,0,-1
 61 508 l 2,1,2
 115 508 115 508 149 481 c 128,-1,3
 183 454 183 454 183 403 c 2,4,-1
 183 270 l 1,5,6
 117 270 117 270 83.5 300 c 128,-1,7
 50 330 50 330 50 387 c 2,8,-1
 50 508 l 1,0,-1
255 508 m 1,9,-1
 268 508 l 2,10,11
 344.838 508 344.838 508 377 448.5 c 0,12,13
 387 430 387 430 388 407 c 1,14,-1
 388 395 l 2,15,16
 388 339.455 388 339.455 373.5 315.727 c 128,-1,17
 359 292 359 292 339.5 281 c 128,-1,18
 320 270 320 270 286 270 c 128,-1,19
 252 270 252 270 230.5 294 c 128,-1,20
 209 318 209 318 209 355 c 2,21,-1
 209 364 l 1,22,23
 215 359 215 359 218.5 356.5 c 128,-1,24
 222 354 222 354 234 354 c 0,25,26
 255 354 255 354 255 394 c 2,27,-1
 255 508 l 1,9,-1
238 262 m 1,28,-1
 249 262 l 2,29,30
 303 262 303 262 337 235 c 128,-1,31
 371 208 371 208 371 157 c 2,32,-1
 371 0 l 1,33,34
 305 0 305 0 271.5 35 c 128,-1,35
 238 70 238 70 238 127 c 2,36,-1
 238 262 l 1,28,-1
196 180 m 0,37,38
 169 180 169 180 169 146 c 2,39,-1
 169 0 l 1,40,-1
 152 0 l 2,41,42
 101 0 101 0 68.5 25 c 128,-1,43
 36 50 36 50 36 98 c 2,44,-1
 36 147 l 2,45,46
 36 200.87 36 200.87 51.5 222.435 c 128,-1,47
 67 244 67 244 87 254 c 128,-1,48
 107 264 107 264 139.5 264 c 128,-1,49
 172 264 172 264 194 244 c 128,-1,50
 216 224 216 224 216 179 c 2,51,-1
 216 170 l 1,52,53
 211 180 211 180 196 180 c 0,37,38
EndSplineSet
Validated: 524289
EndChar

StartChar: y
Encoding: 121 121 16
Width: 452
Flags: HW
LayerCount: 2
Fore
SplineSet
51 507 m 2,0,1
 179 507 179 507 179 387 c 2,2,-1
 179 158 l 2,3,4
 179 114.765 179 114.765 199.5 101.5 c 0,5,6
 208 96 208 96 225.083 96 c 128,-1,7
 242.167 96 242.167 96 255 107 c 1,8,9
 261 95 261 95 261 69.5 c 128,-1,10
 261 44 261 44 235 22 c 128,-1,11
 209 0 209 0 159.5 0 c 128,-1,12
 110 0 110 0 77.5 33.5 c 128,-1,13
 45 67 45 67 45 130 c 2,14,-1
 45 507 l 1,15,-1
 51 507 l 2,0,1
407 -17 m 2,16,17
 407 -79 407 -79 371.5 -106.5 c 128,-1,18
 336 -134 336 -134 284 -134 c 2,19,-1
 273 -134 l 1,20,-1
 273 507 l 1,21,-1
 279 507 l 2,22,23
 363.614 507 363.614 507 395.5 446 c 0,24,25
 407 424 407 424 407 393 c 2,26,-1
 407 -17 l 2,16,17
235 -126 m 2,27,28
 235 -167 235 -167 271.5 -167 c 0,29,30
 288 -167 288 -167 302 -155 c 1,31,32
 306 -165.667 306 -165.667 306 -180.833 c 0,33,34
 306 -214.087 306 -214.087 280.907 -243.543 c 128,-1,35
 255.815 -273 255.815 -273 207.741 -273 c 128,-1,36
 159.667 -273 159.667 -273 132.333 -243.48 c 128,-1,37
 105 -213.96 105 -213.96 105 -179.98 c 0,38,39
 105 -122.529 105 -122.529 146 -96 c 0,40,41
 173.818 -78 173.818 -78 215 -78 c 0,42,43
 227 -78 227 -78 235 -80 c 1,44,-1
 235 -126 l 2,27,28
EndSplineSet
Validated: 524289
EndChar

StartChar: s
Encoding: 115 115 17
Width: 423
Flags: HW
LayerCount: 2
Fore
SplineSet
169 250 m 1,0,-1
 160 250 l 2,1,2
 76 250 76 250 46 310 c 0,3,4
 35 332 35 332 35 364 c 2,5,-1
 35 390 l 2,6,7
 35 508 35 508 169 508 c 1,8,-1
 169 250 l 1,0,-1
254 258 m 1,9,-1
 263 258 l 2,10,11
 347 258 347 258 377 198 c 0,12,13
 388 176 388 176 388 144 c 2,14,-1
 388 118 l 2,15,16
 388 -4.1789e-06 388 -4.1789e-06 254 0 c 1,17,-1
 254 258 l 1,9,-1
254 369 m 2,18,19
 254 410 254 410 217 410 c 0,20,21
 200 410 200 410 187 398 c 1,22,23
 183 408.667 183 408.667 183 423.833 c 0,24,25
 183 460.182 183 460.182 202 483.5 c 0,26,27
 228.481 516 228.481 516 280 516 c 0,28,29
 353.794 516 353.794 516 377.5 454 c 0,30,31
 384 437 384 437 384 412.5 c 0,32,33
 384 365.529 384 365.529 343 339 c 0,34,35
 315.182 321 315.182 321 274 321 c 0,36,37
 262 321 262 321 254 323 c 1,38,-1
 254 369 l 2,18,19
170 147 m 2,39,40
 170 106 170 106 206.5 106 c 0,41,42
 223 106 223 106 237 118 c 1,43,44
 241 107.333 241 107.333 241 92.1667 c 0,45,46
 241 56.5652 241 56.5652 216.907 28.2826 c 128,-1,47
 192.815 5.97851e-06 192.815 5.97851e-06 144 0 c 0,48,49
 70.2059 0 70.2059 0 46.5 62 c 0,50,51
 40 79 40 79 40 103 c 128,-1,52
 40 127 40 127 52 146.5 c 0,53,54
 81.8462 195 81.8462 195 150 195 c 0,55,56
 162 195 162 195 170 193 c 1,57,-1
 170 147 l 2,39,40
EndSplineSet
Validated: 524321
EndChar

StartChar: k
Encoding: 107 107 18
Width: 421
Flags: HW
LayerCount: 2
Fore
SplineSet
220 275 m 1,0,1
 318.961 275 318.961 275 354.5 202.5 c 0,2,3
 367 177 367 177 367 141 c 2,4,-1
 367 -7 l 1,5,6
 312.844 -7 312.844 -7 266.422 27.5465 c 128,-1,7
 220 62.093 220 62.093 220 119 c 2,8,-1
 220 275 l 1,0,1
242 528 m 1,9,10
 319.652 528 319.652 528 360 470 c 0,11,12
 376 447 376 447 376 416.5 c 0,13,14
 376 358.5 376 358.5 352.833 323.75 c 128,-1,15
 329.667 289 329.667 289 284.833 289 c 128,-1,16
 240 289 240 289 221.5 314.5 c 128,-1,17
 203 340 203 340 203 374 c 2,18,-1
 203 385 l 1,19,20
 207 380 207 380 209.5 377.5 c 128,-1,21
 212 375 212 375 223 375 c 0,22,23
 242 375 242 375 242 429 c 2,24,-1
 242 528 l 1,9,10
179 0 m 1,25,-1
 165 -1 l 1,26,27
 84.6667 -1 84.6667 -1 55.5 61.5 c 0,28,29
 45 84 45 84 45 117 c 2,30,-1
 45 726 l 1,31,-1
 56 726 l 2,32,33
 108 726 108 726 143.5 698 c 128,-1,34
 179 670 179 670 179 609 c 2,35,-1
 179 0 l 1,25,-1
EndSplineSet
Validated: 524289
EndChar

StartChar: c
Encoding: 99 99 19
Width: 436
Flags: HW
LayerCount: 2
Fore
SplineSet
179 0 m 1,0,-1
 170 0 l 2,1,2
 86 0 86 0 56 60 c 0,3,4
 45 82 45 82 45 114 c 2,5,-1
 45 390 l 2,6,7
 45 508 45 508 179 508 c 1,8,-1
 179 0 l 1,0,-1
272 358 m 2,9,10
 272 411.077 272 411.077 233.401 411.077 c 0,11,12
 215.508 411.077 215.508 411.077 200 400 c 1,13,14
 193 414 193 414 193 438 c 128,-1,15
 193 462 193 462 219 485 c 128,-1,16
 245 508 245 508 291 508 c 2,17,-1
 298 508 l 1,18,19
 337.667 505.667 337.667 505.667 359.333 488.333 c 0,20,21
 400 455.8 400 455.8 400 402.986 c 128,-1,22
 400 350.171 400 350.171 351.5 328 c 0,23,24
 334 320 334 320 310.5 320 c 128,-1,25
 287 320 287 320 272 324 c 1,26,-1
 272 358 l 2,9,10
230.817 96.9231 m 0,27,28
 272 96.9231 272 96.9231 272 150 c 2,29,-1
 272 184 l 1,30,31
 287 188 287 188 310.5 188 c 128,-1,32
 334 188 334 188 351.5 180 c 128,-1,33
 369 172 369 172 380 159 c 128,-1,34
 391 146 391 146 395.5 129.5 c 128,-1,35
 400 113 400 113 400 93 c 0,36,37
 400 52.2 400 52.2 368.833 27.2667 c 128,-1,38
 337.667 2.33333 337.667 2.33333 298 0 c 1,39,-1
 291 0 l 2,40,41
 245 0 245 0 219 23 c 128,-1,42
 193 46 193 46 193 70 c 128,-1,43
 193 94 193 94 200 108 c 1,44,45
 212 96.9231 212 96.9231 230.817 96.9231 c 0,27,28
EndSplineSet
Validated: 524289
EndChar

StartChar: j
Encoding: 106 106 20
Width: 265
Flags: HW
LayerCount: 2
Fore
SplineSet
74 508 m 1,0,-1
 86 508 l 2,1,2
 139 508 139 508 173.5 480.5 c 128,-1,3
 208 453 208 453 208 391 c 2,4,-1
 208 -16 l 2,5,6
 208 -78.0882 208 -78.0882 173.466 -107.544 c 128,-1,7
 138.931 -137 138.931 -137 86 -137 c 2,8,-1
 74 -137 l 1,9,-1
 74 508 l 1,0,-1
59 662 m 256,10,11
 59 696 59 696 83 719.5 c 128,-1,12
 107 743 107 743 140 743 c 256,13,14
 173 743 173 743 196.5 719.5 c 128,-1,15
 220 696 220 696 220 662 c 256,16,17
 220 628 220 628 196.5 605 c 128,-1,18
 173 582 173 582 140 582 c 256,19,20
 107 582 107 582 83 605 c 128,-1,21
 59 628 59 628 59 662 c 256,10,11
50 -122 m 2,22,23
 50 -163 50 -163 86.5 -163 c 0,24,25
 103 -163 103 -163 117 -151 c 1,26,27
 121 -161.667 121 -161.667 121 -176.833 c 0,28,29
 121 -210.087 121 -210.087 95.9074 -239.543 c 128,-1,30
 70.8148 -269 70.8148 -269 22.7407 -269 c 128,-1,31
 -25.3333 -269 -25.3333 -269 -52.6667 -239.48 c 128,-1,32
 -80 -209.96 -80 -209.96 -80 -175.98 c 0,33,34
 -80 -118.529 -80 -118.529 -39 -92 c 0,35,36
 -11.1818 -74 -11.1818 -74 30 -74 c 0,37,38
 42 -74 42 -74 50 -76 c 1,39,-1
 50 -122 l 2,22,23
EndSplineSet
Validated: 524289
EndChar

StartChar: w
Encoding: 119 119 21
Width: 681
Flags: HW
LayerCount: 2
Fore
SplineSet
255 107 m 1,0,1
 261 95 261 95 261 76 c 0,2,3
 261 44 261 44 232 23 c 128,-1,4
 203 2 203 2 153.5 2 c 128,-1,5
 104 2 104 2 74.5 34.5 c 128,-1,6
 45 67 45 67 45 130 c 2,7,-1
 45 390 l 2,8,9
 45 449 45 449 75.5 478.5 c 128,-1,10
 106 508 106 508 161 508 c 1,11,-1
 179 507 l 1,12,-1
 179 158 l 2,13,14
 179 114.765 179 114.765 199.5 101.5 c 0,15,16
 208 96 208 96 225.083 96 c 128,-1,17
 242.167 96 242.167 96 255 107 c 1,0,1
502 393 m 2,18,19
 502 450.2 502 450.2 538.125 479.1 c 0,20,21
 574.25 508 574.25 508 627 508 c 2,22,-1
 636 508 l 1,23,-1
 636 229 l 2,24,25
 636 148 636 148 602 114 c 128,-1,26
 568 80 568 80 502 80 c 1,27,-1
 502 393 l 2,18,19
484 107 m 1,28,29
 490 93 490 93 490 78 c 0,30,31
 490 41 490 41 461.5 21.5 c 128,-1,32
 433 2 433 2 391 2 c 0,33,34
 274 2 274 2 274 130 c 2,35,-1
 274 390 l 2,36,37
 274 449 274 449 304.5 478.5 c 128,-1,38
 335 508 335 508 390 508 c 1,39,-1
 408 507 l 1,40,-1
 408 158 l 2,41,42
 408 114.765 408 114.765 428.5 101.5 c 0,43,44
 437 96 437 96 455 96 c 128,-1,45
 473 96 473 96 484 107 c 1,28,29
EndSplineSet
Validated: 524289
EndChar

StartChar: f
Encoding: 102 102 22
Width: 306
Flags: HW
LayerCount: 2
Fore
SplineSet
199 504 m 1,0,-1
 288 504 l 1,1,2
 288 453.684 288 453.684 275 433.842 c 128,-1,3
 262 414 262 414 246 406 c 128,-1,4
 230 398 230 398 205 398 c 2,5,-1
 199 398 l 1,6,-1
 199 504 l 1,0,-1
45 510 m 2,7,8
 45 608.304 45 608.304 120 629.5 c 0,9,10
 143 636 143 636 169 636 c 2,11,-1
 179 636 l 1,12,-1
 179 108 l 2,13,14
 179 60.1212 179 60.1212 143.5 30 c 128,-1,15
 108.143 2.29749e-06 108.143 2.29749e-06 56 0 c 2,16,-1
 45 0 l 1,17,-1
 45 510 l 2,7,8
140 658 m 1,18,19
 137.429 665.714 137.429 665.714 137.429 683.708 c 0,20,21
 137.429 716.955 137.429 716.955 161.548 739.977 c 128,-1,22
 185.667 763 185.667 763 229.833 763 c 128,-1,23
 274 763 274 763 302.5 737 c 128,-1,24
 331 711 331 711 331 671 c 0,25,26
 331 605.667 331 605.667 280 583 c 0,27,28
 262 575 262 575 239.5 575 c 128,-1,29
 217 575 217 575 202 579 c 1,30,-1
 202 613 l 2,31,32
 202 667 202 667 166 667 c 0,33,34
 154.4 667 154.4 667 140 658 c 1,18,19
EndSplineSet
Validated: 524289
EndChar

StartChar: r
Encoding: 114 114 23
Width: 382
Flags: HW
LayerCount: 2
Fore
SplineSet
45 508 m 1,0,-1
 56 508 l 2,1,2
 108 508 108 508 143.5 480 c 128,-1,3
 179 452 179 452 179 391 c 2,4,-1
 179 0 l 1,5,-1
 173 0 l 2,6,7
 88.8605 0 88.8605 0 56.5 60.5 c 0,8,9
 45 82 45 82 45 114 c 2,10,-1
 45 508 l 1,0,-1
196 390 m 1,11,12
 192 400.667 192 400.667 192 418.333 c 0,13,14
 192 455.286 192 455.286 214.14 481.643 c 128,-1,15
 236.28 508 236.28 508 283.14 508 c 128,-1,16
 330 508 330 508 353 482.5 c 128,-1,17
 376 457 376 457 376 424.5 c 0,18,19
 376 371.484 376 371.484 338.5 348.5 c 0,20,21
 313.211 333 313.211 333 286.605 333 c 128,-1,22
 260 333 260 333 250 335 c 1,23,-1
 250 371 l 2,24,25
 250 394 250 394 242.5 400 c 128,-1,26
 235 406 235 406 222.5 406 c 128,-1,27
 210 406 210 406 196 390 c 1,11,12
EndSplineSet
Validated: 524289
EndChar

StartChar: hyphen
Encoding: 45 45 24
Width: 389
Flags: HW
LayerCount: 2
Fore
SplineSet
339 374 m 1,0,1
 339 328 339 328 306.5 295.5 c 0,2,3
 274 263 274 263 226 263 c 2,4,-1
 50 263 l 1,5,6
 50 310 50 310 82 342 c 0,7,8
 114 374 114 374 163 374 c 2,9,-1
 339 374 l 1,0,1
EndSplineSet
Validated: 1
EndChar

StartChar: period
Encoding: 46 46 25
Width: 254
Flags: HW
LayerCount: 2
Fore
SplineSet
76 17 m 128,-1,1
 55 38 55 38 55 68 c 128,-1,2
 55 98 55 98 76 119 c 128,-1,3
 97 140 97 140 127 140 c 128,-1,4
 157 140 157 140 178 119 c 128,-1,5
 199 98 199 98 199 68 c 128,-1,6
 199 38 199 38 178 17 c 128,-1,7
 157 -4 157 -4 127 -4 c 128,-1,0
 97 -4 97 -4 76 17 c 128,-1,1
EndSplineSet
Validated: 1
EndChar

StartChar: comma
Encoding: 44 44 26
Width: 208
Flags: HW
LayerCount: 2
Fore
SplineSet
45 14 m 2,0,1
 45 64.1667 45 64.1667 76.7 90.5833 c 0,2,3
 108.4 117 108.4 117 155 117 c 2,4,-1
 163 117 l 1,5,-1
 163 -29 l 2,6,7
 163 -89.2424 163 -89.2424 129.519 -115.621 c 0,8,9
 96.0385 -142 96.0385 -142 45 -142 c 1,10,-1
 45 14 l 2,0,1
EndSplineSet
Validated: 524289
EndChar

StartChar: semicolon
Encoding: 59 59 27
Width: 254
Flags: HW
LayerCount: 2
Fore
SplineSet
69 14 m 2,0,1
 69 63 69 63 101 95 c 0,2,3
 133 127 133 127 180 127 c 1,4,-1
 180 -49 l 2,5,6
 180 -97 180 -97 147.5 -129.5 c 0,7,8
 115 -162 115 -162 69 -162 c 1,9,-1
 69 14 l 2,0,1
76 248 m 128,-1,11
 55 269 55 269 55 299 c 128,-1,12
 55 329 55 329 76 350 c 128,-1,13
 97 371 97 371 127 371 c 128,-1,14
 157 371 157 371 178 350 c 128,-1,15
 199 329 199 329 199 299 c 128,-1,16
 199 269 199 269 178 248 c 128,-1,17
 157 227 157 227 127 227 c 128,-1,10
 97 227 97 227 76 248 c 128,-1,11
EndSplineSet
Validated: 1
EndChar

StartChar: colon
Encoding: 58 58 28
Width: 254
Flags: HW
LayerCount: 2
Fore
SplineSet
76 358 m 128,-1,1
 55 379 55 379 55 409 c 128,-1,2
 55 439 55 439 76 460 c 128,-1,3
 97 481 97 481 127 481 c 128,-1,4
 157 481 157 481 178 460 c 128,-1,5
 199 439 199 439 199 409 c 128,-1,6
 199 379 199 379 178 358 c 128,-1,7
 157 337 157 337 127 337 c 128,-1,0
 97 337 97 337 76 358 c 128,-1,1
76 14 m 128,-1,9
 55 35 55 35 55 65 c 128,-1,10
 55 95 55 95 76 116 c 128,-1,11
 97 137 97 137 127 137 c 128,-1,12
 157 137 157 137 178 116 c 128,-1,13
 199 95 199 95 199 65 c 128,-1,14
 199 35 199 35 178 14 c 128,-1,15
 157 -7 157 -7 127 -7 c 128,-1,8
 97 -7 97 -7 76 14 c 128,-1,9
EndSplineSet
Validated: 1
EndChar

StartChar: e
Encoding: 101 101 29
Width: 442
Flags: HW
LayerCount: 2
Fore
SplineSet
216 412 m 0,0,1
 179 412 179 412 179 365 c 2,2,-1
 179 0 l 1,3,-1
 169 0 l 2,4,5
 86 0 86 0 56 60 c 0,6,7
 45 82 45 82 45 114 c 2,8,-1
 45 383 l 2,9,10
 45 438 45 438 71.5 473 c 128,-1,11
 98 508 98 508 158 508 c 0,12,13
 198 508 198 508 224 487.5 c 128,-1,14
 250 467 250 467 250 422 c 0,15,16
 250 407 250 407 246 400 c 1,17,18
 232 412 232 412 216 412 c 0,0,1
268 507 m 1,19,20
 273 508 273 508 278 508 c 2,21,-1
 288 508 l 2,22,23
 342 508 342 508 372 480.5 c 128,-1,24
 402 453 402 453 402 402 c 2,25,-1
 402 347 l 2,26,27
 402 279 402 279 368 246 c 128,-1,28
 334 213 334 213 285 213 c 2,29,-1
 278 213 l 1,30,31
 240 215 240 215 216.5 238.5 c 128,-1,32
 193 262 193 262 193 295 c 0,33,34
 193 305.333 193 305.333 197 316 c 1,35,36
 205 308 205 308 211 304 c 128,-1,37
 217 300 217 300 235.5 300 c 0,38,39
 268 300 268 300 268 355 c 2,40,-1
 268 507 l 1,19,20
398 91 m 128,-1,42
 398 46.5667 398 46.5667 367.63 23.2833 c 128,-1,43
 337.261 -1.94121e-06 337.261 -1.94121e-06 291.13 -9.70605e-07 c 128,-1,44
 245 0 245 0 224 25 c 128,-1,45
 203 50 203 50 203 74 c 128,-1,46
 203 98 203 98 208 108 c 1,47,48
 220 96.9231 220 96.9231 238.391 96.9231 c 0,49,50
 261.692 96.9231 261.692 96.9231 265.846 111.462 c 128,-1,51
 270 126 270 126 270 147 c 2,52,-1
 270 184 l 1,53,54
 285 188 285 188 308.5 188 c 128,-1,55
 332 188 332 188 349.5 180 c 128,-1,56
 367 172 367 172 378 159 c 0,57,41
 398 135.364 398 135.364 398 91 c 128,-1,42
EndSplineSet
Validated: 524289
EndChar

StartChar: z
Encoding: 122 122 30
Width: 423
Flags: HW
LayerCount: 2
Fore
SplineSet
254 508 m 1,0,1
 345.217 508 345.217 508 376 449 c 0,2,3
 388 426 388 426 388 390 c 2,4,-1
 388 364 l 2,5,6
 388 304.971 388 304.971 352.37 277.486 c 128,-1,7
 316.741 250 316.741 250 263 250 c 2,8,-1
 254 250 l 1,9,-1
 254 508 l 1,0,1
169 0 m 1,10,11
 77.7826 0 77.7826 0 47 59 c 0,12,13
 35 82 35 82 35 118 c 2,14,-1
 35 144 l 2,15,16
 35 203.029 35 203.029 70.6296 230.514 c 128,-1,17
 106.259 258 106.259 258 160 258 c 2,18,-1
 169 258 l 1,19,-1
 169 0 l 1,10,11
148 312 m 0,20,21
 81.3158 312 81.3158 312 51 360 c 0,22,23
 39 379 39 379 39 403.5 c 0,24,25
 39 449.077 39 449.077 65.8929 478.038 c 128,-1,26
 92.7857 507 92.7857 507 141 507 c 0,27,28
 213.6 507 213.6 507 234.5 450 c 0,29,30
 240 435 240 435 240 417.333 c 128,-1,31
 240 399.667 240 399.667 236 389 c 1,32,33
 222 401 222 401 205.5 401 c 128,-1,34
 189 401 189 401 179 391.5 c 128,-1,35
 169 382 169 382 169 363 c 2,36,-1
 169 314 l 1,37,38
 161 312 161 312 148 312 c 0,20,21
274 195 m 0,39,40
 341.154 195 341.154 195 371 146.5 c 0,41,42
 383 127 383 127 383 103 c 0,43,44
 383 57.9231 383 57.9231 356.107 28.9615 c 128,-1,45
 329.214 8.5215e-06 329.214 8.5215e-06 280.7 4.26075e-06 c 128,-1,46
 232.185 0 232.185 0 207.093 29.4565 c 128,-1,47
 182 58.913 182 58.913 182 83.1232 c 128,-1,48
 182 107.333 182 107.333 186 118 c 1,49,50
 199 106 199 106 216 106 c 0,51,52
 253 106 253 106 253 144 c 2,53,-1
 253 193 l 1,54,55
 261 195 261 195 274 195 c 0,39,40
EndSplineSet
Validated: 524289
EndChar

StartChar: t
Encoding: 116 116 31
Width: 288
Flags: HW
LayerCount: 2
Fore
SplineSet
163 726 m 1,0,-1
 179 725 l 1,1,-1
 179 153 l 2,2,3
 179 123.571 179 123.571 183 113.286 c 0,4,5
 191.667 91 191.667 91 213.667 91 c 128,-1,6
 235.667 91 235.667 91 251 114 c 1,7,8
 256 99 256 99 256 68.5 c 128,-1,9
 256 38 256 38 230.5 19 c 128,-1,10
 205 0 205 0 163 0 c 0,11,12
 45 0 45 0 45 146 c 2,13,-1
 45 605 l 2,14,15
 45 689.689 45 689.689 108.5 716.5 c 0,16,17
 131 726 131 726 163 726 c 1,0,-1
198 503 m 1,18,-1
 229 504 l 1,19,-1
 274 504 l 1,20,21
 275 501 275 501 275 489 c 0,22,23
 275 451 275 451 257 429.5 c 128,-1,24
 239 408 239 408 196 408 c 1,25,-1
 196 503 l 1,26,-1
 198 503 l 1,18,-1
EndSplineSet
Validated: 524289
EndChar

StartChar: daggerdbl
Encoding: 8225 8225 32
Width: 528
Flags: W
LayerCount: 2
Fore
SplineSet
336 435 m 2,0,1
 336 384 336 384 310.5 353 c 128,-1,2
 285 322 285 322 225 322 c 1,3,-1
 225 518 l 2,4,5
 225 550 225 550 234 572 c 128,-1,6
 243 594 243 594 258 607 c 128,-1,7
 273 620 273 620 293 625.5 c 128,-1,8
 313 631 313 631 336 631 c 1,9,-1
 336 435 l 2,0,1
313 113 m 2,10,11
 313 62 313 62 287.5 31 c 128,-1,12
 262 0 262 0 202 0 c 1,13,-1
 202 206 l 2,14,15
 202 238 202 238 211 260 c 128,-1,16
 220 282 220 282 235 295 c 128,-1,17
 250 308 250 308 270 313.5 c 128,-1,18
 290 319 290 319 313 319 c 1,19,-1
 313 113 l 2,10,11
498 459 m 1,20,21
 498 436 498 436 495.5 416 c 128,-1,22
 493 396 493 396 483.5 381 c 128,-1,23
 474 366 474 366 455.5 357.5 c 128,-1,24
 437 349 437 349 405 349 c 2,25,-1
 349 349 l 1,26,-1
 349 353 l 2,27,28
 349 388 349 388 355.5 409 c 128,-1,29
 362 430 362 430 373 441 c 128,-1,30
 384 452 384 452 399.5 455.5 c 128,-1,31
 415 459 415 459 432 459 c 2,32,-1
 498 459 l 1,20,21
479 296 m 1,33,34
 479 273 479 273 476.5 253 c 128,-1,35
 474 233 474 233 464.5 218 c 128,-1,36
 455 203 455 203 436.5 194.5 c 128,-1,37
 418 186 418 186 386 186 c 2,38,-1
 330 186 l 1,39,-1
 330 190 l 2,40,41
 330 225 330 225 336.5 246 c 128,-1,42
 343 267 343 267 354 278 c 128,-1,43
 365 289 365 289 380.5 292.5 c 128,-1,44
 396 296 396 296 413 296 c 2,45,-1
 479 296 l 1,33,34
206 459 m 1,46,47
 206 436 206 436 203.5 416 c 128,-1,48
 201 396 201 396 191.5 381 c 128,-1,49
 182 366 182 366 163.5 357.5 c 128,-1,50
 145 349 145 349 113 349 c 2,51,-1
 57 349 l 1,52,-1
 57 353 l 2,53,54
 57 388 57 388 63.5 409 c 128,-1,55
 70 430 70 430 81 441 c 128,-1,56
 92 452 92 452 107.5 455.5 c 128,-1,57
 123 459 123 459 140 459 c 2,58,-1
 206 459 l 1,46,47
180 296 m 1,59,60
 180 273 180 273 177.5 253 c 128,-1,61
 175 233 175 233 165.5 218 c 128,-1,62
 156 203 156 203 137.5 194.5 c 128,-1,63
 119 186 119 186 87 186 c 2,64,-1
 31 186 l 1,65,-1
 31 190 l 2,66,67
 31 225 31 225 37.5 246 c 128,-1,68
 44 267 44 267 55 278 c 128,-1,69
 66 289 66 289 81.5 292.5 c 128,-1,70
 97 296 97 296 114 296 c 2,71,-1
 180 296 l 1,59,60
EndSplineSet
Validated: 1
EndChar

StartChar: adieresis
Encoding: 228 228 33
Width: 452
Flags: HW
LayerCount: 2
Fore
SplineSet
79 658 m 256,0,1
 79 687 79 687 99.5 707.5 c 128,-1,2
 120 728 120 728 149 728 c 256,3,4
 178 728 178 728 198.5 707.5 c 128,-1,5
 219 687 219 687 219 658 c 256,6,7
 219 629 219 629 198.5 609 c 128,-1,8
 178 589 178 589 149 589 c 256,9,10
 120 589 120 589 99.5 609 c 128,-1,11
 79 629 79 629 79 658 c 256,0,1
235 658 m 256,12,13
 235 687 235 687 256 707.5 c 128,-1,14
 277 728 277 728 306 728 c 256,15,16
 335 728 335 728 355 707.5 c 128,-1,17
 375 687 375 687 375 658 c 256,18,19
 375 629 375 629 355 609 c 128,-1,20
 335 589 335 589 306 589 c 256,21,22
 277 589 277 589 256 609 c 128,-1,23
 235 629 235 629 235 658 c 256,12,13
197 403 m 1,24,25
 191 415 191 415 191 440.5 c 128,-1,26
 191 466 191 466 218 487 c 128,-1,27
 245 508 245 508 283 508 c 0,28,29
 343 508 343 508 375 477.5 c 128,-1,30
 407 447 407 447 407 390 c 2,31,-1
 407 0 l 1,32,33
 319.111 0 319.111 0 285.5 60.5 c 0,34,35
 273 83 273 83 273 118 c 2,36,-1
 273 352 l 2,37,38
 273 395.235 273 395.235 252.5 408.5 c 0,39,40
 244 414 244 414 226.917 414 c 128,-1,41
 209.833 414 209.833 414 197 403 c 1,24,25
255 105 m 1,42,43
 261 93 261 93 261 67.5 c 128,-1,44
 261 42 261 42 234 21 c 128,-1,45
 207 0 207 0 169 0 c 0,46,47
 109 0 109 0 77 32 c 128,-1,48
 45 64 45 64 45 112 c 2,49,-1
 45 390 l 2,50,51
 45 450.051 45 450.051 85.3571 479.026 c 0,52,53
 125.714 508 125.714 508 179 508 c 1,54,-1
 179 156 l 2,55,56
 179 112.765 179 112.765 199.5 99.5 c 0,57,58
 208 94 208 94 225.083 94 c 128,-1,59
 242.167 94 242.167 94 255 105 c 1,42,43
EndSplineSet
Validated: 524289
EndChar

StartChar: dieresis
Encoding: 168 168 34
Width: 406
Flags: HW
LayerCount: 2
Fore
SplineSet
55 658 m 256,0,1
 55 687 55 687 75.5 707.5 c 128,-1,2
 96 728 96 728 125 728 c 256,3,4
 154 728 154 728 174.5 707.5 c 128,-1,5
 195 687 195 687 195 658 c 256,6,7
 195 629 195 629 174.5 609 c 128,-1,8
 154 589 154 589 125 589 c 256,9,10
 96 589 96 589 75.5 609 c 128,-1,11
 55 629 55 629 55 658 c 256,0,1
211 658 m 256,12,13
 211 687 211 687 232 707.5 c 128,-1,14
 253 728 253 728 282 728 c 256,15,16
 311 728 311 728 331 707.5 c 128,-1,17
 351 687 351 687 351 658 c 256,18,19
 351 629 351 629 331 609 c 128,-1,20
 311 589 311 589 282 589 c 256,21,22
 253 589 253 589 232 609 c 128,-1,23
 211 629 211 629 211 658 c 256,12,13
EndSplineSet
Validated: 1
EndChar

StartChar: edieresis
Encoding: 235 235 35
Width: 442
Flags: HW
LayerCount: 2
Fore
SplineSet
216 412 m 0,0,1
 179 412 179 412 179 365 c 2,2,-1
 179 0 l 1,3,-1
 169 0 l 2,4,5
 86 0 86 0 56 60 c 0,6,7
 45 82 45 82 45 114 c 2,8,-1
 45 383 l 2,9,10
 45 438 45 438 71.5 473 c 128,-1,11
 98 508 98 508 158 508 c 0,12,13
 198 508 198 508 224 487.5 c 128,-1,14
 250 467 250 467 250 422 c 0,15,16
 250 407 250 407 246 400 c 1,17,18
 232 412 232 412 216 412 c 0,0,1
268 507 m 1,19,20
 273 508 273 508 278 508 c 2,21,-1
 288 508 l 2,22,23
 342 508 342 508 372 480.5 c 128,-1,24
 402 453 402 453 402 402 c 2,25,-1
 402 347 l 2,26,27
 402 279 402 279 368 246 c 128,-1,28
 334 213 334 213 285 213 c 2,29,-1
 278 213 l 1,30,31
 240 215 240 215 216.5 238.5 c 128,-1,32
 193 262 193 262 193 295 c 0,33,34
 193 305.333 193 305.333 197 316 c 1,35,36
 205 308 205 308 211 304 c 128,-1,37
 217 300 217 300 235.5 300 c 0,38,39
 268 300 268 300 268 355 c 2,40,-1
 268 507 l 1,19,20
398 91 m 128,-1,42
 398 46.5667 398 46.5667 367.63 23.2833 c 128,-1,43
 337.261 -1.94121e-06 337.261 -1.94121e-06 291.13 -9.70605e-07 c 128,-1,44
 245 0 245 0 224 25 c 128,-1,45
 203 50 203 50 203 74 c 128,-1,46
 203 98 203 98 208 108 c 1,47,48
 220 96.9231 220 96.9231 238.391 96.9231 c 0,49,50
 261.692 96.9231 261.692 96.9231 265.846 111.462 c 128,-1,51
 270 126 270 126 270 147 c 2,52,-1
 270 184 l 1,53,54
 285 188 285 188 308.5 188 c 128,-1,55
 332 188 332 188 349.5 180 c 128,-1,56
 367 172 367 172 378 159 c 0,57,41
 398 135.364 398 135.364 398 91 c 128,-1,42
66 658 m 256,58,59
 66 687 66 687 86.5 707.5 c 128,-1,60
 107 728 107 728 136 728 c 256,61,62
 165 728 165 728 185.5 707.5 c 128,-1,63
 206 687 206 687 206 658 c 256,64,65
 206 629 206 629 185.5 609 c 128,-1,66
 165 589 165 589 136 589 c 256,67,68
 107 589 107 589 86.5 609 c 128,-1,69
 66 629 66 629 66 658 c 256,58,59
222 658 m 256,70,71
 222 687 222 687 243 707.5 c 128,-1,72
 264 728 264 728 293 728 c 256,73,74
 322 728 322 728 342 707.5 c 128,-1,75
 362 687 362 687 362 658 c 256,76,77
 362 629 362 629 342 609 c 128,-1,78
 322 589 322 589 293 589 c 256,79,80
 264 589 264 589 243 609 c 128,-1,81
 222 629 222 629 222 658 c 256,70,71
EndSplineSet
Validated: 524289
EndChar

StartChar: odieresis
Encoding: 246 246 36
Width: 452
Flags: HW
LayerCount: 2
Fore
SplineSet
255 105 m 1,0,1
 261 93 261 93 261 67.5 c 128,-1,2
 261 42 261 42 234 21 c 128,-1,3
 207 0 207 0 169 0 c 0,4,5
 109 0 109 0 77 32 c 128,-1,6
 45 64 45 64 45 112 c 2,7,-1
 45 390 l 2,8,9
 45 450.051 45 450.051 85.3571 479.026 c 0,10,11
 125.714 508 125.714 508 179 508 c 1,12,-1
 179 156 l 2,13,14
 179 112.765 179 112.765 199.5 99.5 c 0,15,16
 208 94 208 94 225.083 94 c 128,-1,17
 242.167 94 242.167 94 255 105 c 1,0,1
197 403 m 1,18,19
 191 415 191 415 191 440.5 c 128,-1,20
 191 466 191 466 218 487 c 128,-1,21
 245 508 245 508 283 508 c 0,22,23
 343 508 343 508 375 477.5 c 128,-1,24
 407 447 407 447 407 390 c 2,25,-1
 407 118 l 2,26,27
 407 55.3077 407 55.3077 362.5 24.5 c 0,28,29
 327.111 2.05611e-06 327.111 2.05611e-06 273 0 c 1,30,-1
 273 352 l 2,31,32
 273 395.235 273 395.235 252.5 408.5 c 0,33,34
 244 414 244 414 226.917 414 c 128,-1,35
 209.833 414 209.833 414 197 403 c 1,18,19
72 658 m 256,36,37
 72 687 72 687 92.5 707.5 c 128,-1,38
 113 728 113 728 142 728 c 256,39,40
 171 728 171 728 191.5 707.5 c 128,-1,41
 212 687 212 687 212 658 c 256,42,43
 212 629 212 629 191.5 609 c 128,-1,44
 171 589 171 589 142 589 c 256,45,46
 113 589 113 589 92.5 609 c 128,-1,47
 72 629 72 629 72 658 c 256,36,37
228 658 m 256,48,49
 228 687 228 687 249 707.5 c 128,-1,50
 270 728 270 728 299 728 c 256,51,52
 328 728 328 728 348 707.5 c 128,-1,53
 368 687 368 687 368 658 c 256,54,55
 368 629 368 629 348 609 c 128,-1,56
 328 589 328 589 299 589 c 256,57,58
 270 589 270 589 249 609 c 128,-1,59
 228 629 228 629 228 658 c 256,48,49
EndSplineSet
Validated: 524289
EndChar

StartChar: idieresis
Encoding: 239 239 37
Width: 296
Flags: HW
LayerCount: 2
Fore
SplineSet
79 508 m 1,0,1
 130.161 508 130.161 508 171.581 474.211 c 0,2,3
 213 440.421 213 440.421 213 392 c 2,4,-1
 213 0 l 1,5,6
 164.387 0 164.387 0 121.694 33.9359 c 0,7,8
 79 67.8718 79 67.8718 79 120 c 2,9,-1
 79 508 l 1,0,1
0 658 m 256,10,11
 0 687 0 687 20.5 707.5 c 128,-1,12
 41 728 41 728 70 728 c 256,13,14
 99 728 99 728 119.5 707.5 c 128,-1,15
 140 687 140 687 140 658 c 256,16,17
 140 629 140 629 119.5 609 c 128,-1,18
 99 589 99 589 70 589 c 256,19,20
 41 589 41 589 20.5 609 c 128,-1,21
 0 629 0 629 0 658 c 256,10,11
156 658 m 256,22,23
 156 687 156 687 177 707.5 c 128,-1,24
 198 728 198 728 227 728 c 256,25,26
 256 728 256 728 276 707.5 c 128,-1,27
 296 687 296 687 296 658 c 256,28,29
 296 629 296 629 276 609 c 128,-1,30
 256 589 256 589 227 589 c 256,31,32
 198 589 198 589 177 609 c 128,-1,33
 156 629 156 629 156 658 c 256,22,23
EndSplineSet
Validated: 524289
EndChar

StartChar: exclam
Encoding: 33 33 38
Width: 258
Flags: W
LayerCount: 2
Fore
SplineSet
194 233 m 1,0,-1
 185 233 l 2,1,2
 162 233 162 233 140 240 c 128,-1,3
 118 247 118 247 100 261 c 128,-1,4
 82 275 82 275 71 297 c 128,-1,5
 60 319 60 319 60 349 c 2,6,-1
 60 752 l 1,7,8
 87 752 87 752 111 743.5 c 128,-1,9
 135 735 135 735 153.5 719.5 c 128,-1,10
 172 704 172 704 183 682 c 128,-1,11
 194 660 194 660 194 632 c 2,12,-1
 194 233 l 1,0,-1
64 66 m 0,13,14
 64 97 64 97 85 118 c 128,-1,15
 106 139 106 139 135 139 c 0,16,17
 166 139 166 139 187 118 c 128,-1,18
 208 97 208 97 208 66 c 0,19,20
 208 37 208 37 187 16 c 128,-1,21
 166 -5 166 -5 135 -5 c 0,22,23
 106 -5 106 -5 85 16 c 128,-1,24
 64 37 64 37 64 66 c 0,13,14
EndSplineSet
Validated: 1
EndChar

StartChar: A
Encoding: 65 65 39
Width: 485
Flags: HW
LayerCount: 2
Fore
SplineSet
184 0 m 2,0,1
 91 0 91 0 61.5 59 c 0,2,3
 50 82 50 82 50 119 c 2,4,-1
 50 606 l 2,5,6
 50 669 50 669 99 700.5 c 0,7,8
 138.667 726 138.667 726 194 726 c 1,9,-1
 194 0 l 1,10,-1
 184 0 l 2,0,1
204 416 m 1,11,-1
 285 416 l 1,12,13
 285 375 285 375 270 347.5 c 128,-1,14
 255 320 255 320 209 320 c 2,15,-1
 204 320 l 1,16,-1
 204 416 l 1,11,-1
292 559 m 2,17,18
 292 603.529 292 603.529 271.5 618 c 0,19,20
 263 624 263 624 246 624 c 128,-1,21
 229 624 229 624 216 612 c 1,22,23
 210 628 210 628 210 642.5 c 0,24,25
 210 677 210 677 235 702 c 128,-1,26
 260 727 260 727 299.5 727 c 0,27,28
 367.838 727 367.838 727 401.419 688.172 c 128,-1,29
 435 649.344 435 649.344 435 592 c 2,30,-1
 435 0 l 1,31,32
 370.12 0 370.12 0 343.06 16.5 c 128,-1,33
 316 33 316 33 304 58 c 128,-1,34
 292 83 292 83 292 125 c 2,35,-1
 292 559 l 2,17,18
EndSplineSet
Validated: 524289
EndChar

StartChar: B
Encoding: 66 66 40
Width: 463
Flags: HW
LayerCount: 2
Fore
SplineSet
194 0 m 1,0,-1
 184 0 l 2,1,2
 91 0 91 0 61.5 59 c 0,3,4
 50 82 50 82 50 119 c 2,5,-1
 50 606 l 2,6,7
 50 671.5 50 671.5 86.3333 698.75 c 128,-1,8
 122.667 726 122.667 726 178 726 c 2,9,-1
 194 726 l 1,10,-1
 194 0 l 1,0,-1
263 366 m 1,11,12
 273 368 273 368 289 368 c 0,13,14
 338.107 368 338.107 368 376.5 343 c 0,15,16
 428 309.465 428 309.465 428 243 c 2,17,-1
 428 135 l 2,18,19
 428 72 428 72 395.5 36 c 128,-1,20
 363 0 363 0 303 0 c 0,21,22
 261 0 261 0 235.5 20.5 c 128,-1,23
 210 41 210 41 210 81 c 0,24,25
 210 99 210 99 216 115 c 1,26,27
 220 103 220 103 232 103 c 256,28,29
 260.652 103 260.652 103 262.5 145.5 c 0,30,31
 263 157 263 157 263 168 c 2,32,-1
 263 366 l 1,11,12
289 379 m 0,33,34
 273 379 273 379 263 381 c 1,35,-1
 263 558 l 2,36,37
 263 604 263 604 250 617 c 0,38,39
 244 623 244 623 230 623 c 128,-1,40
 216 623 216 623 213 613 c 1,41,42
 210 626 210 626 210 639 c 256,43,44
 210 692.647 210 692.647 256 717 c 0,45,46
 273 726 273 726 300 726 c 0,47,48
 360 726 360 726 394 687 c 128,-1,49
 428 648 428 648 428 591 c 2,50,-1
 428 504 l 2,51,52
 428 437.535 428 437.535 376.5 404 c 0,53,54
 338.107 379 338.107 379 289 379 c 0,33,34
EndSplineSet
Validated: 524289
EndChar

StartChar: C
Encoding: 67 67 41
Width: 438
Flags: HW
LayerCount: 2
Fore
SplineSet
194 0 m 1,0,-1
 184 0 l 2,1,2
 91 0 91 0 61.5 59 c 0,3,4
 50 82 50 82 50 119 c 2,5,-1
 50 606 l 2,6,7
 50 671.5 50 671.5 86.3333 698.75 c 128,-1,8
 122.667 726 122.667 726 178 726 c 2,9,-1
 194 726 l 1,10,-1
 194 0 l 1,0,-1
304 195 m 0,11,12
 371.154 195 371.154 195 401 146.5 c 0,13,14
 413 127 413 127 413 103 c 0,15,16
 413 57.4615 413 57.4615 385.333 28.7308 c 128,-1,17
 357.667 -2.76015e-06 357.667 -2.76015e-06 313.333 -1.38008e-06 c 128,-1,18
 269 0 269 0 240.5 23.5 c 128,-1,19
 212 47 212 47 212 89 c 0,20,21
 212 107.333 212 107.333 216 118 c 1,22,23
 229 106 229 106 246 106 c 0,24,25
 283 106 283 106 283 144 c 2,26,-1
 283 193 l 1,27,28
 291 195 291 195 304 195 c 0,11,12
216 609 m 1,29,30
 212 619.667 212 619.667 212 634.833 c 0,31,32
 212 669.955 212 669.955 235.241 698.477 c 128,-1,33
 258.481 727 258.481 727 309 727 c 0,34,35
 376.571 727 376.571 727 404.5 669.5 c 0,36,37
 413 652 413 652 413 625.5 c 0,38,39
 413 576.529 413 576.529 372 550 c 0,40,41
 344.182 532 344.182 532 303 532 c 0,42,43
 291 532 291 532 283 534 c 1,44,-1
 283 580 l 2,45,46
 283 598 283 598 274 609.5 c 128,-1,47
 265 621 265 621 247 621 c 128,-1,48
 229 621 229 621 216 609 c 1,29,30
EndSplineSet
Validated: 524289
EndChar

StartChar: D
Encoding: 68 68 42
Width: 485
Flags: HW
LayerCount: 2
Fore
SplineSet
283 558 m 2,0,1
 283 623 283 623 248 623 c 0,2,3
 229 623 229 623 216 611 c 1,4,5
 210 627 210 627 210 641.5 c 0,6,7
 210 676 210 676 235 701 c 128,-1,8
 260 726 260 726 299.5 726 c 0,9,10
 367.838 726 367.838 726 401.419 687.172 c 128,-1,11
 435 648.344 435 648.344 435 591 c 2,12,-1
 435 135 l 2,13,14
 435 72 435 72 403 36 c 128,-1,15
 371 0 371 0 307.766 0 c 128,-1,16
 244.531 0 244.531 0 218.5 49 c 0,17,18
 210 65 210 65 210 82 c 128,-1,19
 210 99 210 99 216 115 c 1,20,21
 229 103 229 103 248 103 c 0,22,23
 283 103 283 103 283 168 c 2,24,-1
 283 558 l 2,0,1
194 0 m 1,25,-1
 184 0 l 2,26,27
 91 0 91 0 61.5 59 c 0,28,29
 50 82 50 82 50 119 c 2,30,-1
 50 726 l 1,31,-1
 66 726 l 2,32,33
 153.826 726 153.826 726 183 665 c 0,34,35
 194 642 194 642 194 606 c 2,36,-1
 194 0 l 1,25,-1
EndSplineSet
Validated: 524289
EndChar

StartChar: E
Encoding: 69 69 43
Width: 438
Flags: HW
LayerCount: 2
Fore
SplineSet
194 0 m 1,0,-1
 184 0 l 2,1,2
 91 0 91 0 61.5 59 c 0,3,4
 50 82 50 82 50 119 c 2,5,-1
 50 606 l 2,6,7
 50 671.5 50 671.5 86.3333 698.75 c 128,-1,8
 122.667 726 122.667 726 178 726 c 2,9,-1
 194 726 l 1,10,-1
 194 0 l 1,0,-1
215 416 m 1,11,-1
 304 416 l 1,12,13
 304 365.684 304 365.684 291 345.842 c 128,-1,14
 278 326 278 326 262 318 c 128,-1,15
 246 310 246 310 221 310 c 2,16,-1
 215 310 l 1,17,-1
 215 416 l 1,11,-1
304 195 m 0,18,19
 371.154 195 371.154 195 401 146.5 c 0,20,21
 413 127 413 127 413 103 c 0,22,23
 413 57.4615 413 57.4615 385.333 28.7308 c 128,-1,24
 357.667 0 357.667 0 311 0 c 0,25,26
 248.656 0 248.656 0 220.5 53 c 0,27,28
 212 69 212 69 212 88.1667 c 128,-1,29
 212 107.333 212 107.333 216 118 c 1,30,31
 229 106 229 106 246 106 c 0,32,33
 283 106 283 106 283 144 c 2,34,-1
 283 193 l 1,35,36
 291 195 291 195 304 195 c 0,18,19
283 580 m 2,37,38
 283 621 283 621 246.5 621 c 0,39,40
 229 621 229 621 216 609 c 1,41,42
 212 619.667 212 619.667 212 634.833 c 0,43,44
 212 668.087 212 668.087 237.093 697.543 c 128,-1,45
 262.185 727 262.185 727 309 727 c 0,46,47
 376.571 727 376.571 727 404.5 669.5 c 0,48,49
 413 652 413 652 413 625.5 c 0,50,51
 413 576.529 413 576.529 372 550 c 0,52,53
 344.182 532 344.182 532 303 532 c 0,54,55
 291 532 291 532 283 534 c 1,56,-1
 283 580 l 2,37,38
EndSplineSet
Validated: 524289
EndChar

StartChar: F
Encoding: 70 70 44
Width: 418
Flags: HW
LayerCount: 2
Fore
SplineSet
194 0 m 1,0,-1
 184 0 l 2,1,2
 91 0 91 0 61.5 59 c 0,3,4
 50 82 50 82 50 119 c 2,5,-1
 50 606 l 2,6,7
 50 671.5 50 671.5 86.3333 698.75 c 128,-1,8
 122.667 726 122.667 726 178 726 c 2,9,-1
 194 726 l 1,10,-1
 194 0 l 1,0,-1
215 416 m 1,11,-1
 304 416 l 1,12,13
 304 365.684 304 365.684 291 345.842 c 128,-1,14
 278 326 278 326 262 318 c 128,-1,15
 246 310 246 310 221 310 c 2,16,-1
 215 310 l 1,17,-1
 215 416 l 1,11,-1
216 609 m 1,18,19
 212 619.667 212 619.667 212 635.833 c 0,20,21
 212 671.565 212 671.565 236.519 699.283 c 128,-1,22
 261.038 727 261.038 727 309 727 c 0,23,24
 376.571 727 376.571 727 404.5 669.5 c 0,25,26
 413 652 413 652 413 625.5 c 0,27,28
 413 576.529 413 576.529 372 550 c 0,29,30
 344.182 532 344.182 532 303 532 c 0,31,32
 291 532 291 532 283 534 c 1,33,-1
 283 580 l 2,34,35
 283 598 283 598 274 609.5 c 128,-1,36
 265 621 265 621 247 621 c 128,-1,37
 229 621 229 621 216 609 c 1,18,19
EndSplineSet
Validated: 524289
EndChar

StartChar: G
Encoding: 71 71 45
Width: 451
Flags: HW
LayerCount: 2
Fore
SplineSet
194 0 m 1,0,-1
 184 0 l 2,1,2
 91 0 91 0 61.5 59 c 0,3,4
 50 82 50 82 50 119 c 2,5,-1
 50 606 l 2,6,7
 50 671.5 50 671.5 86.3333 698.75 c 128,-1,8
 122.667 726 122.667 726 178 726 c 2,9,-1
 194 726 l 1,10,-1
 194 0 l 1,0,-1
261 243.5 m 128,-1,12
 258 262 258 262 242 262 c 128,-1,13
 226 262 226 262 217 253 c 1,14,-1
 214 264 l 2,15,16
 211 274 211 274 211 298.5 c 128,-1,17
 211 323 211 323 234 347 c 128,-1,18
 257 371 257 371 304.5 371 c 128,-1,19
 352 371 352 371 381 339.5 c 128,-1,20
 410 308 410 308 409 245 c 1,21,-1
 409 123 l 2,22,23
 409 55.2432 409 55.2432 365.5 23.5 c 0,24,25
 333.296 -5.81966e-07 333.296 -5.81966e-07 286 0 c 2,26,-1
 264 0 l 1,27,-1
 264 204 l 2,28,11
 264 225 264 225 261 243.5 c 128,-1,12
282 580 m 2,29,30
 282 621 282 621 245 621 c 0,31,32
 228 621 228 621 215 609 c 1,33,34
 211 619.667 211 619.667 211 634.833 c 0,35,36
 211 668.087 211 668.087 236.093 697.543 c 128,-1,37
 261.185 727 261.185 727 309.259 727 c 128,-1,38
 357.333 727 357.333 727 384.667 697.48 c 128,-1,39
 412 667.96 412 667.96 412 633.48 c 0,40,41
 412 576.529 412 576.529 371 550 c 0,42,43
 343.182 532 343.182 532 302 532 c 0,44,45
 290 532 290 532 282 534 c 1,46,-1
 282 580 l 2,29,30
EndSplineSet
Validated: 524321
EndChar

StartChar: H
Encoding: 72 72 46
Width: 491
Flags: HW
LayerCount: 2
Fore
SplineSet
50 726 m 1,0,-1
 66 726 l 2,1,2
 153.826 726 153.826 726 183 665 c 0,3,4
 194 642 194 642 194 606 c 2,5,-1
 194 119 l 2,6,7
 194 22.2449 194 22.2449 109.5 5 c 0,8,9
 85 0 85 0 60 0 c 2,10,-1
 50 0 l 1,11,-1
 50 726 l 1,0,-1
297 726 m 1,12,-1
 313 726 l 2,13,14
 400.826 726 400.826 726 430 665 c 0,15,16
 441 642 441 642 441 606 c 2,17,-1
 441 119 l 2,18,19
 441 22.2449 441 22.2449 356.5 5 c 0,20,21
 332 0 332 0 307 0 c 2,22,-1
 297 0 l 1,23,-1
 297 726 l 1,12,-1
206 416 m 1,24,-1
 297 416 l 1,25,26
 287.448 365.853 287.448 365.853 275.724 350.426 c 0,27,28
 252.6 320 252.6 320 211 320 c 2,29,-1
 206 320 l 1,30,-1
 206 416 l 1,24,-1
EndSplineSet
Validated: 524293
EndChar

StartChar: I
Encoding: 73 73 47
Width: 244
Flags: HW
LayerCount: 2
Fore
SplineSet
194 0 m 1,0,-1
 184 0 l 2,1,2
 91 0 91 0 61.5 59 c 0,3,4
 50 82 50 82 50 119 c 2,5,-1
 50 726 l 1,6,-1
 66 726 l 2,7,8
 153.826 726 153.826 726 183 665 c 0,9,10
 194 642 194 642 194 606 c 2,11,-1
 194 0 l 1,0,-1
EndSplineSet
Validated: 524289
EndChar

StartChar: J
Encoding: 74 74 48
Width: 343
Flags: HW
LayerCount: 2
Fore
SplineSet
164 726 m 1,0,-1
 180 726 l 2,1,2
 267.826 726 267.826 726 297 665 c 0,3,4
 308 642 308 642 308 606 c 2,5,-1
 308 259 l 2,6,7
 308 162.245 308 162.245 223.5 145 c 0,8,9
 199 140 199 140 174 140 c 2,10,-1
 164 140 l 1,11,-1
 164 726 l 1,0,-1
135 147 m 2,12,13
 135 106 135 106 171.5 106 c 0,14,15
 188 106 188 106 202 118 c 1,16,17
 206 107.333 206 107.333 206 92.1667 c 0,18,19
 206 58.913 206 58.913 180.907 29.4565 c 128,-1,20
 155.815 5.97851e-06 155.815 5.97851e-06 107.741 2.98925e-06 c 128,-1,21
 59.6667 0 59.6667 0 32.3333 29.52 c 128,-1,22
 5 59.04 5 59.04 5 93.02 c 0,23,24
 5 150.471 5 150.471 46 177 c 0,25,26
 73.8182 195 73.8182 195 115 195 c 0,27,28
 127 195 127 195 135 193 c 1,29,-1
 135 147 l 2,12,13
EndSplineSet
Validated: 524289
EndChar

StartChar: K
Encoding: 75 75 49
Width: 442
Flags: HW
LayerCount: 2
Fore
SplineSet
55 726 m 1,0,-1
 71 726 l 2,1,2
 158.826 726 158.826 726 188 665 c 0,3,4
 199 642 199 642 199 606 c 2,5,-1
 199 119 l 2,6,7
 199 22.2449 199 22.2449 114.5 5 c 0,8,9
 90 0 90 0 65 0 c 2,10,-1
 55 0 l 1,11,-1
 55 726 l 1,0,-1
397 0 m 1,12,-1
 387 0 l 2,13,14
 289.348 0 289.348 0 256 59 c 0,15,16
 243 82 243 82 243 119 c 2,17,-1
 243 361 l 1,18,-1
 259 361 l 2,19,20
 353.174 361 353.174 361 385 300 c 0,21,22
 397 277 397 277 397 241 c 2,23,-1
 397 0 l 1,12,-1
219 474 m 1,24,25
 229 462 229 462 242 462.5 c 128,-1,26
 255 463 255 463 258 473.5 c 128,-1,27
 261 484 261 484 261 499 c 2,28,-1
 261 725 l 1,29,-1
 274 725 l 2,30,31
 328.2 725 328.2 725 354.6 708.5 c 128,-1,32
 381 692 381 692 394 667.5 c 128,-1,33
 407 643 407 643 407 602 c 2,34,-1
 407 507 l 2,35,36
 407 447 407 447 382 409.5 c 128,-1,37
 357 372 357 372 302 372 c 0,38,39
 264.3 372 264.3 372 240.15 393.955 c 0,40,41
 216 415.909 216 415.909 216 443 c 256,42,43
 216 459 216 459 219 474 c 1,24,25
EndSplineSet
Validated: 524289
EndChar

StartChar: L
Encoding: 76 76 50
Width: 433
Flags: HW
LayerCount: 2
Fore
SplineSet
194 0 m 1,0,-1
 184 0 l 2,1,2
 91 0 91 0 61.5 59 c 0,3,4
 50 82 50 82 50 119 c 2,5,-1
 50 726 l 1,6,-1
 66 726 l 2,7,8
 153.826 726 153.826 726 183 665 c 0,9,10
 194 642 194 642 194 606 c 2,11,-1
 194 0 l 1,0,-1
283 193 m 1,12,13
 287 195 287 195 306.5 195 c 0,14,15
 350.136 195 350.136 195 375.5 177 c 0,16,17
 413 150.387 413 150.387 413 96 c 0,18,19
 413 59.04 413 59.04 385.667 29.52 c 128,-1,20
 358.333 1.02711e-05 358.333 1.02711e-05 311 0 c 2,21,-1
 307 0 l 2,22,23
 260.185 0 260.185 0 236.093 28.2826 c 128,-1,24
 212 56.5652 212 56.5652 212 81.9493 c 128,-1,25
 212 107.333 212 107.333 216 118 c 1,26,27
 229 106 229 106 246 106 c 0,28,29
 283 106 283 106 283 144 c 2,30,-1
 283 193 l 1,12,13
EndSplineSet
Validated: 524289
EndChar

StartChar: M
Encoding: 77 77 51
Width: 724
Flags: HW
LayerCount: 2
Fore
SplineSet
291 559 m 2,0,1
 291 603.529 291 603.529 270.5 618 c 0,2,3
 262 624 262 624 245 624 c 128,-1,4
 228 624 228 624 215 612 c 1,5,6
 209 628 209 628 209 642.5 c 0,7,8
 209 677 209 677 234 702 c 128,-1,9
 259 727 259 727 313.5 727 c 128,-1,10
 368 727 368 727 401 691 c 128,-1,11
 434 655 434 655 434 592 c 2,12,-1
 434 0 l 1,13,14
 369.12 0 369.12 0 342.06 16.5 c 128,-1,15
 315 33 315 33 303 58 c 128,-1,16
 291 83 291 83 291 125 c 2,17,-1
 291 559 l 2,0,1
194 0 m 1,18,-1
 184 0 l 2,19,20
 91 0 91 0 61.5 59 c 0,21,22
 50 82 50 82 50 119 c 2,23,-1
 50 726 l 1,24,-1
 66 726 l 2,25,26
 153.826 726 153.826 726 183 665 c 0,27,28
 194 642 194 642 194 606 c 2,29,-1
 194 0 l 1,18,-1
531 559 m 2,30,31
 531 603.529 531 603.529 510.5 618 c 0,32,33
 502 624 502 624 485 624 c 128,-1,34
 468 624 468 624 455 612 c 1,35,36
 449 628 449 628 449 642.5 c 0,37,38
 449 677 449 677 474 702 c 128,-1,39
 499 727 499 727 553.5 727 c 128,-1,40
 608 727 608 727 641 691 c 128,-1,41
 674 655 674 655 674 592 c 2,42,-1
 674 0 l 1,43,44
 609.12 0 609.12 0 582.06 16.5 c 128,-1,45
 555 33 555 33 543 58 c 128,-1,46
 531 83 531 83 531 125 c 2,47,-1
 531 559 l 2,30,31
EndSplineSet
Validated: 524289
EndChar

StartChar: N
Encoding: 78 78 52
Width: 484
Flags: HW
LayerCount: 2
Fore
SplineSet
291 559 m 2,0,1
 291 603.529 291 603.529 270.5 618 c 0,2,3
 262 624 262 624 245 624 c 128,-1,4
 228 624 228 624 215 612 c 1,5,6
 209 628 209 628 209 642.5 c 0,7,8
 209 677 209 677 234 702 c 128,-1,9
 259 727 259 727 313.5 727 c 128,-1,10
 368 727 368 727 401 691 c 128,-1,11
 434 655 434 655 434 592 c 2,12,-1
 434 0 l 1,13,14
 369.12 0 369.12 0 342.06 16.5 c 128,-1,15
 315 33 315 33 303 58 c 128,-1,16
 291 83 291 83 291 125 c 2,17,-1
 291 559 l 2,0,1
194 0 m 1,18,-1
 184 0 l 2,19,20
 91 0 91 0 61.5 59 c 0,21,22
 50 82 50 82 50 119 c 2,23,-1
 50 726 l 1,24,-1
 66 726 l 2,25,26
 153.826 726 153.826 726 183 665 c 0,27,28
 194 642 194 642 194 606 c 2,29,-1
 194 0 l 1,18,-1
EndSplineSet
Validated: 524289
EndChar

StartChar: O
Encoding: 79 79 53
Width: 484
Flags: HW
LayerCount: 2
Fore
SplineSet
291 559 m 2,0,1
 291 603.529 291 603.529 270.5 618 c 0,2,3
 262 624 262 624 245 624 c 128,-1,4
 228 624 228 624 215 612 c 1,5,6
 209 628 209 628 209 642.5 c 0,7,8
 209 677 209 677 234 702 c 128,-1,9
 259 727 259 727 313.5 727 c 128,-1,10
 368 727 368 727 401 691 c 128,-1,11
 434 655 434 655 434 592 c 2,12,-1
 434 125 l 2,13,14
 434 18.1961 434 18.1961 343.5 4 c 0,15,16
 318 0 318 0 291 0 c 1,17,-1
 291 559 l 2,0,1
269 116 m 1,18,19
 275 100 275 100 275 85.5 c 0,20,21
 275 51 275 51 250 26 c 128,-1,22
 225 1 225 1 170.5 1 c 128,-1,23
 116 1 116 1 83 37 c 128,-1,24
 50 73 50 73 50 136 c 2,25,-1
 50 603 l 2,26,27
 50 709.804 50 709.804 140.5 724 c 0,28,29
 166 728 166 728 193 728 c 1,30,-1
 193 169 l 2,31,32
 193 124.471 193 124.471 213.5 110 c 0,33,34
 222 104 222 104 238.5 104 c 128,-1,35
 255 104 255 104 269 116 c 1,18,19
EndSplineSet
Validated: 524289
EndChar

StartChar: P
Encoding: 80 80 54
Width: 446
Flags: HW
LayerCount: 2
Fore
SplineSet
270 608 m 1,0,1
 257.167 619 257.167 619 240.083 619 c 0,2,3
 211.824 619 211.824 619 202.912 602.167 c 128,-1,4
 194 585.333 194 585.333 194 557 c 2,5,-1
 194 120 l 2,6,7
 194 57 194 57 145 25.5 c 0,8,9
 105.333 1.79382e-06 105.333 1.79382e-06 50 0 c 1,10,-1
 50 589 l 2,11,12
 50 655 50 655 80 691 c 128,-1,13
 110 727 110 727 164.9 727 c 128,-1,14
 219.8 727 219.8 727 244.9 695.625 c 128,-1,15
 270 664.25 270 664.25 270 618 c 2,16,-1
 270 608 l 1,0,1
299 726 m 1,17,18
 426 726 426 726 426 587 c 2,19,-1
 426 408 l 2,20,21
 426 346.452 426 346.452 393.029 309.226 c 128,-1,22
 360.057 272 360.057 272 309 272 c 0,23,24
 206 272 206 272 206 388 c 1,25,26
 220 380 220 380 236.5 380 c 0,27,28
 264.176 380 264.176 380 273.088 396.833 c 128,-1,29
 282 413.667 282 413.667 282 442 c 2,30,-1
 282 725 l 1,31,-1
 299 726 l 1,17,18
EndSplineSet
Validated: 524289
EndChar

StartChar: Q
Encoding: 81 81 55
Width: 489
Flags: HW
LayerCount: 2
Fore
SplineSet
296 559 m 2,0,1
 296 603.529 296 603.529 275.5 618 c 0,2,3
 267 624 267 624 250 624 c 128,-1,4
 233 624 233 624 220 612 c 1,5,6
 214 628 214 628 214 642.5 c 0,7,8
 214 677 214 677 239 702 c 128,-1,9
 264 727 264 727 318.5 727 c 128,-1,10
 373 727 373 727 406 691 c 128,-1,11
 439 655 439 655 439 592 c 2,12,-1
 439 125 l 2,13,14
 439 18.1961 439 18.1961 348.5 4 c 0,15,16
 323 0 323 0 296 0 c 1,17,-1
 296 559 l 2,0,1
274 116 m 1,18,19
 280 100 280 100 280 85.5 c 0,20,21
 280 51 280 51 255 26 c 128,-1,22
 230 1 230 1 175.5 1 c 128,-1,23
 121 1 121 1 88 37 c 128,-1,24
 55 73 55 73 55 136 c 2,25,-1
 55 603 l 2,26,27
 55 709.804 55 709.804 145.5 724 c 0,28,29
 171 728 171 728 198 728 c 1,30,-1
 198 169 l 2,31,32
 198 124.471 198 124.471 218.5 110 c 0,33,34
 227 104 227 104 243.5 104 c 128,-1,35
 260 104 260 104 274 116 c 1,18,19
296 -53 m 2,36,37
 296 -94 296 -94 332.5 -94 c 0,38,39
 349 -94 349 -94 363 -82 c 1,40,41
 367 -92.6667 367 -92.6667 367 -107.833 c 0,42,43
 367 -141.087 367 -141.087 341.907 -170.543 c 128,-1,44
 316.815 -200 316.815 -200 268.741 -200 c 128,-1,45
 220.667 -200 220.667 -200 193.333 -170.48 c 128,-1,46
 166 -140.96 166 -140.96 166 -106.98 c 0,47,48
 166 -49.5294 166 -49.5294 207 -23 c 0,49,50
 234.818 -5 234.818 -5 276 -5 c 0,51,52
 288 -5 288 -5 296 -7 c 1,53,-1
 296 -53 l 2,36,37
EndSplineSet
Validated: 524289
EndChar

StartChar: R
Encoding: 82 82 56
Width: 466
Flags: HW
LayerCount: 2
Fore
SplineSet
194 120 m 2,0,1
 194 57 194 57 145 25.5 c 0,2,3
 105.333 1.79382e-06 105.333 1.79382e-06 50 0 c 1,4,-1
 50 581 l 2,5,6
 50 651 50 651 82 689 c 128,-1,7
 114 727 114 727 171.438 727 c 128,-1,8
 228.875 727 228.875 727 252.5 691 c 0,9,10
 271 662.81 271 662.81 271 621 c 0,11,12
 271 612 271 612 269 608 c 1,13,14
 256 619 256 619 239.5 619 c 0,15,16
 211.824 619 211.824 619 202.912 602.167 c 128,-1,17
 194 585.333 194 585.333 194 557 c 2,18,-1
 194 120 l 2,0,1
209 452 m 1,19,20
 221.833 441 221.833 441 240.417 441 c 128,-1,21
 259 441 259 441 266.5 448.5 c 128,-1,22
 274 456 274 456 278 468.571 c 128,-1,23
 282 481.143 282 481.143 282 516 c 2,24,-1
 282 725 l 1,25,-1
 295 725 l 2,26,27
 352 725 352 725 389 689.5 c 128,-1,28
 426 654 426 654 426 587 c 2,29,-1
 426 482 l 2,30,31
 426 416 426 416 393.5 382 c 128,-1,32
 361 348 361 348 315 346 c 1,33,-1
 308 346 l 2,34,35
 256.839 346 256.839 346 232.919 378.239 c 128,-1,36
 209 410.478 209 410.478 209 452 c 1,19,20
410 0 m 1,37,-1
 400 0 l 2,38,39
 302.348 0 302.348 0 269 59 c 0,40,41
 256 82 256 82 256 119 c 2,42,-1
 256 331 l 1,43,-1
 272 331 l 2,44,45
 366.174 331 366.174 331 398 270 c 0,46,47
 410 247 410 247 410 211 c 2,48,-1
 410 0 l 1,37,-1
EndSplineSet
Validated: 524289
EndChar

StartChar: S
Encoding: 83 83 57
Width: 446
Flags: HW
LayerCount: 2
Fore
SplineSet
196 320 m 1,0,-1
 184 320 l 2,1,2
 94.8936 320 94.8936 320 64 380.5 c 0,3,4
 52 404 52 404 52 440 c 2,5,-1
 52 606 l 2,6,7
 52 672.385 52 672.385 95.5 702.5 c 0,8,9
 129.444 726 129.444 726 184 726 c 2,10,-1
 196 726 l 1,11,-1
 196 320 l 1,0,-1
232 118 m 1,12,13
 236 107.333 236 107.333 236 87.1667 c 0,14,15
 236 0 236 0 149 0 c 0,16,17
 99.6667 0 99.6667 0 72.3333 29.52 c 128,-1,18
 45 59.04 45 59.04 45 93.02 c 0,19,20
 45 150.471 45 150.471 86 177 c 0,21,22
 113.818 195 113.818 195 155 195 c 0,23,24
 167 195 167 195 175 193 c 1,25,-1
 175 143 l 2,26,27
 175 106 175 106 204 106 c 0,28,29
 218 106 218 106 232 118 c 1,12,13
252 405 m 1,30,-1
 264 405 l 2,31,32
 353.106 405 353.106 405 384 344.5 c 0,33,34
 396 321 396 321 396 285 c 2,35,-1
 396 119 l 2,36,37
 396 52.6154 396 52.6154 352.5 22.5 c 0,38,39
 318.556 -1.00001 318.556 -1.00001 264 -1 c 2,40,-1
 252 -1 l 1,41,-1
 252 405 l 1,30,-1
214 608 m 1,42,43
 210 618.667 210 618.667 210 638.833 c 0,44,45
 210 726 210 726 297 726 c 0,46,47
 346.333 726 346.333 726 373.667 696.48 c 128,-1,48
 401 666.96 401 666.96 401 632.48 c 0,49,50
 401 575.529 401 575.529 360 549 c 0,51,52
 332.182 531 332.182 531 291 531 c 0,53,54
 279 531 279 531 271 533 c 1,55,-1
 271 583 l 2,56,57
 271 620 271 620 242 620 c 0,58,59
 228 620 228 620 214 608 c 1,42,43
EndSplineSet
Validated: 524289
EndChar

StartChar: T
Encoding: 84 84 58
Width: 587
Flags: HW
LayerCount: 2
Fore
SplineSet
365 0 m 1,0,-1
 355 0 l 2,1,2
 262 0 262 0 232.5 59 c 0,3,4
 221 82 221 82 221 119 c 2,5,-1
 221 726 l 1,6,-1
 237 726 l 2,7,8
 324.826 726 324.826 726 354 665 c 0,9,10
 365 642 365 642 365 606 c 2,11,-1
 365 0 l 1,0,-1
114 528 m 0,12,13
 47.3158 528 47.3158 528 17 576 c 0,14,15
 5 595 5 595 5 619.5 c 0,16,17
 5 665.077 5 665.077 31.8929 694.038 c 128,-1,18
 58.7857 723 58.7857 723 107.3 723 c 128,-1,19
 155.815 723 155.815 723 180.907 693.543 c 128,-1,20
 206 664.087 206 664.087 206 639.877 c 128,-1,21
 206 615.667 206 615.667 202 605 c 1,22,23
 188 617 188 617 171.5 617 c 128,-1,24
 155 617 155 617 145 607.5 c 128,-1,25
 135 598 135 598 135 579 c 2,26,-1
 135 530 l 1,27,28
 127 528 127 528 114 528 c 0,12,13
452 576 m 2,29,30
 452 617 452 617 415 617 c 0,31,32
 398 617 398 617 385 605 c 1,33,34
 381 615.667 381 615.667 381 630.833 c 0,35,36
 381 664.087 381 664.087 406.093 693.543 c 128,-1,37
 431.185 723 431.185 723 479.259 723 c 128,-1,38
 527.333 723 527.333 723 554.667 693.48 c 128,-1,39
 582 663.96 582 663.96 582 629.48 c 0,40,41
 582 572.529 582 572.529 541 546 c 0,42,43
 513.182 528 513.182 528 472 528 c 0,44,45
 460 528 460 528 452 530 c 1,46,-1
 452 576 l 2,29,30
EndSplineSet
Validated: 524289
EndChar

StartChar: U
Encoding: 85 85 59
Width: 485
Flags: HW
LayerCount: 2
Fore
SplineSet
269 116 m 1,0,1
 275 100 275 100 275 85.5 c 0,2,3
 275 51 275 51 250 26 c 128,-1,4
 225 1 225 1 170.5 1 c 128,-1,5
 116 1 116 1 83 37 c 128,-1,6
 50 73 50 73 50 136 c 2,7,-1
 50 728 l 1,8,9
 114.88 728 114.88 728 141.94 711.5 c 128,-1,10
 169 695 169 695 181 670 c 128,-1,11
 193 645 193 645 193 603 c 2,12,-1
 193 169 l 2,13,14
 193 124.471 193 124.471 213.5 110 c 0,15,16
 222 104 222 104 238.5 104 c 128,-1,17
 255 104 255 104 269 116 c 1,0,1
435 0 m 1,18,-1
 425 0 l 2,19,20
 332 0 332 0 302.5 59 c 0,21,22
 291 82 291 82 291 119 c 2,23,-1
 291 726 l 1,24,-1
 307 726 l 2,25,26
 394.826 726 394.826 726 424 665 c 0,27,28
 435 642 435 642 435 606 c 2,29,-1
 435 0 l 1,18,-1
EndSplineSet
Validated: 524289
EndChar

StartChar: V
Encoding: 86 86 60
Width: 480
Flags: HW
LayerCount: 2
Fore
SplineSet
269 116 m 1,0,1
 275 100 275 100 275 85.5 c 0,2,3
 275 51 275 51 250 26 c 128,-1,4
 225 1 225 1 170.5 1 c 128,-1,5
 116 1 116 1 83 37 c 128,-1,6
 50 73 50 73 50 136 c 2,7,-1
 50 728 l 1,8,9
 114.88 728 114.88 728 141.94 711.5 c 128,-1,10
 169 695 169 695 181 670 c 128,-1,11
 193 645 193 645 193 603 c 2,12,-1
 193 169 l 2,13,14
 193 124.471 193 124.471 213.5 110 c 0,15,16
 222 104 222 104 238.5 104 c 128,-1,17
 255 104 255 104 269 116 c 1,0,1
291 726 m 1,18,-1
 307 726 l 2,19,20
 394.826 726 394.826 726 424 665 c 0,21,22
 435 642 435 642 435 606 c 2,23,-1
 435 273 l 2,24,25
 435 143.2 435 143.2 350 116 c 0,26,27
 325 108 325 108 297 108 c 2,28,-1
 291 108 l 1,29,-1
 291 726 l 1,18,-1
EndSplineSet
Validated: 524289
EndChar

StartChar: W
Encoding: 87 87 61
Width: 722
Flags: HW
LayerCount: 2
Fore
SplineSet
511 116 m 1,0,1
 517 100 517 100 517 85.5 c 0,2,3
 517 51 517 51 492 26 c 128,-1,4
 467 1 467 1 412.5 1 c 128,-1,5
 358 1 358 1 325 37 c 128,-1,6
 292 73 292 73 292 136 c 2,7,-1
 292 606 l 2,8,9
 292 726 292 726 421 726 c 2,10,-1
 437 726 l 1,11,-1
 436 169 l 2,12,13
 436 123.765 436 123.765 455.5 110 c 0,14,15
 464 104 464 104 480.5 104 c 128,-1,16
 497 104 497 104 511 116 c 1,0,1
270 116 m 1,17,18
 276 100 276 100 276 86 c 0,19,20
 276 52.4583 276 52.4583 251.3 26.7292 c 128,-1,21
 226.6 1.00001 226.6 1.00001 170.8 1 c 128,-1,22
 115 1 115 1 82.5 37 c 128,-1,23
 50 73 50 73 50 136 c 2,24,-1
 50 606 l 2,25,26
 50 671.5 50 671.5 86.3333 698.75 c 128,-1,27
 122.667 726 122.667 726 178 726 c 2,28,-1
 194 726 l 1,29,-1
 194 169 l 2,30,31
 194 124.471 194 124.471 214.5 110 c 0,32,33
 223 104 223 104 239.5 104 c 128,-1,34
 256 104 256 104 270 116 c 1,17,18
677 273 m 2,35,36
 677 143.2 677 143.2 592 116 c 0,37,38
 567 108 567 108 539 108 c 2,39,-1
 533 108 l 1,40,-1
 533 606 l 2,41,42
 533 671.5 533 671.5 569.333 698.75 c 128,-1,43
 605.667 726 605.667 726 661 726 c 2,44,-1
 677 726 l 1,45,-1
 677 273 l 2,35,36
EndSplineSet
Validated: 524289
EndChar

StartChar: X
Encoding: 88 88 62
Width: 466
Flags: HW
LayerCount: 2
Fore
SplineSet
40 231 m 2,0,1
 40 297.312 40 297.312 73.2286 333.656 c 0,2,3
 106.457 370 106.457 370 153 370 c 0,4,5
 221.071 370 221.071 370 240 317 c 0,6,7
 245 303 245 303 245 289 c 0,8,9
 245 275 245 275 239 259 c 1,10,11
 230 270 230 270 213.5 270 c 0,12,13
 184 270 184 270 184 219 c 2,14,-1
 184 0 l 1,15,-1
 180 0 l 2,16,17
 87.6808 0 87.6808 0 53.5 59.5 c 0,18,19
 40 83 40 83 40 119 c 2,20,-1
 40 231 l 2,0,1
254 461 m 1,21,22
 282 461 282 461 282 512 c 2,23,-1
 282 726 l 1,24,-1
 286 726 l 2,25,26
 378.319 726 378.319 726 412.5 666.5 c 0,27,28
 426 643 426 643 426 607 c 2,29,-1
 426 500 l 2,30,31
 426 435.152 426 435.152 391.986 399.076 c 0,32,33
 357.971 363 357.971 363 310.507 363 c 0,34,35
 263.043 363 263.043 363 242.022 387.175 c 0,36,37
 221 411.35 221 411.35 221 433.675 c 0,38,39
 221 456 221 456 227 472 c 1,40,41
 237.723 462.809 237.723 462.809 254 461 c 1,21,22
204 379 m 1,42,-1
 194 379 l 2,43,44
 101 379 101 379 71.5 438 c 0,45,46
 60 461 60 461 60 498 c 2,47,-1
 60 726 l 1,48,-1
 76 726 l 2,49,50
 163.826 726 163.826 726 193 665 c 0,51,52
 204 642 204 642 204 606 c 2,53,-1
 204 379 l 1,42,-1
410 0 m 1,54,-1
 400 0 l 2,55,56
 307 0 307 0 277.5 59 c 0,57,58
 266 82 266 82 266 119 c 2,59,-1
 266 347 l 1,60,-1
 282 347 l 2,61,62
 369.826 347 369.826 347 399 286 c 0,63,64
 410 263 410 263 410 227 c 2,65,-1
 410 0 l 1,54,-1
EndSplineSet
Validated: 524289
EndChar

StartChar: Y
Encoding: 89 89 63
Width: 476
Flags: HW
LayerCount: 2
Fore
SplineSet
317 139 m 0,0,1
 299 139 299 139 287 141 c 1,2,-1
 287 726 l 1,3,-1
 303 726 l 2,4,5
 390.826 726 390.826 726 420 665 c 0,6,7
 431 642 431 642 431 606 c 2,8,-1
 431 270 l 2,9,10
 431 205.394 431 205.394 396.766 172.197 c 128,-1,11
 362.531 139 362.531 139 317 139 c 0,0,1
209.5 389.5 m 0,12,13
 218 384 218 384 235.083 384 c 128,-1,14
 252.167 384 252.167 384 265 395 c 1,15,16
 265 317.05 265 317.05 207 289.5 c 0,17,18
 187 280 187 280 162 280 c 0,19,20
 112.485 280 112.485 280 78.7424 314.797 c 128,-1,21
 45 349.594 45 349.594 45 412 c 2,22,-1
 45 726 l 1,23,-1
 66 726 l 2,24,25
 127 726 127 726 158 693.5 c 128,-1,26
 189 661 189 661 189 588 c 2,27,-1
 189 446 l 2,28,29
 189 402.765 189 402.765 209.5 389.5 c 0,12,13
250 146 m 2,30,31
 250 105 250 105 286.5 105 c 0,32,33
 303 105 303 105 317 117 c 1,34,35
 321 106.333 321 106.333 321 91.1667 c 0,36,37
 321 57.913 321 57.913 295.907 28.4565 c 128,-1,38
 270.815 -0.999994 270.815 -0.999994 222.741 -0.999997 c 128,-1,39
 174.667 -1 174.667 -1 147.333 28.52 c 128,-1,40
 120 58.04 120 58.04 120 92.02 c 0,41,42
 120 150.333 120 150.333 158.5 176 c 0,43,44
 185.5 194 185.5 194 215.75 194 c 128,-1,45
 246 194 246 194 250 192 c 1,46,-1
 250 146 l 2,30,31
EndSplineSet
Validated: 524289
EndChar

StartChar: Z
Encoding: 90 90 64
Width: 450
Flags: HW
LayerCount: 2
Fore
SplineSet
250 726 m 1,0,-1
 262 726 l 2,1,2
 351.106 726 351.106 726 382 665.5 c 0,3,4
 394 642 394 642 394 606 c 2,5,-1
 394 440 l 2,6,7
 394 373.615 394 373.615 350.5 343.5 c 0,8,9
 316.556 320 316.556 320 262 320 c 2,10,-1
 250 320 l 1,11,-1
 250 726 l 1,0,-1
218 118 m 1,12,13
 232 106 232 106 246 106 c 0,14,15
 275 106 275 106 275 143 c 2,16,-1
 275 193 l 1,17,18
 283 195 283 195 296 195 c 0,19,20
 336.182 195 336.182 195 364 177 c 0,21,22
 405 150.471 405 150.471 405 96 c 0,23,24
 405 58.44 405 58.44 378.911 29.22 c 128,-1,25
 352.821 1.45761e-05 352.821 1.45761e-05 306.563 7.28803e-06 c 128,-1,26
 260.304 0 260.304 0 237.152 24.2045 c 128,-1,27
 214 48.4091 214 48.4091 214 77.8712 c 128,-1,28
 214 107.333 214 107.333 218 118 c 1,12,13
198 0 m 1,29,-1
 186 0 l 2,30,31
 96.383 0 96.383 0 66 59.5 c 0,32,33
 54 83 54 83 54 119 c 2,34,-1
 54 285 l 2,35,36
 54 351.385 54 351.385 97.5 381.5 c 0,37,38
 131.444 405 131.444 405 186 405 c 2,39,-1
 198 405 l 1,40,-1
 198 0 l 1,29,-1
232 608 m 1,41,42
 218 620 218 620 204 620 c 0,43,44
 175 620 175 620 175 583 c 2,45,-1
 175 533 l 1,46,47
 167 531 167 531 154 531 c 0,48,49
 113.818 531 113.818 531 86 549 c 0,50,51
 45 575.529 45 575.529 45 630 c 0,52,53
 45 667 45 667 70.2857 696.5 c 128,-1,54
 95.5714 726 95.5714 726 144 726 c 256,55,56
 189.696 726 189.696 726 212.848 701.795 c 128,-1,57
 236 677.591 236 677.591 236 648.129 c 128,-1,58
 236 618.667 236 618.667 232 608 c 1,41,42
EndSplineSet
Validated: 524321
EndChar

StartChar: zero
Encoding: 48 48 65
Width: 453
Flags: HW
LayerCount: 2
Fore
SplineSet
204 0 m 1,0,-1
 194 0 l 2,1,2
 101 0 101 0 71.5 59 c 0,3,4
 60 82 60 82 60 119 c 2,5,-1
 60 606 l 2,6,7
 60 671.5 60 671.5 96.3333 698.75 c 0,8,9
 132.667 726 132.667 726 188 726 c 2,10,-1
 204 726 l 1,11,-1
 204 0 l 1,0,-1
393 122 m 2,12,13
 393 2 393 2 265 2 c 2,14,-1
 249 2 l 1,15,-1
 249 728 l 1,16,-1
 259 726 l 1,17,18
 264.277 726.211 264.277 726.211 269.352 726.211 c 0,19,20
 352.894 726.211 352.894 726.211 381.5 669 c 0,21,22
 393 646 393 646 393 609 c 2,23,-1
 393 122 l 2,12,13
EndSplineSet
Validated: 524289
EndChar

StartChar: one
Encoding: 49 49 66
Width: 259
Flags: HW
LayerCount: 2
Fore
SplineSet
60 726 m 1,0,1
 154.596 726 154.596 726 190.5 663.5 c 0,2,3
 204 640 204 640 204 606 c 2,4,-1
 204 119 l 2,5,6
 204 22.2449 204 22.2449 119.5 5 c 0,7,8
 95 0 95 0 70 0 c 2,9,-1
 60 0 l 1,10,-1
 60 726 l 1,0,1
EndSplineSet
Validated: 524289
EndChar

StartChar: two
Encoding: 50 50 67
Width: 464
Flags: HW
LayerCount: 2
Fore
SplineSet
255 726 m 1,0,-1
 267 726 l 2,1,2
 356.106 726 356.106 726 387 665.5 c 0,3,4
 399 642 399 642 399 606 c 2,5,-1
 399 440 l 2,6,7
 399 373.615 399 373.615 355.5 343.5 c 0,8,9
 321.556 320 321.556 320 267 320 c 2,10,-1
 255 320 l 1,11,-1
 255 726 l 1,0,-1
390 0 m 1,12,-1
 378 0 l 2,13,14
 288.383 0 288.383 0 258 59.5 c 0,15,16
 246 83 246 83 246 119 c 2,17,-1
 246 142 l 2,18,19
 246 208.385 246 208.385 289.5 238.5 c 0,20,21
 323.444 262 323.444 262 378 262 c 2,22,-1
 390 262 l 1,23,-1
 390 0 l 1,12,-1
237 608 m 1,24,25
 223 620 223 620 209 620 c 0,26,27
 180 620 180 620 180 583 c 2,28,-1
 180 533 l 1,29,30
 172 531 172 531 159 531 c 0,31,32
 118.818 531 118.818 531 91 549 c 0,33,34
 50 575.529 50 575.529 50 630 c 0,35,36
 50 668.077 50 668.077 76.8929 697.038 c 128,-1,37
 103.786 726 103.786 726 151.436 726 c 128,-1,38
 199.087 726 199.087 726 220.043 701.9 c 128,-1,39
 241 677.8 241 677.8 241 648.233 c 128,-1,40
 241 618.667 241 618.667 237 608 c 1,24,25
206 0 m 1,41,-1
 194 0 l 2,42,43
 106.082 0 106.082 0 74 65.5 c 0,44,45
 62 90 62 90 62 126 c 2,46,-1
 62 202 l 2,47,48
 62 268.385 62 268.385 105.5 298.5 c 0,49,50
 139.444 322 139.444 322 194 322 c 2,51,-1
 206 322 l 1,52,-1
 206 0 l 1,41,-1
EndSplineSet
Validated: 524289
EndChar

StartChar: three
Encoding: 51 51 68
Width: 478
Flags: HW
LayerCount: 2
Fore
SplineSet
269 726 m 1,0,-1
 281 726 l 2,1,2
 370.106 726 370.106 726 401 665.5 c 0,3,4
 413 642 413 642 413 606 c 2,5,-1
 413 492 l 2,6,7
 413 425.615 413 425.615 369.5 395.5 c 0,8,9
 335.556 372 335.556 372 281 372 c 2,10,-1
 269 372 l 1,11,-1
 269 726 l 1,0,-1
237 608 m 1,12,13
 223 620 223 620 209 620 c 0,14,15
 180 620 180 620 180 583 c 2,16,-1
 180 533 l 1,17,18
 172 531 172 531 159 531 c 0,19,20
 118.818 531 118.818 531 91 549 c 0,21,22
 50 575.529 50 575.529 50 630 c 0,23,24
 50 668.077 50 668.077 76.8929 697.038 c 128,-1,25
 103.786 726 103.786 726 151.436 726 c 128,-1,26
 199.087 726 199.087 726 220.043 701.9 c 128,-1,27
 241 677.8 241 677.8 241 648.233 c 128,-1,28
 241 618.667 241 618.667 237 608 c 1,12,13
269 355 m 1,29,-1
 281 355 l 2,30,31
 370.106 355 370.106 355 401 294.5 c 0,32,33
 413 271 413 271 413 235 c 2,34,-1
 413 121 l 2,35,36
 413 54.6154 413 54.6154 369.5 24.5 c 0,37,38
 335.556 0.99999 335.556 0.99999 281 1 c 2,39,-1
 269 1 l 1,40,-1
 269 355 l 1,29,-1
237 117 m 1,41,42
 241 106.333 241 106.333 241 86.1667 c 0,43,44
 241 -1 241 -1 154 -1 c 0,45,46
 104.667 -1 104.667 -1 77.3333 28.52 c 128,-1,47
 50 58.04 50 58.04 50 92.02 c 0,48,49
 50 149.471 50 149.471 91 176 c 0,50,51
 118.818 194 118.818 194 160 194 c 0,52,53
 172 194 172 194 180 192 c 1,54,-1
 180 142 l 2,55,56
 180 105 180 105 209 105 c 0,57,58
 223 105 223 105 237 117 c 1,41,42
EndSplineSet
Validated: 524289
EndChar

StartChar: four
Encoding: 52 52 69
Width: 550
Flags: HW
LayerCount: 2
Fore
SplineSet
194 242 m 1,0,-1
 182 242 l 2,1,2
 92.8936 242 92.8936 242 62 302.5 c 0,3,4
 50 326 50 326 50 362 c 2,5,-1
 50 606 l 2,6,7
 50 672.385 50 672.385 93.5 702.5 c 0,8,9
 127.444 726 127.444 726 182 726 c 2,10,-1
 194 726 l 1,11,-1
 194 242 l 1,0,-1
230 507 m 2,12,13
 230 573.385 230 573.385 273.5 603.5 c 0,14,15
 307.444 627 307.444 627 362 627 c 2,16,-1
 374 627 l 1,17,-1
 374 121 l 2,18,19
 374 54.6154 374 54.6154 330.5 24.5 c 0,20,21
 296.556 0.99999 296.556 0.99999 242 1 c 2,22,-1
 230 1 l 1,23,-1
 230 507 l 2,12,13
539 383 m 1,24,-1
 539 381 l 2,25,26
 539 312 539 312 501 276.5 c 128,-1,27
 463 241 463 241 406 239 c 1,28,-1
 406 383 l 1,29,-1
 539 383 l 1,24,-1
EndSplineSet
Validated: 524321
EndChar

StartChar: five
Encoding: 53 53 70
Width: 484
Flags: HW
LayerCount: 2
Fore
SplineSet
224 322 m 1,0,-1
 212 322 l 2,1,2
 122.894 322 122.894 322 92 382.5 c 0,3,4
 80 406 80 406 80 442 c 2,5,-1
 80 606 l 2,6,7
 80 672.385 80 672.385 123.5 702.5 c 0,8,9
 157.444 726 157.444 726 212 726 c 2,10,-1
 224 726 l 1,11,-1
 224 322 l 1,0,-1
272 416 m 1,12,-1
 284 416 l 2,13,14
 373.106 416 373.106 416 404 355.5 c 0,15,16
 416 332 416 332 416 296 c 2,17,-1
 416 122 l 2,18,19
 416 55.6154 416 55.6154 372.5 25.5 c 0,20,21
 338.556 1.99999 338.556 1.99999 284 2 c 2,22,-1
 272 2 l 1,23,-1
 272 416 l 1,12,-1
242 117 m 1,24,25
 246 106.333 246 106.333 246 86.1667 c 0,26,27
 246 -1 246 -1 159 -1 c 0,28,29
 109.667 -1 109.667 -1 82.3333 28.52 c 128,-1,30
 55 58.04 55 58.04 55 92.02 c 0,31,32
 55 149.471 55 149.471 96 176 c 0,33,34
 123.818 194 123.818 194 165 194 c 0,35,36
 177 194 177 194 185 192 c 1,37,-1
 185 142 l 2,38,39
 185 105 185 105 214 105 c 0,40,41
 228 105 228 105 242 117 c 1,24,25
428 725 m 1,42,43
 428 643.442 428 643.442 384.412 600.867 c 128,-1,44
 340.823 558.292 340.823 558.292 270 554 c 1,45,-1
 270 725 l 1,46,-1
 428 725 l 1,42,43
EndSplineSet
Validated: 524289
EndChar

StartChar: six
Encoding: 54 54 71
Width: 466
Flags: HW
LayerCount: 2
Fore
SplineSet
199 -1 m 1,0,-1
 188 -1 l 2,1,2
 99.6809 -1 99.6809 -1 67.5 59.5 c 0,3,4
 55 83 55 83 55 120 c 2,5,-1
 55 606 l 2,6,7
 55 672.385 55 672.385 98.5 702.5 c 0,8,9
 132.444 726 132.444 726 187 726 c 2,10,-1
 199 726 l 1,11,-1
 199 -1 l 1,0,-1
248 386 m 1,12,-1
 260 386 l 2,13,14
 349.106 386 349.106 386 380 325.5 c 0,15,16
 392 302 392 302 392 266 c 2,17,-1
 392 122 l 2,18,19
 392 55.6154 392 55.6154 348.5 25.5 c 0,20,21
 314.556 1.99999 314.556 1.99999 260 2 c 2,22,-1
 248 2 l 1,23,-1
 248 386 l 1,12,-1
224 605 m 1,24,25
 220 615.667 220 615.667 220 635.833 c 0,26,27
 220 674.091 220 674.091 243.792 700.045 c 128,-1,28
 267.583 726 267.583 726 314.149 726 c 128,-1,29
 360.714 726 360.714 726 385.857 696.667 c 128,-1,30
 411 667.333 411 667.333 411 631.167 c 0,31,32
 411 572.529 411 572.529 370 546 c 0,33,34
 342.182 528 342.182 528 301 528 c 0,35,36
 289 528 289 528 281 530 c 1,37,-1
 281 580 l 2,38,39
 281 617 281 617 252 617 c 0,40,41
 238 617 238 617 224 605 c 1,24,25
EndSplineSet
Validated: 524289
EndChar

StartChar: seven
Encoding: 55 55 72
Width: 446
Flags: HW
LayerCount: 2
Fore
SplineSet
247 726 m 1,0,-1
 259 726 l 2,1,2
 346.319 726 346.319 726 378.5 665.5 c 0,3,4
 391 642 391 642 391 606 c 2,5,-1
 391 120 l 2,6,7
 391 53.7632 391 53.7632 347 22.5 c 0,8,9
 313.926 -0.999994 313.926 -0.999994 258 -1 c 2,10,-1
 247 -1 l 1,11,-1
 247 726 l 1,0,-1
222 605 m 1,12,13
 208 617 208 617 192.5 617 c 128,-1,14
 177 617 177 617 171 606.5 c 128,-1,15
 165 596 165 596 165 576 c 2,16,-1
 165 530 l 1,17,18
 157 528 157 528 143.5 528 c 0,19,20
 102.818 528 102.818 528 75 546 c 0,21,22
 35 571.882 35 571.882 35 630.968 c 128,-1,23
 35 690.054 35 690.054 86.5 716.5 c 0,24,25
 105 726 105 726 131.5 726 c 0,26,27
 179.92 726 179.92 726 202.96 699.818 c 128,-1,28
 226 673.636 226 673.636 226 644.651 c 128,-1,29
 226 615.667 226 615.667 222 605 c 1,12,13
222 413 m 1,30,-1
 222 269 l 1,31,32
 165 271 165 271 127 306.5 c 128,-1,33
 89 342 89 342 89 413 c 1,34,-1
 222 413 l 1,30,-1
EndSplineSet
Validated: 524289
EndChar

StartChar: eight
Encoding: 56 56 73
Width: 450
Flags: HW
LayerCount: 2
Fore
SplineSet
251 366 m 1,0,-1
 251 573 l 2,1,2
 251 596 251 596 248.5 613.5 c 128,-1,3
 246 631 246 631 232 631 c 0,4,5
 223 631 223 631 220 628.5 c 2,6,-1
 210 620 l 1,7,-1
 210 631 l 2,8,9
 210 672 210 672 230 699 c 128,-1,10
 250 726 250 726 296.5 726 c 128,-1,11
 343 726 343 726 367 697 c 128,-1,12
 391 668 391 668 391 631 c 2,13,-1
 391 482 l 2,14,15
 391 419.14 391 419.14 339.5 388 c 0,16,17
 303.115 366 303.115 366 251 366 c 1,0,-1
198 360 m 1,18,-1
 198 153 l 2,19,20
 198 130 198 130 200.5 112.5 c 128,-1,21
 203 95 203 95 217 95 c 0,22,23
 226 95 226 95 229 97.5 c 2,24,-1
 239 106 l 1,25,-1
 239 95 l 2,26,27
 239 54 239 54 219 27 c 128,-1,28
 199 0 199 0 152.5 0 c 128,-1,29
 106 0 106 0 82 29 c 128,-1,30
 58 58 58 58 58 95 c 2,31,-1
 58 244 l 2,32,33
 58 306.86 58 306.86 109.5 338 c 0,34,35
 145.885 360 145.885 360 198 360 c 1,18,-1
199 370 m 1,36,-1
 188 370 l 2,37,38
 99.6809 370 99.6809 370 67.5 430.5 c 0,39,40
 55 454 55 454 55 491 c 2,41,-1
 55 606 l 2,42,43
 55 672.385 55 672.385 98.5 702.5 c 0,44,45
 132.444 726 132.444 726 187 726 c 2,46,-1
 199 726 l 1,47,-1
 199 370 l 1,36,-1
251 355 m 1,48,-1
 262 355 l 2,49,50
 350.319 355 350.319 355 382.5 294.5 c 0,51,52
 395 271 395 271 395 234 c 2,53,-1
 395 119 l 2,54,55
 395 52.6154 395 52.6154 351.5 22.5 c 0,56,57
 317.556 -1.00001 317.556 -1.00001 263 -1 c 2,58,-1
 251 -1 l 1,59,-1
 251 355 l 1,48,-1
EndSplineSet
Validated: 524289
EndChar

StartChar: nine
Encoding: 57 57 74
Width: 455
Flags: HW
LayerCount: 2
Fore
SplineSet
206 366 m 1,0,1
 150.727 366 150.727 366 123.364 380 c 128,-1,2
 96 394 96 394 81 415 c 128,-1,3
 66 436 66 436 66 472 c 2,4,-1
 66 628 l 2,5,6
 66 667.375 66 667.375 92.0556 696.688 c 128,-1,7
 118.111 726 118.111 726 164.056 726 c 128,-1,8
 210 726 210 726 228.5 699.5 c 128,-1,9
 247 673 247 673 247 631 c 2,10,-1
 247 620 l 1,11,-1
 237 628.5 l 2,12,13
 234 631 234 631 225 631 c 0,14,15
 211 631 211 631 208.5 613.5 c 128,-1,16
 206 596 206 596 206 573 c 2,17,-1
 206 366 l 1,0,1
237 117 m 1,18,19
 241 106.333 241 106.333 241 86.1667 c 0,20,21
 241 -1 241 -1 154 -1 c 0,22,23
 104.667 -1 104.667 -1 77.3333 28.52 c 128,-1,24
 50 58.04 50 58.04 50 92.02 c 0,25,26
 50 149.471 50 149.471 91 176 c 0,27,28
 118.818 194 118.818 194 160 194 c 0,29,30
 172 194 172 194 180 192 c 1,31,-1
 180 142 l 2,32,33
 180 105 180 105 209 105 c 0,34,35
 223 105 223 105 237 117 c 1,18,19
256 726 m 1,36,-1
 268 726 l 2,37,38
 357.106 726 357.106 726 388 665.5 c 0,39,40
 400 642 400 642 400 606 c 2,41,-1
 400 120 l 2,42,43
 400 53.7632 400 53.7632 356 22.5 c 0,44,45
 322.926 -0.999994 322.926 -0.999994 267 -1 c 2,46,-1
 256 -1 l 1,47,-1
 256 726 l 1,36,-1
EndSplineSet
Validated: 524289
EndChar

StartChar: uni00AD
Encoding: 173 173 75
Width: 619
Flags: HW
LayerCount: 2
Fore
SplineSet
574 413 m 1,0,1
 574 327.5 574 327.5 515 298 c 0,2,3
 493 287 493 287 461 287 c 2,4,-1
 45 287 l 1,5,6
 45 369.927 45 369.927 120.5 401.5 c 0,7,8
 148 413 148 413 188 413 c 2,9,-1
 574 413 l 1,0,1
EndSplineSet
Validated: 524289
EndChar

StartChar: equal
Encoding: 61 61 76
Width: 506
Flags: HW
LayerCount: 2
Fore
SplineSet
456 483 m 1,0,1
 456 435.4 456 435.4 423.333 396.2 c 0,2,3
 390.667 357 390.667 357 343 357 c 2,4,-1
 50 357 l 1,5,6
 50 407 50 407 88 445 c 0,7,8
 126 483 126 483 193 483 c 2,9,-1
 456 483 l 1,0,1
456 286 m 1,10,11
 456 238.4 456 238.4 423.333 199.2 c 0,12,13
 390.667 160 390.667 160 343 160 c 2,14,-1
 50 160 l 1,15,16
 50 210 50 210 88 248 c 0,17,18
 126 286 126 286 193 286 c 2,19,-1
 456 286 l 1,10,11
EndSplineSet
Validated: 524289
EndChar

StartChar: ampersand
Encoding: 38 38 77
Width: 572
Flags: HW
LayerCount: 2
Fore
SplineSet
408 -1 m 1,0,-1
 396 -1 l 2,1,2
 306.894 -1 306.894 -1 276 59.5 c 0,3,4
 264 83 264 83 264 119 c 2,5,-1
 264 407 l 1,6,-1
 276 407 l 2,7,8
 365.106 407 365.106 407 396 346.5 c 0,9,10
 408 323 408 323 408 287 c 2,11,-1
 408 -1 l 1,0,-1
173.5 360 m 0,12,13
 190 360 190 360 204 358 c 1,14,-1
 204 155 l 2,15,16
 204 129 204 129 206.5 111 c 128,-1,17
 209 93 209 93 223 93 c 0,18,19
 232 93 232 93 235 95.5 c 2,20,-1
 245 104 l 1,21,-1
 245 93 l 2,22,23
 245 52 245 52 224 25 c 128,-1,24
 203 -2 203 -2 156 -2 c 128,-1,25
 109 -2 109 -2 84.5 24.5 c 128,-1,26
 60 51 60 51 60 96 c 2,27,-1
 60 242 l 2,28,29
 60 304.324 60 304.324 95.0556 332.162 c 0,30,31
 130.111 360 130.111 360 173.5 360 c 0,12,13
204 372 m 1,32,-1
 192 372 l 2,33,34
 102.894 372 102.894 372 72 432.5 c 0,35,36
 60 456 60 456 60 492 c 2,37,-1
 60 606 l 2,38,39
 60 672.385 60 672.385 103.5 702.5 c 0,40,41
 137.444 726 137.444 726 192 726 c 2,42,-1
 204 726 l 1,43,-1
 204 372 l 1,32,-1
289.5 422 m 0,44,45
 274 422 274 422 264 424 c 1,46,-1
 264 573 l 2,47,48
 264 596 264 596 261.5 613.5 c 128,-1,49
 259 631 259 631 245 631 c 0,50,51
 236 631 236 631 233 628.5 c 2,52,-1
 223 620 l 1,53,54
 222 625 222 625 222 628 c 2,55,-1
 222 637 l 2,56,57
 222 674 222 674 242.5 700 c 128,-1,58
 263 726 263 726 308.5 726 c 128,-1,59
 354 726 354 726 379 697 c 128,-1,60
 404 668 404 668 404 631 c 2,61,-1
 404 532 l 2,62,63
 404 476.086 404 476.086 367.596 449.043 c 0,64,65
 331.192 422 331.192 422 289.5 422 c 0,44,45
428 281 m 1,66,-1
 429 300 l 1,67,68
 429 354 429 354 411 378 c 128,-1,69
 393 402 393 402 364 410 c 1,70,-1
 541 410 l 1,71,72
 542 405 542 405 542 401 c 2,73,-1
 542 393 l 2,74,75
 542 344 542 344 515 312.5 c 128,-1,76
 488 281 488 281 439 281 c 2,77,-1
 428 281 l 1,66,-1
EndSplineSet
Validated: 524289
EndChar

StartChar: question
Encoding: 63 63 78
Width: 423
Flags: HW
LayerCount: 2
Fore
SplineSet
174 473 m 1,0,1
 124.778 473 124.778 473 87 498.5 c 0,2,3
 40 530.225 40 530.225 40 593 c 2,4,-1
 40 611 l 2,5,6
 40 669.742 40 669.742 71.1429 697.871 c 128,-1,7
 102.286 726 102.286 726 149.643 726 c 128,-1,8
 197 726 197 726 219 698 c 128,-1,9
 241 670 241 670 241 632 c 2,10,-1
 241 623 l 2,11,12
 241 619 241 619 240 614 c 1,13,14
 228.387 628.516 228.387 628.516 213.028 628.516 c 0,15,16
 187.565 628.516 187.565 628.516 178.5 606.5 c 0,17,18
 174 595.571 174 595.571 174 570 c 2,19,-1
 174 473 l 1,0,1
279 462 m 1,20,-1
 260 463 l 1,21,-1
 260 726 l 1,22,-1
 274 726 l 2,23,24
 328 726 328 726 360.5 697.5 c 128,-1,25
 393 669 393 669 393 603 c 2,26,-1
 393 566 l 2,27,28
 393 511 393 511 361.5 486.5 c 128,-1,29
 330 462 330 462 279 462 c 1,20,-1
255 230 m 1,30,-1
 242 230 l 2,31,32
 188 230 188 230 154.5 258 c 128,-1,33
 121 286 121 286 121 343 c 128,-1,34
 121 400 121 400 163 428 c 0,35,36
 196 450 196 450 243 450 c 2,37,-1
 255 450 l 1,38,-1
 255 230 l 1,30,-1
164 17 m 128,-1,40
 143 38 143 38 143 68 c 128,-1,41
 143 98 143 98 164 119 c 128,-1,42
 185 140 185 140 215 140 c 128,-1,43
 245 140 245 140 266 119 c 128,-1,44
 287 98 287 98 287 68 c 128,-1,45
 287 38 287 38 266 17 c 128,-1,46
 245 -4 245 -4 215 -4 c 128,-1,39
 185 -4 185 -4 164 17 c 128,-1,40
EndSplineSet
Validated: 524289
EndChar

StartChar: bar
Encoding: 124 124 79
Width: 344
Flags: HW
LayerCount: 2
Fore
SplineSet
100 726 m 1,0,1
 178 726 178 726 211 695.5 c 128,-1,2
 244 665 244 665 244 596 c 2,3,-1
 244 -211 l 2,4,5
 244 -307.755 244 -307.755 159.5 -325 c 0,6,7
 135 -330 135 -330 110 -330 c 2,8,-1
 100 -330 l 1,9,-1
 100 726 l 1,0,1
EndSplineSet
Validated: 524289
EndChar

StartChar: plus
Encoding: 43 43 80
Width: 495
Flags: HW
LayerCount: 2
Fore
SplineSet
305 87 m 1,0,1
 248 87 248 87 220 110.5 c 128,-1,2
 192 134 192 134 192 189 c 2,3,-1
 192 245 l 1,4,-1
 45 245 l 1,5,6
 45 302 45 302 68.5 330 c 128,-1,7
 92 358 92 358 147 358 c 2,8,-1
 192 358 l 1,9,-1
 192 512 l 1,10,11
 249 512 249 512 277 490 c 128,-1,12
 305 468 305 468 305 420 c 2,13,-1
 305 358 l 1,14,-1
 450 358 l 1,15,16
 450 301 450 301 428 273 c 128,-1,17
 406 245 406 245 358 245 c 2,18,-1
 305 245 l 1,19,-1
 305 87 l 1,0,1
EndSplineSet
Validated: 1
EndChar

StartChar: asterisk
Encoding: 42 42 81
Width: 511
Flags: HW
LayerCount: 2
Fore
SplineSet
10 555 m 1,0,1
 58.5714 606 58.5714 606 102.845 606 c 0,2,3
 147.118 606 147.118 606 181 574 c 2,4,-1
 228 528 l 1,5,6
 221 521 221 521 215 516 c 1,7,8
 225 507 225 507 234 498 c 1,9,-1
 179 446 l 2,10,11
 146.176 415 146.176 415 114.588 415 c 0,12,13
 59 415 59 415 10 464 c 1,14,-1
 57 510 l 1,15,-1
 10 555 l 1,0,1
210 264 m 1,16,17
 161 313 161 313 161 357.562 c 0,18,19
 161 402.125 161 402.125 191 434 c 2,20,-1
 244 489 l 1,21,22
 250 483 250 483 255 477 c 1,23,24
 261 483 261 483 267 489 c 1,25,-1
 319 434 l 2,26,27
 350 401.176 350 401.176 350 369.588 c 0,28,29
 350 314 350 314 301 265 c 1,30,-1
 255 311 l 1,31,-1
 210 264 l 1,16,17
501 465 m 1,32,33
 452 416 452 416 406.5 416 c 0,34,35
 361 416 361 416 331 446 c 2,36,-1
 276 499 l 1,37,38
 285 508 285 508 295 516 c 1,39,40
 289 521 289 521 283 528 c 1,41,-1
 329 573 l 2,42,43
 361 605 361 605 395 605 c 0,44,45
 450 605 450 605 500 555 c 1,46,-1
 453 510 l 1,47,-1
 501 465 l 1,32,33
300 755 m 1,48,49
 351 706.429 351 706.429 351 662.155 c 0,50,51
 351 617.882 351 617.882 319 584 c 2,52,-1
 273 537 l 1,53,54
 263 547 263 547 254 557 c 1,55,56
 247 548 247 548 237 538 c 1,57,-1
 192 584 l 2,58,59
 160 616 160 616 160 650 c 0,60,61
 160 705 160 705 210 755 c 1,62,-1
 255 707 l 1,63,-1
 300 755 l 1,48,49
EndSplineSet
Validated: 524289
EndChar

StartChar: logicalnot
Encoding: 172 172 82
Width: 634
Flags: HW
LayerCount: 2
Fore
SplineSet
573 402 m 1,0,-1
 573 138 l 1,1,2
 487.5 138 487.5 138 458 197 c 0,3,4
 447 219 447 219 447 251 c 2,5,-1
 447 297 l 1,6,-1
 45 297 l 1,7,8
 45 379.927 45 379.927 120.5 411.5 c 0,9,10
 148 423 148 423 188 423 c 2,11,-1
 574 423 l 1,12,13
 574 412 574 412 573 402 c 1,0,-1
EndSplineSet
Validated: 524289
EndChar

StartChar: less
Encoding: 60 60 83
Width: 417
Flags: HW
LayerCount: 2
Fore
SplineSet
377 103 m 1,0,1
 337.727 55 337.727 55 288.993 55 c 0,2,3
 240.258 55 240.258 55 186 113 c 2,4,-1
 35 271 l 1,5,-1
 184 425 l 2,6,7
 240 484 240 484 286 484 c 128,-1,8
 332 484 332 484 375 435 c 1,9,-1
 205 270 l 1,10,-1
 377 103 l 1,0,1
EndSplineSet
Validated: 524289
EndChar

StartChar: greater
Encoding: 62 62 84
Width: 417
Flags: HW
LayerCount: 2
Fore
SplineSet
382 271 m 1,0,-1
 231 113 l 2,1,2
 176.742 55 176.742 55 128.007 55 c 0,3,4
 79.2727 55 79.2727 55 40 103 c 1,5,-1
 212 270 l 1,6,-1
 42 435 l 1,7,8
 85 484 85 484 130.5 484 c 128,-1,9
 176 484 176 484 233 425 c 2,10,-1
 382 271 l 1,0,-1
EndSplineSet
Validated: 524289
EndChar

StartChar: questiondown
Encoding: 191 191 85
Width: 423
Flags: HW
LayerCount: 2
Fore
SplineSet
215 -136 m 0,0,1
 249 -136 249 -136 249 -84 c 2,2,-1
 249 20 l 1,3,4
 298.222 20 298.222 20 336 -5.5 c 0,5,6
 383 -37.225 383 -37.225 383 -100 c 2,7,-1
 383 -118 l 2,8,9
 383 -175.633 383 -175.633 351.259 -206.317 c 0,10,11
 319.517 -237 319.517 -237 273.893 -237 c 0,12,13
 228.269 -237 228.269 -237 205.135 -210.848 c 0,14,15
 182 -184.696 182 -184.696 182 -147 c 2,16,-1
 182 -135 l 2,17,18
 182 -126 182 -126 183 -121 c 1,19,20
 193 -136 193 -136 215 -136 c 0,0,1
163 -233 m 1,21,-1
 149 -233 l 2,22,23
 95 -233 95 -233 62.5 -204.5 c 128,-1,24
 30 -176 30 -176 30 -110 c 2,25,-1
 30 -79 l 2,26,27
 30 -26.875 30 -26.875 64.2963 2.0625 c 0,28,29
 98.5926 31 98.5926 31 147 31 c 2,30,-1
 163 31 l 1,31,-1
 163 -233 l 1,21,-1
168 263 m 1,32,-1
 181 263 l 2,33,34
 235 263 235 263 268.5 235 c 128,-1,35
 302 207 302 207 302 150 c 128,-1,36
 302 93 302 93 260 65 c 0,37,38
 227 43 227 43 180 43 c 2,39,-1
 168 43 l 1,40,-1
 168 263 l 1,32,-1
259 476 m 128,-1,42
 280 455 280 455 280 425 c 128,-1,43
 280 395 280 395 259 374 c 128,-1,44
 238 353 238 353 208 353 c 128,-1,45
 178 353 178 353 157 374 c 128,-1,46
 136 395 136 395 136 425 c 128,-1,47
 136 455 136 455 157 476 c 128,-1,48
 178 497 178 497 208 497 c 128,-1,41
 238 497 238 497 259 476 c 128,-1,42
EndSplineSet
Validated: 524289
EndChar

StartChar: exclamdown
Encoding: 161 161 86
Width: 254
Flags: HW
LayerCount: 2
Fore
SplineSet
60 270 m 1,0,-1
 69 270 l 2,1,2
 118 270 118 270 156 240.444 c 0,3,4
 194 210.889 194 210.889 194 154 c 2,5,-1
 194 -249 l 1,6,7
 139.29 -249 139.29 -249 99.6452 -215.784 c 0,8,9
 60 -182.568 60 -182.568 60 -129 c 2,10,-1
 60 270 l 1,0,-1
173 487 m 128,-1,12
 194 466 194 466 194 436 c 128,-1,13
 194 406 194 406 173 385 c 128,-1,14
 152 364 152 364 122 364 c 128,-1,15
 92 364 92 364 71 385 c 128,-1,16
 50 406 50 406 50 436 c 128,-1,17
 50 466 50 466 71 487 c 128,-1,18
 92 508 92 508 122 508 c 128,-1,11
 152 508 152 508 173 487 c 128,-1,12
EndSplineSet
Validated: 524289
EndChar

StartChar: bracketleft
Encoding: 91 91 87
Width: 355
Flags: HW
LayerCount: 2
Fore
SplineSet
60 762 m 1,0,-1
 345 762 l 1,1,2
 345 676.5 345 676.5 286 647 c 0,3,4
 264 636 264 636 232 636 c 2,5,-1
 186 636 l 1,6,-1
 186 -88 l 1,7,-1
 232 -88 l 2,8,9
 291.389 -88 291.389 -88 318.194 -125.115 c 0,10,11
 345 -162.231 345 -162.231 345 -214 c 1,12,-1
 60 -214 l 1,13,-1
 60 762 l 1,0,-1
EndSplineSet
Validated: 524289
EndChar

StartChar: bracketright
Encoding: 93 93 88
Width: 355
Flags: HW
LayerCount: 2
Fore
SplineSet
277 762 m 1,0,-1
 295 763 l 1,1,-1
 295 -214 l 1,2,-1
 10 -214 l 1,3,4
 10 -130.341 10 -130.341 69 -99.5 c 0,5,6
 91 -88 91 -88 123 -88 c 2,7,-1
 170 -88 l 1,8,9
 169 -83 169 -83 169 -71 c 2,10,-1
 169 636 l 1,11,-1
 123 636 l 2,12,13
 62.8889 636 62.8889 636 36.4444 672.615 c 0,14,15
 10 709.231 10 709.231 10 762 c 1,16,-1
 277 762 l 1,0,-1
EndSplineSet
Validated: 524289
EndChar

StartChar: underscore
Encoding: 95 95 89
Width: 649
Flags: HW
LayerCount: 2
Fore
SplineSet
589 -93 m 1,0,1
 589 -178.5 589 -178.5 530 -208 c 0,2,3
 508 -219 508 -219 476 -219 c 2,4,-1
 60 -219 l 1,5,6
 60 -136.073 60 -136.073 135.5 -104.5 c 0,7,8
 163 -93 163 -93 203 -93 c 2,9,-1
 589 -93 l 1,0,1
EndSplineSet
Validated: 524289
EndChar

StartChar: quotedbl
Encoding: 34 34 90
Width: 404
Flags: W
LayerCount: 2
Fore
SplineSet
176 615 m 2,0,1
 176 564 176 564 150.5 533 c 128,-1,2
 125 502 125 502 65 502 c 1,3,-1
 65 648 l 2,4,5
 65 680 65 680 74 702 c 128,-1,6
 83 724 83 724 98 737 c 128,-1,7
 113 750 113 750 133 755.5 c 128,-1,8
 153 761 153 761 176 761 c 1,9,-1
 176 615 l 2,0,1
339 615 m 2,10,11
 339 564 339 564 313.5 533 c 128,-1,12
 288 502 288 502 228 502 c 1,13,-1
 228 648 l 2,14,15
 228 680 228 680 237 702 c 128,-1,16
 246 724 246 724 261 737 c 128,-1,17
 276 750 276 750 296 755.5 c 128,-1,18
 316 761 316 761 339 761 c 1,19,-1
 339 615 l 2,10,11
EndSplineSet
Validated: 1
EndChar

StartChar: cent
Encoding: 162 162 91
Width: 456
Flags: HW
LayerCount: 2
Fore
SplineSet
189 0 m 1,0,-1
 180 0 l 2,1,2
 96 0 96 0 66 60 c 0,3,4
 55 82 55 82 55 114 c 2,5,-1
 55 390 l 2,6,7
 55 508 55 508 189 508 c 1,8,-1
 189 0 l 1,0,-1
243 412 m 0,9,10
 226.8 412 226.8 412 210 400 c 1,11,12
 203 414 203 414 203 438 c 128,-1,13
 203 462 203 462 229 485 c 128,-1,14
 255 508 255 508 301 508 c 0,15,16
 370 508 370 508 400 452.5 c 0,17,18
 410 434 410 434 410 414 c 0,19,20
 410 373.458 410 373.458 384.82 347.229 c 128,-1,21
 359.64 321 359.64 321 312 321 c 0,22,23
 297 321 297 321 282 324 c 1,24,-1
 282 358 l 2,25,26
 282 412 282 412 243 412 c 0,9,10
240.817 96.9231 m 0,27,28
 282 96.9231 282 96.9231 282 150 c 2,29,-1
 282 184 l 1,30,31
 297 188 297 188 318 188 c 128,-1,32
 339 188 339 188 357.5 180 c 128,-1,33
 376 172 376 172 387.5 159 c 128,-1,34
 399 146 399 146 404.5 129.5 c 128,-1,35
 410 113 410 113 410 93 c 0,36,37
 410 51.4839 410 51.4839 376.75 25.7419 c 128,-1,38
 343.5 3.57628e-07 343.5 3.57628e-07 299.25 1.78814e-07 c 128,-1,39
 255 0 255 0 229 23 c 128,-1,40
 203 46 203 46 203 70 c 128,-1,41
 203 94 203 94 210 108 c 1,42,43
 222 96.9231 222 96.9231 240.817 96.9231 c 0,27,28
304 -142 m 1,44,-1
 291 -143 l 1,45,46
 246.36 -143 246.36 -143 220.68 -116.25 c 128,-1,47
 195 -89.5 195 -89.5 195 -58 c 2,48,-1
 195 -15 l 1,49,50
 211.333 -22 211.333 -22 252.667 -22 c 128,-1,51
 294 -22 294 -22 304 -16 c 1,52,-1
 304 -142 l 1,44,-1
304 525 m 1,53,54
 294 531 294 531 252.667 531 c 128,-1,55
 211.333 531 211.333 531 195 524 c 1,56,-1
 195 567 l 2,57,58
 195 598.5 195 598.5 220.68 625.25 c 128,-1,59
 246.36 652 246.36 652 291 652 c 1,60,-1
 304 651 l 1,61,-1
 304 525 l 1,53,54
EndSplineSet
Validated: 524289
EndChar

StartChar: sterling
Encoding: 163 163 92
Width: 494
Flags: HW
LayerCount: 2
Fore
SplineSet
204 278 m 1,0,-1
 192 278 l 2,1,2
 102.894 278 102.894 278 72 338.5 c 0,3,4
 60 362 60 362 60 398 c 2,5,-1
 60 606 l 2,6,7
 60 672.385 60 672.385 103.5 702.5 c 0,8,9
 137.444 726 137.444 726 192 726 c 2,10,-1
 204 726 l 1,11,-1
 204 278 l 1,0,-1
289.5 503 m 0,12,13
 274 503 274 503 264 505 c 1,14,-1
 264 593 l 2,15,16
 264 631 264 631 241 631 c 0,17,18
 229 631 229 631 223 620 c 1,19,-1
 223 634 l 2,20,21
 223 726 223 726 310 726 c 0,22,23
 356 726 356 726 380 697 c 128,-1,24
 404 668 404 668 404 631 c 2,25,-1
 404 613 l 2,26,27
 404 557.086 404 557.086 367.596 530.043 c 0,28,29
 331.192 503 331.192 503 289.5 503 c 0,12,13
408 1 m 1,30,-1
 396 1 l 2,31,32
 306.894 1 306.894 1 276 61.5 c 0,33,34
 264 85 264 85 264 121 c 2,35,-1
 264 270 l 1,36,-1
 276 270 l 2,37,38
 365.106 270 365.106 270 396 209.5 c 0,39,40
 408 186 408 186 408 150 c 2,41,-1
 408 1 l 1,30,-1
173.5 270 m 0,42,43
 190 270 190 270 204 268 c 1,44,-1
 204 136 l 2,45,46
 204 116 204 116 206.5 104.5 c 128,-1,47
 209 93 209 93 220.5 93 c 128,-1,48
 232 93 232 93 235.5 95 c 128,-1,49
 239 97 239 97 245 104 c 1,50,-1
 245 93 l 2,51,52
 245 52 245 52 224 25 c 128,-1,53
 203 -2 203 -2 157.577 -2 c 0,54,55
 112.154 -2 112.154 -2 88.0769 25.2174 c 0,56,57
 64 52.4348 64 52.4348 64 93 c 2,58,-1
 64 152 l 2,59,60
 64 214.125 64 214.125 97.1111 242.062 c 0,61,62
 130.222 270 130.222 270 173.5 270 c 0,42,43
264 392 m 1,63,-1
 369 392 l 2,64,65
 411 392 411 392 435 366 c 128,-1,66
 459 340 459 340 459 298 c 0,67,68
 459 286 459 286 458 283 c 1,69,-1
 264 283 l 1,70,-1
 264 392 l 1,63,-1
EndSplineSet
Validated: 524289
EndChar

StartChar: quotesingle
Encoding: 39 39 93
Width: 216
Flags: HW
LayerCount: 2
Fore
SplineSet
171 595 m 2,0,1
 171 482 171 482 60 482 c 1,2,-1
 60 648 l 2,3,4
 60 761 60 761 171 761 c 1,5,-1
 171 595 l 2,0,1
EndSplineSet
Validated: 1
EndChar

StartChar: dollar
Encoding: 36 36 94
Width: 466
Flags: W
LayerCount: 2
Fore
SplineSet
206 260 m 1,0,-1
 194 260 l 2,1,2
 171 260 171 260 148 265 c 128,-1,3
 125 270 125 270 105.5 283.5 c 128,-1,4
 86 297 86 297 74 320.5 c 128,-1,5
 62 344 62 344 62 380 c 2,6,-1
 62 526 l 2,7,8
 62 562 62 562 74 585.5 c 128,-1,9
 86 609 86 609 105.5 622.5 c 128,-1,10
 125 636 125 636 148 641 c 128,-1,11
 171 646 171 646 194 646 c 2,12,-1
 206 646 l 1,13,-1
 206 260 l 1,0,-1
55 96 m 0,14,15
 55 127 55 127 67 146.5 c 128,-1,16
 79 166 79 166 96 177 c 128,-1,17
 113 188 113 188 132 191.5 c 128,-1,18
 151 195 151 195 165 195 c 0,19,20
 177 195 177 195 185 193 c 1,21,-1
 185 143 l 2,22,23
 185 106 185 106 214 106 c 0,24,25
 223 106 223 106 229 109 c 128,-1,26
 235 112 235 112 242 118 c 1,27,28
 245 110 245 110 245.5 98 c 128,-1,29
 246 86 246 86 246 79 c 0,30,31
 246 67 246 67 242 53 c 128,-1,32
 238 39 238 39 228.5 27.5 c 128,-1,33
 219 16 219 16 202 8 c 128,-1,34
 185 0 185 0 159 0 c 0,35,36
 132 0 132 0 112.5 9 c 128,-1,37
 93 18 93 18 80.5 31.5 c 128,-1,38
 68 45 68 45 61.5 62 c 128,-1,39
 55 79 55 79 55 96 c 0,14,15
262 375 m 1,40,-1
 274 375 l 2,41,42
 296 375 296 375 319.5 370 c 128,-1,43
 343 365 343 365 362.5 351.5 c 128,-1,44
 382 338 382 338 394 314.5 c 128,-1,45
 406 291 406 291 406 255 c 2,46,-1
 406 119 l 2,47,48
 406 83 406 83 394 59.5 c 128,-1,49
 382 36 382 36 362.5 22.5 c 128,-1,50
 343 9 343 9 319.5 4 c 128,-1,51
 296 -1 296 -1 274 -1 c 2,52,-1
 262 -1 l 1,53,-1
 262 375 l 1,40,-1
411 550 m 0,54,55
 411 518 411 518 399 499 c 128,-1,56
 387 480 387 480 370 469 c 128,-1,57
 353 458 353 458 334 454.5 c 128,-1,58
 315 451 315 451 301 451 c 0,59,60
 289 451 289 451 281 453 c 1,61,-1
 281 503 l 2,62,63
 281 540 281 540 252 540 c 0,64,65
 243 540 243 540 237 537 c 128,-1,66
 231 534 231 534 224 528 c 1,67,68
 221 536 221 536 220.5 548 c 128,-1,69
 220 560 220 560 220 567 c 0,70,71
 220 579 220 579 224 593 c 128,-1,72
 228 607 228 607 237.5 618.5 c 128,-1,73
 247 630 247 630 264 638 c 128,-1,74
 281 646 281 646 307 646 c 0,75,76
 334 646 334 646 353.5 637 c 128,-1,77
 373 628 373 628 385.5 614.5 c 128,-1,78
 398 601 398 601 404.5 583.5 c 128,-1,79
 411 566 411 566 411 550 c 0,54,55
206 -23 m 1,80,81
 211 -26 211 -26 224.5 -27 c 128,-1,82
 238 -28 238 -28 253 -28 c 0,83,84
 273 -28 273 -28 291 -26 c 128,-1,85
 309 -24 309 -24 315 -21 c 1,86,-1
 315 -187 l 1,87,88
 311 -187 311 -187 308 -187.5 c 128,-1,89
 305 -188 305 -188 301 -188 c 0,90,91
 277 -188 277 -188 259 -180.5 c 128,-1,92
 241 -173 241 -173 229.5 -161 c 128,-1,93
 218 -149 218 -149 212 -134.5 c 128,-1,94
 206 -120 206 -120 206 -106 c 2,95,-1
 206 -23 l 1,80,81
206 757 m 2,96,97
 206 771 206 771 212 785.5 c 128,-1,98
 218 800 218 800 229.5 812 c 128,-1,99
 241 824 241 824 259 831.5 c 128,-1,100
 277 839 277 839 301 839 c 0,101,102
 305 839 305 839 308 838.5 c 128,-1,103
 311 838 311 838 315 838 c 1,104,-1
 315 672 l 1,105,106
 309 675 309 675 291 677 c 128,-1,107
 273 679 273 679 253 679 c 0,108,109
 238 679 238 679 224.5 678 c 128,-1,110
 211 677 211 677 206 674 c 1,111,-1
 206 757 l 2,96,97
EndSplineSet
Validated: 1
EndChar

StartChar: asciicircum
Encoding: 94 94 95
Width: 531
Flags: HW
LayerCount: 2
Fore
SplineSet
264 764 m 1,0,-1
 422 613 l 2,1,2
 480 558.742 480 558.742 480 510.007 c 0,3,4
 480 461.273 480 461.273 432 422 c 1,5,-1
 265 594 l 1,6,-1
 100 424 l 1,7,8
 51 467 51 467 51 512.5 c 128,-1,9
 51 558 51 558 110 615 c 2,10,-1
 264 764 l 1,0,-1
EndSplineSet
Validated: 524289
EndChar

StartChar: brokenbar
Encoding: 166 166 96
Width: 344
Flags: HW
LayerCount: 2
Fore
SplineSet
100 761 m 1,0,1
 194.596 761 194.596 761 230.5 698.5 c 0,2,3
 244 675 244 675 244 641 c 2,4,-1
 244 415 l 2,5,6
 244 318.245 244 318.245 159.5 301 c 0,7,8
 135 296 135 296 110 296 c 2,9,-1
 100 296 l 1,10,-1
 100 761 l 1,0,1
100 220 m 1,11,12
 194.596 220 194.596 220 230.5 157.5 c 0,13,14
 244 134 244 134 244 100 c 2,15,-1
 244 -131 l 2,16,17
 244 -227.755 244 -227.755 159.5 -245 c 0,18,19
 135 -250 135 -250 110 -250 c 2,20,-1
 100 -250 l 1,21,-1
 100 220 l 1,11,12
EndSplineSet
Validated: 524289
EndChar

StartChar: guillemotleft
Encoding: 171 171 97
Width: 651
Flags: HW
LayerCount: 2
Fore
SplineSet
377 103 m 1,0,1
 337.727 55 337.727 55 288.993 55 c 0,2,3
 240.258 55 240.258 55 186 113 c 2,4,-1
 35 271 l 1,5,-1
 184 425 l 2,6,7
 240 484 240 484 286 484 c 128,-1,8
 332 484 332 484 375 435 c 1,9,-1
 205 270 l 1,10,-1
 377 103 l 1,0,1
611 103 m 1,11,12
 571.727 55 571.727 55 522.993 55 c 0,13,14
 474.258 55 474.258 55 420 113 c 2,15,-1
 269 271 l 1,16,-1
 418 425 l 2,17,18
 474 484 474 484 520 484 c 128,-1,19
 566 484 566 484 609 435 c 1,20,-1
 439 270 l 1,21,-1
 611 103 l 1,11,12
EndSplineSet
Validated: 524289
EndChar

StartChar: guillemotright
Encoding: 187 187 98
Width: 651
Flags: HW
LayerCount: 2
Fore
SplineSet
274 425 m 1,0,1
 313.273 473 313.273 473 362.007 473 c 0,2,3
 410.742 473 410.742 473 465 415 c 2,4,-1
 616 257 l 1,5,-1
 467 103 l 2,6,7
 410 44 410 44 364.5 44 c 128,-1,8
 319 44 319 44 276 93 c 1,9,-1
 446 258 l 1,10,-1
 274 425 l 1,0,1
40 425 m 1,11,12
 79.2727 473 79.2727 473 128.007 473 c 0,13,14
 176.742 473 176.742 473 231 415 c 2,15,-1
 382 257 l 1,16,-1
 233 103 l 2,17,18
 176 44 176 44 130.5 44 c 128,-1,19
 85 44 85 44 42 93 c 1,20,-1
 212 258 l 1,21,-1
 40 425 l 1,11,12
EndSplineSet
Validated: 524289
EndChar

StartChar: asciitilde
Encoding: 126 126 99
Width: 388
Flags: HW
LayerCount: 2
Fore
SplineSet
259 700 m 256,0,1
 294.533 700 294.533 700 324 726 c 1,2,3
 348 690 348 690 348 658.5 c 128,-1,4
 348 627 348 627 326 603 c 128,-1,5
 304 579 304 579 267.75 579 c 128,-1,6
 231.5 579 231.5 579 189 594 c 128,-1,7
 146.5 609 146.5 609 122 609 c 256,8,9
 83.5 609 83.5 609 59 574 c 1,10,11
 40 602 40 602 40 627 c 0,12,13
 40 671.556 40 671.556 68.2692 698.778 c 128,-1,14
 96.5385 726 96.5385 726 137 726 c 256,15,16
 165.6 726 165.6 726 202 713 c 128,-1,17
 238.4 700 238.4 700 259 700 c 256,0,1
EndSplineSet
Validated: 524289
EndChar

StartChar: grave
Encoding: 96 96 100
Width: 309
Flags: HW
LayerCount: 2
Fore
SplineSet
168 566 m 2,0,1
 102.857 566 102.857 566 80 614 c 0,2,3
 65 645.5 65 645.5 65 708 c 1,4,-1
 141 708 l 2,5,6
 204 708 204 708 228.5 659 c 0,7,8
 244 628 244 628 244 566 c 1,9,-1
 168 566 l 2,0,1
EndSplineSet
Validated: 524289
EndChar

StartChar: acute
Encoding: 180 180 101
Width: 309
Flags: HW
LayerCount: 2
Fore
SplineSet
65 566 m 1,0,1
 65 628 65 628 78 654 c 128,-1,2
 91 680 91 680 111.5 694 c 128,-1,3
 132 708 132 708 168 708 c 2,4,-1
 244 708 l 1,5,6
 244 645.5 244 645.5 231.5 619.25 c 0,7,8
 206.143 566 206.143 566 141 566 c 2,9,-1
 65 566 l 1,0,1
EndSplineSet
Validated: 524289
EndChar

StartChar: plusminus
Encoding: 177 177 102
Width: 495
Flags: HW
LayerCount: 2
Fore
SplineSet
310 159 m 1,0,1
 253 159 253 159 225 182.5 c 128,-1,2
 197 206 197 206 197 261 c 2,3,-1
 197 280 l 1,4,-1
 60 280 l 1,5,6
 60 337 60 337 83.5 365 c 128,-1,7
 107 393 107 393 162 393 c 2,8,-1
 197 393 l 1,9,-1
 197 508 l 1,10,11
 254 508 254 508 282 486 c 128,-1,12
 310 464 310 464 310 416 c 2,13,-1
 310 393 l 1,14,-1
 435 393 l 1,15,16
 435 336 435 336 413 308 c 128,-1,17
 391 280 391 280 343 280 c 2,18,-1
 310 280 l 1,19,-1
 310 159 l 1,0,1
60 0 m 1,20,21
 60 57 60 57 83.5 85 c 128,-1,22
 107 113 107 113 162 113 c 2,23,-1
 435 113 l 1,24,25
 435 56 435 56 413 28 c 128,-1,26
 391 0 391 0 343 0 c 2,27,-1
 60 0 l 1,20,21
EndSplineSet
Validated: 1
EndChar

StartChar: acircumflex
Encoding: 226 226 103
Width: 452
Flags: HW
LayerCount: 2
Fore
SplineSet
136 541 m 1,0,1
 101 565.706 101 565.706 101 604.353 c 0,2,3
 101 643 101 643 125 663 c 2,4,-1
 232 754 l 1,5,-1
 338 663 l 1,6,7
 362 641 362 641 362 603.147 c 0,8,9
 362 565.294 362 565.294 329 542 c 1,10,-1
 232 633 l 1,11,-1
 136 541 l 1,0,1
197 403 m 1,12,13
 191 415 191 415 191 440.5 c 128,-1,14
 191 466 191 466 218 487 c 128,-1,15
 245 508 245 508 283 508 c 0,16,17
 343 508 343 508 375 477.5 c 128,-1,18
 407 447 407 447 407 390 c 2,19,-1
 407 0 l 1,20,21
 319.111 0 319.111 0 285.5 60.5 c 0,22,23
 273 83 273 83 273 118 c 2,24,-1
 273 352 l 2,25,26
 273 395.235 273 395.235 252.5 408.5 c 0,27,28
 244 414 244 414 226.917 414 c 128,-1,29
 209.833 414 209.833 414 197 403 c 1,12,13
255 105 m 1,30,31
 261 93 261 93 261 67.5 c 128,-1,32
 261 42 261 42 234 21 c 128,-1,33
 207 0 207 0 169 0 c 0,34,35
 109 0 109 0 77 32 c 128,-1,36
 45 64 45 64 45 112 c 2,37,-1
 45 390 l 2,38,39
 45 450.051 45 450.051 85.3571 479.026 c 0,40,41
 125.714 508 125.714 508 179 508 c 1,42,-1
 179 156 l 2,43,44
 179 112.765 179 112.765 199.5 99.5 c 0,45,46
 208 94 208 94 225.083 94 c 128,-1,47
 242.167 94 242.167 94 255 105 c 1,30,31
EndSplineSet
Validated: 524289
EndChar

StartChar: ecircumflex
Encoding: 234 234 104
Width: 442
Flags: HW
LayerCount: 2
Fore
SplineSet
216 412 m 0,0,1
 179 412 179 412 179 365 c 2,2,-1
 179 0 l 1,3,-1
 169 0 l 2,4,5
 86 0 86 0 56 60 c 0,6,7
 45 82 45 82 45 114 c 2,8,-1
 45 383 l 2,9,10
 45 438 45 438 71.5 473 c 128,-1,11
 98 508 98 508 158 508 c 0,12,13
 198 508 198 508 224 487.5 c 128,-1,14
 250 467 250 467 250 422 c 0,15,16
 250 407 250 407 246 400 c 1,17,18
 232 412 232 412 216 412 c 0,0,1
268 507 m 1,19,20
 273 508 273 508 278 508 c 2,21,-1
 288 508 l 2,22,23
 342 508 342 508 372 480.5 c 128,-1,24
 402 453 402 453 402 402 c 2,25,-1
 402 347 l 2,26,27
 402 279 402 279 368 246 c 128,-1,28
 334 213 334 213 285 213 c 2,29,-1
 278 213 l 1,30,31
 240 215 240 215 216.5 238.5 c 128,-1,32
 193 262 193 262 193 295 c 0,33,34
 193 305.333 193 305.333 197 316 c 1,35,36
 205 308 205 308 211 304 c 128,-1,37
 217 300 217 300 235.5 300 c 0,38,39
 268 300 268 300 268 355 c 2,40,-1
 268 507 l 1,19,20
130 541 m 1,41,42
 95 565.706 95 565.706 95 604.353 c 128,-1,43
 95 643 95 643 119 663 c 2,44,-1
 226 754 l 1,45,-1
 332 663 l 1,46,47
 356 641 356 641 356 603.147 c 128,-1,48
 356 565.294 356 565.294 323 542 c 1,49,-1
 226 633 l 1,50,-1
 130 541 l 1,41,42
398 91 m 128,-1,52
 398 46.5667 398 46.5667 367.63 23.2833 c 128,-1,53
 337.261 -1.94121e-06 337.261 -1.94121e-06 291.13 -9.70605e-07 c 128,-1,54
 245 0 245 0 224 25 c 128,-1,55
 203 50 203 50 203 74 c 128,-1,56
 203 98 203 98 208 108 c 1,57,58
 220 96.9231 220 96.9231 238.391 96.9231 c 0,59,60
 261.692 96.9231 261.692 96.9231 265.846 111.462 c 128,-1,61
 270 126 270 126 270 147 c 2,62,-1
 270 184 l 1,63,64
 285 188 285 188 308.5 188 c 128,-1,65
 332 188 332 188 349.5 180 c 128,-1,66
 367 172 367 172 378 159 c 0,67,51
 398 135.364 398 135.364 398 91 c 128,-1,52
EndSplineSet
Validated: 524289
EndChar

StartChar: icircumflex
Encoding: 238 238 105
Width: 301
Flags: HW
LayerCount: 2
Fore
SplineSet
54 541 m 1,0,1
 20 565 20 565 20 603 c 128,-1,2
 20 641 20 641 43 663 c 2,3,-1
 150 764 l 1,4,-1
 256 663 l 2,5,6
 280 640 280 640 280 614.5 c 0,7,8
 280 565.294 280 565.294 247 542 c 1,9,-1
 150 633 l 1,10,-1
 54 541 l 1,0,1
83 508 m 1,11,-1
 94 508 l 2,12,13
 146 508 146 508 181.5 480 c 128,-1,14
 217 452 217 452 217 391 c 2,15,-1
 217 0 l 1,16,-1
 211 0 l 2,17,18
 126.86 0 126.86 0 94.5 60.5 c 0,19,20
 83 82 83 82 83 114 c 2,21,-1
 83 508 l 1,11,-1
EndSplineSet
Validated: 524289
EndChar

StartChar: ocircumflex
Encoding: 244 244 106
Width: 452
Flags: HW
LayerCount: 2
Fore
SplineSet
136 541 m 1,0,1
 101 565.706 101 565.706 101 604.353 c 0,2,3
 101 643 101 643 125 663 c 2,4,-1
 232 754 l 1,5,-1
 338 663 l 1,6,7
 362 641 362 641 362 603.147 c 0,8,9
 362 565.294 362 565.294 329 542 c 1,10,-1
 232 633 l 1,11,-1
 136 541 l 1,0,1
255 105 m 1,12,13
 261 93 261 93 261 67.5 c 128,-1,14
 261 42 261 42 234 21 c 128,-1,15
 207 0 207 0 169 0 c 0,16,17
 109 0 109 0 77 32 c 128,-1,18
 45 64 45 64 45 112 c 2,19,-1
 45 390 l 2,20,21
 45 450.051 45 450.051 85.3571 479.026 c 0,22,23
 125.714 508 125.714 508 179 508 c 1,24,-1
 179 156 l 2,25,26
 179 112.765 179 112.765 199.5 99.5 c 0,27,28
 208 94 208 94 225.083 94 c 128,-1,29
 242.167 94 242.167 94 255 105 c 1,12,13
197 403 m 1,30,31
 191 415 191 415 191 440.5 c 128,-1,32
 191 466 191 466 218 487 c 128,-1,33
 245 508 245 508 283 508 c 0,34,35
 343 508 343 508 375 477.5 c 128,-1,36
 407 447 407 447 407 390 c 2,37,-1
 407 118 l 2,38,39
 407 55.3077 407 55.3077 362.5 24.5 c 0,40,41
 327.111 2.05611e-06 327.111 2.05611e-06 273 0 c 1,42,-1
 273 352 l 2,43,44
 273 395.235 273 395.235 252.5 408.5 c 0,45,46
 244 414 244 414 226.917 414 c 128,-1,47
 209.833 414 209.833 414 197 403 c 1,30,31
EndSplineSet
Validated: 524289
EndChar

StartChar: ucircumflex
Encoding: 251 251 107
Width: 452
Flags: HW
LayerCount: 2
Fore
SplineSet
118 541 m 1,0,1
 83 565.706 83 565.706 83 604.353 c 0,2,3
 83 643 83 643 107 663 c 2,4,-1
 214 754 l 1,5,-1
 320 663 l 1,6,7
 344 641 344 641 344 603.147 c 0,8,9
 344 565.294 344 565.294 311 542 c 1,10,-1
 214 633 l 1,11,-1
 118 541 l 1,0,1
51 507 m 2,12,13
 179 507 179 507 179 387 c 2,14,-1
 179 158 l 2,15,16
 179 114.765 179 114.765 199.5 101.5 c 0,17,18
 208 96 208 96 225.083 96 c 128,-1,19
 242.167 96 242.167 96 255 107 c 1,20,21
 261 95 261 95 261 69.5 c 128,-1,22
 261 44 261 44 235 22 c 128,-1,23
 209 0 209 0 159.5 0 c 128,-1,24
 110 0 110 0 77.5 32 c 128,-1,25
 45 64 45 64 45 130 c 2,26,-1
 45 507 l 1,27,-1
 51 507 l 2,12,13
407 2 m 1,28,-1
 396 2 l 2,29,30
 344 2 344 2 308.5 29.5 c 128,-1,31
 273 57 273 57 273 119 c 2,32,-1
 273 507 l 1,33,-1
 279 507 l 2,34,35
 363.614 507 363.614 507 395.5 446 c 0,36,37
 407 424 407 424 407 393 c 2,38,-1
 407 2 l 1,28,-1
EndSplineSet
Validated: 524289
EndChar

StartChar: udieresis
Encoding: 252 252 108
Width: 452
Flags: HW
LayerCount: 2
Fore
SplineSet
51 507 m 2,0,1
 179 507 179 507 179 387 c 2,2,-1
 179 158 l 2,3,4
 179 114.765 179 114.765 199.5 101.5 c 0,5,6
 208 96 208 96 225.083 96 c 128,-1,7
 242.167 96 242.167 96 255 107 c 1,8,9
 261 95 261 95 261 69.5 c 128,-1,10
 261 44 261 44 235 22 c 128,-1,11
 209 0 209 0 159.5 0 c 128,-1,12
 110 0 110 0 77.5 32 c 128,-1,13
 45 64 45 64 45 130 c 2,14,-1
 45 507 l 1,15,-1
 51 507 l 2,0,1
407 2 m 1,16,-1
 396 2 l 2,17,18
 344 2 344 2 308.5 29.5 c 128,-1,19
 273 57 273 57 273 119 c 2,20,-1
 273 507 l 1,21,-1
 279 507 l 2,22,23
 363.614 507 363.614 507 395.5 446 c 0,24,25
 407 424 407 424 407 393 c 2,26,-1
 407 2 l 1,16,-1
70 658 m 256,27,28
 70 687 70 687 90.5 707.5 c 128,-1,29
 111 728 111 728 140 728 c 256,30,31
 169 728 169 728 189.5 707.5 c 128,-1,32
 210 687 210 687 210 658 c 256,33,34
 210 629 210 629 189.5 609 c 128,-1,35
 169 589 169 589 140 589 c 256,36,37
 111 589 111 589 90.5 609 c 128,-1,38
 70 629 70 629 70 658 c 256,27,28
226 658 m 256,39,40
 226 687 226 687 247 707.5 c 128,-1,41
 268 728 268 728 297 728 c 256,42,43
 326 728 326 728 346 707.5 c 128,-1,44
 366 687 366 687 366 658 c 256,45,46
 366 629 366 629 346 609 c 128,-1,47
 326 589 326 589 297 589 c 256,48,49
 268 589 268 589 247 609 c 128,-1,50
 226 629 226 629 226 658 c 256,39,40
EndSplineSet
Validated: 524289
EndChar

StartChar: yacute
Encoding: 253 253 109
Width: 452
Flags: HW
LayerCount: 2
Fore
SplineSet
51 507 m 2,0,1
 179 507 179 507 179 387 c 2,2,-1
 179 158 l 2,3,4
 179 114.765 179 114.765 199.5 101.5 c 0,5,6
 208 96 208 96 225.083 96 c 128,-1,7
 242.167 96 242.167 96 255 107 c 1,8,9
 261 95 261 95 261 69.5 c 128,-1,10
 261 44 261 44 235 22 c 128,-1,11
 209 0 209 0 159.5 0 c 128,-1,12
 110 0 110 0 77.5 33.5 c 128,-1,13
 45 67 45 67 45 130 c 2,14,-1
 45 507 l 1,15,-1
 51 507 l 2,0,1
407 -17 m 2,16,17
 407 -79 407 -79 371.5 -106.5 c 128,-1,18
 336 -134 336 -134 284 -134 c 2,19,-1
 273 -134 l 1,20,-1
 273 507 l 1,21,-1
 279 507 l 2,22,23
 363.614 507 363.614 507 395.5 446 c 0,24,25
 407 424 407 424 407 393 c 2,26,-1
 407 -17 l 2,16,17
235 -126 m 2,27,28
 235 -167 235 -167 271.5 -167 c 0,29,30
 288 -167 288 -167 302 -155 c 1,31,32
 306 -165.667 306 -165.667 306 -180.833 c 0,33,34
 306 -214.087 306 -214.087 280.907 -243.543 c 128,-1,35
 255.815 -273 255.815 -273 207.741 -273 c 128,-1,36
 159.667 -273 159.667 -273 132.333 -243.48 c 128,-1,37
 105 -213.96 105 -213.96 105 -179.98 c 0,38,39
 105 -122.529 105 -122.529 146 -96 c 0,40,41
 173.818 -78 173.818 -78 215 -78 c 0,42,43
 227 -78 227 -78 235 -80 c 1,44,-1
 235 -126 l 2,27,28
137 566 m 1,45,46
 137 628 137 628 150 654 c 128,-1,47
 163 680 163 680 183.5 694 c 128,-1,48
 204 708 204 708 240 708 c 2,49,-1
 316 708 l 1,50,51
 316 645.5 316 645.5 303.5 619.25 c 0,52,53
 278.143 566 278.143 566 213 566 c 2,54,-1
 137 566 l 1,45,46
EndSplineSet
Validated: 524289
EndChar

StartChar: ydieresis
Encoding: 255 255 110
Width: 452
Flags: HW
LayerCount: 2
Fore
SplineSet
51 507 m 2,0,1
 179 507 179 507 179 387 c 2,2,-1
 179 158 l 2,3,4
 179 114.765 179 114.765 199.5 101.5 c 0,5,6
 208 96 208 96 225.083 96 c 128,-1,7
 242.167 96 242.167 96 255 107 c 1,8,9
 261 95 261 95 261 69.5 c 128,-1,10
 261 44 261 44 235 22 c 128,-1,11
 209 0 209 0 159.5 0 c 128,-1,12
 110 0 110 0 77.5 33.5 c 128,-1,13
 45 67 45 67 45 130 c 2,14,-1
 45 507 l 1,15,-1
 51 507 l 2,0,1
407 -17 m 2,16,17
 407 -79 407 -79 371.5 -106.5 c 128,-1,18
 336 -134 336 -134 284 -134 c 2,19,-1
 273 -134 l 1,20,-1
 273 507 l 1,21,-1
 279 507 l 2,22,23
 363.614 507 363.614 507 395.5 446 c 0,24,25
 407 424 407 424 407 393 c 2,26,-1
 407 -17 l 2,16,17
235 -126 m 2,27,28
 235 -167 235 -167 271.5 -167 c 0,29,30
 288 -167 288 -167 302 -155 c 1,31,32
 306 -165.667 306 -165.667 306 -180.833 c 0,33,34
 306 -214.087 306 -214.087 280.907 -243.543 c 128,-1,35
 255.815 -273 255.815 -273 207.741 -273 c 128,-1,36
 159.667 -273 159.667 -273 132.333 -243.48 c 128,-1,37
 105 -213.96 105 -213.96 105 -179.98 c 0,38,39
 105 -122.529 105 -122.529 146 -96 c 0,40,41
 173.818 -78 173.818 -78 215 -78 c 0,42,43
 227 -78 227 -78 235 -80 c 1,44,-1
 235 -126 l 2,27,28
68 658 m 256,45,46
 68 687 68 687 88.5 707.5 c 128,-1,47
 109 728 109 728 138 728 c 256,48,49
 167 728 167 728 187.5 707.5 c 128,-1,50
 208 687 208 687 208 658 c 256,51,52
 208 629 208 629 187.5 609 c 128,-1,53
 167 589 167 589 138 589 c 256,54,55
 109 589 109 589 88.5 609 c 128,-1,56
 68 629 68 629 68 658 c 256,45,46
224 658 m 256,57,58
 224 687 224 687 245 707.5 c 128,-1,59
 266 728 266 728 295 728 c 256,60,61
 324 728 324 728 344 707.5 c 128,-1,62
 364 687 364 687 364 658 c 256,63,64
 364 629 364 629 344 609 c 128,-1,65
 324 589 324 589 295 589 c 256,66,67
 266 589 266 589 245 609 c 128,-1,68
 224 629 224 629 224 658 c 256,57,58
EndSplineSet
Validated: 524289
EndChar

StartChar: multiply
Encoding: 215 215 111
Width: 465
Flags: HW
LayerCount: 2
Fore
SplineSet
25 426 m 1,0,1
 68 469 68 469 108 469 c 128,-1,2
 148 469 148 469 183 431 c 2,3,-1
 232 377 l 1,4,-1
 292 440 l 2,5,6
 325 474 325 474 350.5 474 c 128,-1,7
 376 474 376 474 396.5 461 c 128,-1,8
 417 448 417 448 440 425 c 1,9,-1
 311 297 l 1,10,-1
 438 171 l 1,11,12
 393 126 393 126 356.5 126 c 128,-1,13
 320 126 320 126 289 159 c 1,14,-1
 231 218 l 1,15,-1
 177 160 l 2,16,17
 143.944 125 143.944 125 107.472 125 c 0,18,19
 71 125 71 125 25 171 c 1,20,-1
 152 298 l 1,21,-1
 25 426 l 1,0,1
231 221 m 1,22,-1
 309 298 l 1,23,-1
 231 375 l 1,24,-1
 155 298 l 1,25,-1
 231 221 l 1,22,-1
EndSplineSet
Validated: 524289
EndChar

StartChar: divide
Encoding: 247 247 112
Width: 431
Flags: HW
LayerCount: 2
Fore
SplineSet
30 203 m 1,0,1
 30 260 30 260 53.5 288 c 128,-1,2
 77 316 77 316 132 316 c 2,3,-1
 395 316 l 1,4,5
 395 259 395 259 373 231 c 128,-1,6
 351 203 351 203 303 203 c 2,7,-1
 30 203 l 1,0,1
166 394 m 128,-1,9
 145 415 145 415 145 445 c 128,-1,10
 145 475 145 475 166 496 c 128,-1,11
 187 517 187 517 217 517 c 128,-1,12
 247 517 247 517 268 496 c 128,-1,13
 289 475 289 475 289 445 c 128,-1,14
 289 415 289 415 268 394 c 128,-1,15
 247 373 247 373 217 373 c 128,-1,8
 187 373 187 373 166 394 c 128,-1,9
166 21 m 128,-1,17
 145 42 145 42 145 72 c 128,-1,18
 145 102 145 102 166 123 c 128,-1,19
 187 144 187 144 217 144 c 128,-1,20
 247 144 247 144 268 123 c 128,-1,21
 289 102 289 102 289 72 c 128,-1,22
 289 42 289 42 268 21 c 128,-1,23
 247 0 247 0 217 0 c 128,-1,16
 187 0 187 0 166 21 c 128,-1,17
EndSplineSet
Validated: 1
EndChar

StartChar: atilde
Encoding: 227 227 113
Width: 452
Flags: HW
LayerCount: 2
Fore
SplineSet
197 403 m 1,0,1
 191 415 191 415 191 440.5 c 128,-1,2
 191 466 191 466 218 487 c 128,-1,3
 245 508 245 508 283 508 c 0,4,5
 343 508 343 508 375 477.5 c 128,-1,6
 407 447 407 447 407 390 c 2,7,-1
 407 0 l 1,8,9
 319.111 0 319.111 0 285.5 60.5 c 0,10,11
 273 83 273 83 273 118 c 2,12,-1
 273 352 l 2,13,14
 273 395.235 273 395.235 252.5 408.5 c 0,15,16
 244 414 244 414 226.917 414 c 128,-1,17
 209.833 414 209.833 414 197 403 c 1,0,1
255 105 m 1,18,19
 261 93 261 93 261 67.5 c 128,-1,20
 261 42 261 42 234 21 c 128,-1,21
 207 0 207 0 169 0 c 0,22,23
 109 0 109 0 77 32 c 128,-1,24
 45 64 45 64 45 112 c 2,25,-1
 45 390 l 2,26,27
 45 450.051 45 450.051 85.3571 479.026 c 128,-1,28
 125.714 508 125.714 508 179 508 c 1,29,-1
 179 156 l 2,30,31
 179 112.765 179 112.765 199.5 99.5 c 0,32,33
 208 94 208 94 225.083 94 c 128,-1,34
 242.167 94 242.167 94 255 105 c 1,18,19
297 700 m 256,35,36
 332.533 700 332.533 700 362 726 c 1,37,38
 386 690 386 690 386 658.5 c 128,-1,39
 386 627 386 627 364 603 c 128,-1,40
 342 579 342 579 300 579 c 2,41,-1
 291 579 l 2,42,43
 275 579 275 579 248 588 c 2,44,-1
 218.5 597.5 l 2,45,46
 181.444 609 181.444 609 160 609 c 0,47,48
 121.5 609 121.5 609 97 574 c 1,49,50
 78 602 78 602 78 627 c 0,51,52
 78 673.111 78 673.111 107.1 700.056 c 128,-1,53
 136.2 727 136.2 727 175 727 c 256,54,55
 205.636 727 205.636 727 240 713.5 c 128,-1,56
 274.364 700 274.364 700 297 700 c 256,35,36
EndSplineSet
Validated: 524289
EndChar

StartChar: ntilde
Encoding: 241 241 114
Width: 452
Flags: HW
LayerCount: 2
Fore
SplineSet
401 0 m 2,0,1
 273 0 273 0 273 120 c 2,2,-1
 273 352 l 2,3,4
 273 395.235 273 395.235 252.5 408.5 c 0,5,6
 244 414 244 414 226.917 414 c 128,-1,7
 209.833 414 209.833 414 197 403 c 1,8,9
 191 415 191 415 191 434 c 0,10,11
 191 466 191 466 220 487 c 128,-1,12
 249 508 249 508 298.5 508 c 128,-1,13
 348 508 348 508 377.5 475.5 c 128,-1,14
 407 443 407 443 407 380 c 2,15,-1
 407 0 l 1,16,-1
 401 0 l 2,0,1
45 508 m 1,17,-1
 56 508 l 2,18,19
 108 508 108 508 143.5 480 c 128,-1,20
 179 452 179 452 179 391 c 2,21,-1
 179 0 l 1,22,-1
 173 0 l 2,23,24
 88.8605 0 88.8605 0 56.5 60.5 c 0,25,26
 45 82 45 82 45 114 c 2,27,-1
 45 508 l 1,17,-1
299 700 m 256,28,29
 334.533 700 334.533 700 364 726 c 1,30,31
 388 690 388 690 388 658.5 c 128,-1,32
 388 627 388 627 366 603 c 128,-1,33
 344 579 344 579 302 579 c 2,34,-1
 293 579 l 2,35,36
 277 579 277 579 250 588 c 2,37,-1
 220.5 597.5 l 2,38,39
 183.444 609 183.444 609 162 609 c 0,40,41
 123.5 609 123.5 609 99 574 c 1,42,43
 80 602 80 602 80 627 c 0,44,45
 80 673.111 80 673.111 109.1 700.056 c 128,-1,46
 138.2 727 138.2 727 177 727 c 256,47,48
 207.636 727 207.636 727 242 713.5 c 128,-1,49
 276.364 700 276.364 700 299 700 c 256,28,29
EndSplineSet
Validated: 524289
EndChar

StartChar: otilde
Encoding: 245 245 115
Width: 452
Flags: HW
LayerCount: 2
Fore
SplineSet
197 403 m 1,0,1
 191 415 191 415 191 440.5 c 128,-1,2
 191 466 191 466 218 487 c 128,-1,3
 245 508 245 508 283 508 c 0,4,5
 343 508 343 508 375 477.5 c 128,-1,6
 407 447 407 447 407 390 c 2,7,-1
 407 118 l 2,8,9
 407 55.3077 407 55.3077 362.5 24.5 c 0,10,11
 327.111 2.05611e-06 327.111 2.05611e-06 273 0 c 1,12,-1
 273 352 l 2,13,14
 273 395.235 273 395.235 252.5 408.5 c 0,15,16
 244 414 244 414 226.917 414 c 128,-1,17
 209.833 414 209.833 414 197 403 c 1,0,1
255 105 m 1,18,19
 261 93 261 93 261 67.5 c 128,-1,20
 261 42 261 42 234 21 c 128,-1,21
 207 0 207 0 169 0 c 0,22,23
 109 0 109 0 77 32 c 128,-1,24
 45 64 45 64 45 112 c 2,25,-1
 45 390 l 2,26,27
 45 450.051 45 450.051 85.3571 479.026 c 128,-1,28
 125.714 508 125.714 508 179 508 c 1,29,-1
 179 156 l 2,30,31
 179 112.765 179 112.765 199.5 99.5 c 0,32,33
 208 94 208 94 225.083 94 c 128,-1,34
 242.167 94 242.167 94 255 105 c 1,18,19
306 700 m 256,35,36
 341.533 700 341.533 700 371 726 c 1,37,38
 395 690 395 690 395 658.5 c 128,-1,39
 395 627 395 627 373 603 c 128,-1,40
 351 579 351 579 309 579 c 2,41,-1
 300 579 l 2,42,43
 284 579 284 579 257 588 c 2,44,-1
 227.5 597.5 l 2,45,46
 190.444 609 190.444 609 169 609 c 0,47,48
 130.5 609 130.5 609 106 574 c 1,49,50
 87 602 87 602 87 627 c 0,51,52
 87 673.111 87 673.111 116.1 700.056 c 128,-1,53
 145.2 727 145.2 727 184 727 c 256,54,55
 214.636 727 214.636 727 249 713.5 c 128,-1,56
 283.364 700 283.364 700 306 700 c 256,35,36
EndSplineSet
Validated: 524289
EndChar

StartChar: cedilla
Encoding: 184 184 116
Width: 318
Flags: HW
LayerCount: 2
Fore
SplineSet
133 -12 m 1,0,1
 152.2 -20 152.2 -20 194.6 -20 c 128,-1,2
 237 -20 237 -20 258 -17 c 1,3,-1
 258 -82 l 2,4,5
 258 -167.756 258 -167.756 203.5 -197 c 0,6,7
 183 -208 183 -208 143.5 -208 c 128,-1,8
 104 -208 104 -208 82 -183.5 c 128,-1,9
 60 -159 60 -159 60 -127 c 0,10,11
 60 -113 60 -113 66 -89 c 1,12,13
 69 -98 69 -98 78.5 -102.5 c 128,-1,14
 88 -107 88 -107 96 -107 c 0,15,16
 133 -107 133 -107 133 -62 c 2,17,-1
 133 -12 l 1,0,1
EndSplineSet
Validated: 524289
EndChar

StartChar: agrave
Encoding: 224 224 117
Width: 452
Flags: HW
LayerCount: 2
Fore
SplineSet
197 403 m 1,0,1
 191 415 191 415 191 440.5 c 128,-1,2
 191 466 191 466 218 487 c 128,-1,3
 245 508 245 508 283 508 c 0,4,5
 343 508 343 508 375 477.5 c 128,-1,6
 407 447 407 447 407 390 c 2,7,-1
 407 0 l 1,8,9
 319.111 0 319.111 0 285.5 60.5 c 0,10,11
 273 83 273 83 273 118 c 2,12,-1
 273 352 l 2,13,14
 273 395.235 273 395.235 252.5 408.5 c 0,15,16
 244 414 244 414 226.917 414 c 128,-1,17
 209.833 414 209.833 414 197 403 c 1,0,1
255 105 m 1,18,19
 261 93 261 93 261 67.5 c 128,-1,20
 261 42 261 42 234 21 c 128,-1,21
 207 0 207 0 169 0 c 0,22,23
 109 0 109 0 77 32 c 128,-1,24
 45 64 45 64 45 112 c 2,25,-1
 45 390 l 2,26,27
 45 450.051 45 450.051 85.3571 479.026 c 0,28,29
 125.714 508 125.714 508 179 508 c 1,30,-1
 179 156 l 2,31,32
 179 112.765 179 112.765 199.5 99.5 c 0,33,34
 208 94 208 94 225.083 94 c 128,-1,35
 242.167 94 242.167 94 255 105 c 1,18,19
239 566 m 2,36,37
 173.857 566 173.857 566 151 614 c 0,38,39
 136 645.5 136 645.5 136 708 c 1,40,-1
 212 708 l 2,41,42
 275 708 275 708 299.5 659 c 0,43,44
 315 628 315 628 315 566 c 1,45,-1
 239 566 l 2,36,37
EndSplineSet
Validated: 524289
EndChar

StartChar: aacute
Encoding: 225 225 118
Width: 452
Flags: HW
LayerCount: 2
Fore
SplineSet
197 403 m 1,0,1
 191 415 191 415 191 440.5 c 128,-1,2
 191 466 191 466 218 487 c 128,-1,3
 245 508 245 508 283 508 c 0,4,5
 343 508 343 508 375 477.5 c 128,-1,6
 407 447 407 447 407 390 c 2,7,-1
 407 0 l 1,8,9
 319.111 0 319.111 0 285.5 60.5 c 0,10,11
 273 83 273 83 273 118 c 2,12,-1
 273 352 l 2,13,14
 273 395.235 273 395.235 252.5 408.5 c 0,15,16
 244 414 244 414 226.917 414 c 128,-1,17
 209.833 414 209.833 414 197 403 c 1,0,1
255 105 m 1,18,19
 261 93 261 93 261 67.5 c 128,-1,20
 261 42 261 42 234 21 c 128,-1,21
 207 0 207 0 169 0 c 0,22,23
 109 0 109 0 77 32 c 128,-1,24
 45 64 45 64 45 112 c 2,25,-1
 45 390 l 2,26,27
 45 450.051 45 450.051 85.3571 479.026 c 0,28,29
 125.714 508 125.714 508 179 508 c 1,30,-1
 179 156 l 2,31,32
 179 112.765 179 112.765 199.5 99.5 c 0,33,34
 208 94 208 94 225.083 94 c 128,-1,35
 242.167 94 242.167 94 255 105 c 1,18,19
136 566 m 1,36,37
 136 628 136 628 149 654 c 128,-1,38
 162 680 162 680 182.5 694 c 128,-1,39
 203 708 203 708 239 708 c 2,40,-1
 315 708 l 1,41,42
 315 645.5 315 645.5 302.5 619.25 c 0,43,44
 277.143 566 277.143 566 212 566 c 2,45,-1
 136 566 l 1,36,37
EndSplineSet
Validated: 524289
EndChar

StartChar: egrave
Encoding: 232 232 119
Width: 442
Flags: HW
LayerCount: 2
Fore
SplineSet
216 412 m 0,0,1
 179 412 179 412 179 365 c 2,2,-1
 179 0 l 1,3,-1
 169 0 l 2,4,5
 86 0 86 0 56 60 c 0,6,7
 45 82 45 82 45 114 c 2,8,-1
 45 383 l 2,9,10
 45 438 45 438 71.5 473 c 128,-1,11
 98 508 98 508 158 508 c 0,12,13
 198 508 198 508 224 487.5 c 128,-1,14
 250 467 250 467 250 422 c 0,15,16
 250 407 250 407 246 400 c 1,17,18
 232 412 232 412 216 412 c 0,0,1
268 507 m 1,19,20
 273 508 273 508 278 508 c 2,21,-1
 288 508 l 2,22,23
 342 508 342 508 372 480.5 c 128,-1,24
 402 453 402 453 402 402 c 2,25,-1
 402 347 l 2,26,27
 402 279 402 279 368 246 c 128,-1,28
 334 213 334 213 285 213 c 2,29,-1
 278 213 l 1,30,31
 240 215 240 215 216.5 238.5 c 128,-1,32
 193 262 193 262 193 295 c 0,33,34
 193 305.333 193 305.333 197 316 c 1,35,36
 205 308 205 308 211 304 c 128,-1,37
 217 300 217 300 235.5 300 c 0,38,39
 268 300 268 300 268 355 c 2,40,-1
 268 507 l 1,19,20
398 91 m 128,-1,42
 398 46.5667 398 46.5667 367.63 23.2833 c 128,-1,43
 337.261 -1.94121e-06 337.261 -1.94121e-06 291.13 -9.70605e-07 c 128,-1,44
 245 0 245 0 224 25 c 128,-1,45
 203 50 203 50 203 74 c 128,-1,46
 203 98 203 98 208 108 c 1,47,48
 220 96.9231 220 96.9231 238.391 96.9231 c 0,49,50
 261.692 96.9231 261.692 96.9231 265.846 111.462 c 128,-1,51
 270 126 270 126 270 147 c 2,52,-1
 270 184 l 1,53,54
 285 188 285 188 308.5 188 c 128,-1,55
 332 188 332 188 349.5 180 c 128,-1,56
 367 172 367 172 378 159 c 0,57,41
 398 135.364 398 135.364 398 91 c 128,-1,42
232 566 m 2,58,59
 166.857 566 166.857 566 144 614 c 0,60,61
 129 645.5 129 645.5 129 708 c 1,62,-1
 205 708 l 2,63,64
 268 708 268 708 292.5 659 c 0,65,66
 308 628 308 628 308 566 c 1,67,-1
 232 566 l 2,58,59
EndSplineSet
Validated: 524289
EndChar

StartChar: eacute
Encoding: 233 233 120
Width: 442
Flags: HW
LayerCount: 2
Fore
SplineSet
216 412 m 0,0,1
 179 412 179 412 179 365 c 2,2,-1
 179 0 l 1,3,-1
 169 0 l 2,4,5
 86 0 86 0 56 60 c 0,6,7
 45 82 45 82 45 114 c 2,8,-1
 45 383 l 2,9,10
 45 438 45 438 71.5 473 c 128,-1,11
 98 508 98 508 158 508 c 0,12,13
 198 508 198 508 224 487.5 c 128,-1,14
 250 467 250 467 250 422 c 0,15,16
 250 407 250 407 246 400 c 1,17,18
 232 412 232 412 216 412 c 0,0,1
268 507 m 1,19,20
 273 508 273 508 278 508 c 2,21,-1
 288 508 l 2,22,23
 342 508 342 508 372 480.5 c 128,-1,24
 402 453 402 453 402 402 c 2,25,-1
 402 347 l 2,26,27
 402 279 402 279 368 246 c 128,-1,28
 334 213 334 213 285 213 c 2,29,-1
 278 213 l 1,30,31
 240 215 240 215 216.5 238.5 c 128,-1,32
 193 262 193 262 193 295 c 0,33,34
 193 305.333 193 305.333 197 316 c 1,35,36
 205 308 205 308 211 304 c 128,-1,37
 217 300 217 300 235.5 300 c 0,38,39
 268 300 268 300 268 355 c 2,40,-1
 268 507 l 1,19,20
398 91 m 128,-1,42
 398 46.5667 398 46.5667 367.63 23.2833 c 128,-1,43
 337.261 -1.94121e-06 337.261 -1.94121e-06 291.13 -9.70605e-07 c 128,-1,44
 245 0 245 0 224 25 c 128,-1,45
 203 50 203 50 203 74 c 128,-1,46
 203 98 203 98 208 108 c 1,47,48
 220 96.9231 220 96.9231 238.391 96.9231 c 0,49,50
 261.692 96.9231 261.692 96.9231 265.846 111.462 c 128,-1,51
 270 126 270 126 270 147 c 2,52,-1
 270 184 l 1,53,54
 285 188 285 188 308.5 188 c 128,-1,55
 332 188 332 188 349.5 180 c 128,-1,56
 367 172 367 172 378 159 c 0,57,41
 398 135.364 398 135.364 398 91 c 128,-1,42
139 566 m 1,58,59
 139 628 139 628 152 654 c 128,-1,60
 165 680 165 680 185.5 694 c 128,-1,61
 206 708 206 708 242 708 c 2,62,-1
 318 708 l 1,63,64
 318 645.5 318 645.5 305.5 619.25 c 0,65,66
 280.143 566 280.143 566 215 566 c 2,67,-1
 139 566 l 1,58,59
EndSplineSet
Validated: 524289
EndChar

StartChar: igrave
Encoding: 236 236 121
Width: 244
Flags: HW
LayerCount: 2
Fore
SplineSet
65 508 m 1,0,-1
 76 508 l 2,1,2
 128 508 128 508 163.5 480 c 128,-1,3
 199 452 199 452 199 391 c 2,4,-1
 199 0 l 1,5,-1
 193 0 l 2,6,7
 108.86 0 108.86 0 76.5 60.5 c 0,8,9
 65 82 65 82 65 114 c 2,10,-1
 65 508 l 1,0,-1
134 566 m 2,11,12
 48.0625 566 48.0625 566 42.5 655 c 0,13,14
 41 679 41 679 41 701 c 2,15,-1
 41 708 l 1,16,-1
 87 708 l 2,17,18
 152.333 708 152.333 708 174.5 659 c 0,19,20
 187 631.368 187 631.368 187 566 c 1,21,-1
 134 566 l 2,11,12
EndSplineSet
Validated: 524289
EndChar

StartChar: iacute
Encoding: 237 237 122
Width: 235
Flags: HW
LayerCount: 2
Fore
SplineSet
40 508 m 1,0,-1
 51 508 l 2,1,2
 103 508 103 508 138.5 480 c 128,-1,3
 174 452 174 452 174 391 c 2,4,-1
 174 0 l 1,5,-1
 168 0 l 2,6,7
 83.8605 0 83.8605 0 51.5 60.5 c 0,8,9
 40 82 40 82 40 114 c 2,10,-1
 40 508 l 1,0,-1
43 566 m 1,11,12
 43 631.368 43 631.368 54 655.684 c 128,-1,13
 65 680 65 680 85 694 c 128,-1,14
 105 708 105 708 143 708 c 2,15,-1
 189 708 l 1,16,-1
 189 701 l 2,17,18
 189 637.882 189 637.882 179 614.941 c 0,19,20
 157.667 566 157.667 566 96 566 c 2,21,-1
 43 566 l 1,11,12
EndSplineSet
Validated: 524289
EndChar

StartChar: ugrave
Encoding: 249 249 123
Width: 452
Flags: HW
LayerCount: 2
Fore
SplineSet
51 507 m 2,0,1
 179 507 179 507 179 387 c 2,2,-1
 179 158 l 2,3,4
 179 114.765 179 114.765 199.5 101.5 c 0,5,6
 208 96 208 96 225.083 96 c 128,-1,7
 242.167 96 242.167 96 255 107 c 1,8,9
 261 95 261 95 261 69.5 c 128,-1,10
 261 44 261 44 235 22 c 128,-1,11
 209 0 209 0 159.5 0 c 128,-1,12
 110 0 110 0 77.5 32 c 128,-1,13
 45 64 45 64 45 130 c 2,14,-1
 45 507 l 1,15,-1
 51 507 l 2,0,1
407 2 m 1,16,-1
 396 2 l 2,17,18
 344 2 344 2 308.5 29.5 c 128,-1,19
 273 57 273 57 273 119 c 2,20,-1
 273 507 l 1,21,-1
 279 507 l 2,22,23
 363.614 507 363.614 507 395.5 446 c 0,24,25
 407 424 407 424 407 393 c 2,26,-1
 407 2 l 1,16,-1
212 566 m 2,27,28
 146.857 566 146.857 566 124 614 c 0,29,30
 109 645.5 109 645.5 109 708 c 1,31,-1
 185 708 l 2,32,33
 248 708 248 708 272.5 659 c 0,34,35
 288 628 288 628 288 566 c 1,36,-1
 212 566 l 2,27,28
EndSplineSet
Validated: 524289
EndChar

StartChar: uacute
Encoding: 250 250 124
Width: 452
Flags: HW
LayerCount: 2
Fore
SplineSet
51 507 m 2,0,1
 179 507 179 507 179 387 c 2,2,-1
 179 158 l 2,3,4
 179 114.765 179 114.765 199.5 101.5 c 0,5,6
 208 96 208 96 225.083 96 c 128,-1,7
 242.167 96 242.167 96 255 107 c 1,8,9
 261 95 261 95 261 69.5 c 128,-1,10
 261 44 261 44 235 22 c 128,-1,11
 209 0 209 0 159.5 0 c 128,-1,12
 110 0 110 0 77.5 32 c 128,-1,13
 45 64 45 64 45 130 c 2,14,-1
 45 507 l 1,15,-1
 51 507 l 2,0,1
407 2 m 1,16,-1
 396 2 l 2,17,18
 344 2 344 2 308.5 29.5 c 128,-1,19
 273 57 273 57 273 119 c 2,20,-1
 273 507 l 1,21,-1
 279 507 l 2,22,23
 363.614 507 363.614 507 395.5 446 c 0,24,25
 407 424 407 424 407 393 c 2,26,-1
 407 2 l 1,16,-1
139 566 m 1,27,28
 139 628 139 628 152 654 c 128,-1,29
 165 680 165 680 185.5 694 c 128,-1,30
 206 708 206 708 242 708 c 2,31,-1
 318 708 l 1,32,33
 318 645.5 318 645.5 305.5 619.25 c 0,34,35
 280.143 566 280.143 566 215 566 c 2,36,-1
 139 566 l 1,27,28
EndSplineSet
Validated: 524289
EndChar

StartChar: ae
Encoding: 230 230 125
Width: 665
Flags: HW
LayerCount: 2
Fore
SplineSet
474 400 m 1,0,1
 460 412 460 412 440 412 c 0,2,3
 407 412 407 412 407 365 c 2,4,-1
 407 0 l 1,5,-1
 398 0 l 2,6,7
 314 0 314 0 284 60 c 0,8,9
 273 82 273 82 273 114 c 2,10,-1
 273 352 l 2,11,12
 273 395.235 273 395.235 252.5 408.5 c 0,13,14
 244 414 244 414 226.917 414 c 128,-1,15
 209.833 414 209.833 414 197 403 c 1,16,17
 192.455 412.091 192.455 412.091 192.455 427.318 c 128,-1,18
 192.455 442.545 192.455 442.545 192.5 445.5 c 0,19,20
 193 478 193 478 232 501.5 c 128,-1,21
 271 525 271 525 334 525 c 0,22,23
 428.154 525 428.154 525 464.5 472.5 c 0,24,25
 478 453 478 453 478 431.5 c 128,-1,26
 478 410 478 410 474 400 c 1,0,1
255 105 m 1,27,28
 261 93 261 93 261 67.5 c 128,-1,29
 261 42 261 42 234 21 c 128,-1,30
 207 0 207 0 169 0 c 0,31,32
 109 0 109 0 77 32.5 c 128,-1,33
 45 65 45 65 45 128 c 2,34,-1
 45 390 l 2,35,36
 45 450.051 45 450.051 85.3571 479.026 c 128,-1,37
 125.714 508 125.714 508 179 508 c 1,38,-1
 179 156 l 2,39,40
 179 112.765 179 112.765 199.5 99.5 c 0,41,42
 208 94 208 94 225.083 94 c 128,-1,43
 242.167 94 242.167 94 255 105 c 1,27,28
496 507 m 1,44,45
 501 508 501 508 506 508 c 2,46,-1
 516 508 l 2,47,48
 570 508 570 508 600 480.5 c 128,-1,49
 630 453 630 453 630 402 c 2,50,-1
 630 327 l 2,51,52
 630 270 630 270 597.5 241.5 c 128,-1,53
 565 213 565 213 518 213 c 128,-1,54
 471 213 471 213 446 235.5 c 128,-1,55
 421 258 421 258 421 291 c 0,56,57
 421 305.333 421 305.333 425 316 c 1,58,59
 433 308 433 308 439 304 c 128,-1,60
 445 300 445 300 463.5 300 c 0,61,62
 496 300 496 300 496 355 c 2,63,-1
 496 507 l 1,44,45
496 181 m 1,64,65
 506 183 506 183 521 183 c 0,66,67
 560 183 560 183 590.5 162.667 c 128,-1,68
 621 142.333 621 142.333 621 96 c 0,69,70
 621 34 621 34 571 9 c 0,71,72
 553 0 553 0 527.5 0 c 0,73,74
 480.25 0 480.25 0 452.625 25.5 c 128,-1,75
 425 51 425 51 425 85 c 0,76,77
 425 97.3333 425 97.3333 429 108 c 1,78,79
 442 96 442 96 459 96 c 0,80,81
 496 96 496 96 496 134 c 2,82,-1
 496 181 l 1,64,65
EndSplineSet
Validated: 524289
EndChar

StartChar: germandbls
Encoding: 223 223 126
Width: 457
Flags: HW
LayerCount: 2
Fore
SplineSet
178 0 m 2,0,1
 50 0 50 0 50 121 c 2,2,-1
 50 597 l 2,3,4
 50 657 50 657 81 691.5 c 128,-1,5
 112 726 112 726 172 726 c 0,6,7
 207.5 726 207.5 726 229.25 712.5 c 0,8,9
 269 687.828 269 687.828 269 652 c 0,10,11
 269 632 269 632 263 616 c 1,12,13
 259 622 259 622 251.5 630 c 128,-1,14
 244 638 244 638 225 638 c 0,15,16
 194 638 194 638 194 595 c 2,17,-1
 194 0 l 1,18,-1
 178 0 l 2,0,1
265 346 m 1,19,20
 335.926 346 335.926 346 372.463 319.338 c 128,-1,21
 409 292.676 409 292.676 409 225 c 2,22,-1
 409 125 l 2,23,24
 409 65 409 65 380 30.5 c 128,-1,25
 351 -4 351 -4 298.3 -4 c 128,-1,26
 245.6 -4 245.6 -4 226.8 16.8889 c 128,-1,27
 208 37.7778 208 37.7778 208 64.3889 c 128,-1,28
 208 91 208 91 221 104 c 1,29,30
 228 86 228 86 243.5 86 c 128,-1,31
 259 86 259 86 262 98.5 c 128,-1,32
 265 111 265 111 265 127 c 2,33,-1
 265 346 l 1,19,20
265 615 m 1,34,35
 277 618 277 618 296 618 c 0,36,37
 341.444 618 341.444 618 378.294 589.573 c 128,-1,38
 415.143 561.147 415.143 561.147 417 498 c 1,39,-1
 417 477 l 2,40,41
 417 411.667 417 411.667 371.5 379 c 0,42,43
 335.286 353 335.286 353 285 353 c 2,44,-1
 275 353 l 2,45,46
 270 353 270 353 265 354 c 1,47,-1
 265 615 l 1,34,35
EndSplineSet
Validated: 524289
EndChar

StartChar: paragraph
Encoding: 182 182 127
Width: 561
Flags: HW
LayerCount: 2
Fore
SplineSet
359 0 m 1,0,-1
 349 0 l 2,1,2
 256 0 256 0 226.5 59 c 0,3,4
 215 82 215 82 215 119 c 2,5,-1
 215 726 l 1,6,-1
 229 726 l 2,7,8
 315.174 726 315.174 726 347 665 c 0,9,10
 359 642 359 642 359 606 c 2,11,-1
 359 0 l 1,0,-1
184 357 m 1,12,-1
 178 357 l 2,13,14
 124.487 357 124.487 357 82.2436 398.188 c 0,15,16
 40 439.375 40 439.375 40 521 c 2,17,-1
 40 567 l 2,18,19
 40 647.214 40 647.214 84.1487 686.107 c 0,20,21
 128.297 725 128.297 725 184 725 c 1,22,-1
 184 357 l 1,12,-1
501 0 m 1,23,-1
 496 0 l 2,24,25
 451 0 451 0 419 30.5 c 128,-1,26
 387 61 387 61 387 129 c 2,27,-1
 387 726 l 1,28,-1
 392 726 l 2,29,30
 437 726 437 726 469 695.5 c 128,-1,31
 501 665 501 665 501 597 c 2,32,-1
 501 0 l 1,23,-1
EndSplineSet
Validated: 524289
EndChar

StartChar: ograve
Encoding: 242 242 128
Width: 452
Flags: HW
LayerCount: 2
Fore
SplineSet
255 105 m 1,0,1
 261 93 261 93 261 67.5 c 128,-1,2
 261 42 261 42 234 21 c 128,-1,3
 207 0 207 0 169 0 c 0,4,5
 109 0 109 0 77 32 c 128,-1,6
 45 64 45 64 45 112 c 2,7,-1
 45 390 l 2,8,9
 45 450.051 45 450.051 85.3571 479.026 c 0,10,11
 125.714 508 125.714 508 179 508 c 1,12,-1
 179 156 l 2,13,14
 179 112.765 179 112.765 199.5 99.5 c 0,15,16
 208 94 208 94 225.083 94 c 128,-1,17
 242.167 94 242.167 94 255 105 c 1,0,1
197 403 m 1,18,19
 191 415 191 415 191 440.5 c 128,-1,20
 191 466 191 466 218 487 c 128,-1,21
 245 508 245 508 283 508 c 0,22,23
 343 508 343 508 375 477.5 c 128,-1,24
 407 447 407 447 407 390 c 2,25,-1
 407 118 l 2,26,27
 407 55.3077 407 55.3077 362.5 24.5 c 0,28,29
 327.111 2.05611e-06 327.111 2.05611e-06 273 0 c 1,30,-1
 273 352 l 2,31,32
 273 395.235 273 395.235 252.5 408.5 c 0,33,34
 244 414 244 414 226.917 414 c 128,-1,35
 209.833 414 209.833 414 197 403 c 1,18,19
245 566 m 2,36,37
 179.857 566 179.857 566 157 614 c 0,38,39
 142 645.5 142 645.5 142 708 c 1,40,-1
 218 708 l 2,41,42
 281 708 281 708 305.5 659 c 0,43,44
 321 628 321 628 321 566 c 1,45,-1
 245 566 l 2,36,37
EndSplineSet
Validated: 524289
EndChar

StartChar: oacute
Encoding: 243 243 129
Width: 452
Flags: HW
LayerCount: 2
Fore
SplineSet
255 105 m 1,0,1
 261 93 261 93 261 67.5 c 128,-1,2
 261 42 261 42 234 21 c 128,-1,3
 207 0 207 0 169 0 c 0,4,5
 109 0 109 0 77 32 c 128,-1,6
 45 64 45 64 45 112 c 2,7,-1
 45 390 l 2,8,9
 45 450.051 45 450.051 85.3571 479.026 c 0,10,11
 125.714 508 125.714 508 179 508 c 1,12,-1
 179 156 l 2,13,14
 179 112.765 179 112.765 199.5 99.5 c 0,15,16
 208 94 208 94 225.083 94 c 128,-1,17
 242.167 94 242.167 94 255 105 c 1,0,1
197 403 m 1,18,19
 191 415 191 415 191 440.5 c 128,-1,20
 191 466 191 466 218 487 c 128,-1,21
 245 508 245 508 283 508 c 0,22,23
 343 508 343 508 375 477.5 c 128,-1,24
 407 447 407 447 407 390 c 2,25,-1
 407 118 l 2,26,27
 407 55.3077 407 55.3077 362.5 24.5 c 0,28,29
 327.111 2.05611e-06 327.111 2.05611e-06 273 0 c 1,30,-1
 273 352 l 2,31,32
 273 395.235 273 395.235 252.5 408.5 c 0,33,34
 244 414 244 414 226.917 414 c 128,-1,35
 209.833 414 209.833 414 197 403 c 1,18,19
156 566 m 1,36,37
 156 628 156 628 169 654 c 128,-1,38
 182 680 182 680 202.5 694 c 128,-1,39
 223 708 223 708 259 708 c 2,40,-1
 335 708 l 1,41,42
 335 645.5 335 645.5 322.5 619.25 c 0,43,44
 297.143 566 297.143 566 232 566 c 2,45,-1
 156 566 l 1,36,37
EndSplineSet
Validated: 524289
EndChar

StartChar: backslash
Encoding: 92 92 130
Width: 426
Flags: HW
LayerCount: 2
Fore
SplineSet
194 366 m 1,0,-1
 182 366 l 2,1,2
 92.8936 366 92.8936 366 62 426.5 c 0,3,4
 50 450 50 450 50 486 c 2,5,-1
 50 642 l 2,6,7
 50 708.385 50 708.385 93.5 738.5 c 0,8,9
 127.444 762 127.444 762 182 762 c 2,10,-1
 194 762 l 1,11,-1
 194 366 l 1,0,-1
232 396 m 1,12,-1
 244 396 l 2,13,14
 333.106 396 333.106 396 364 335.5 c 0,15,16
 376 312 376 312 376 276 c 2,17,-1
 376 120 l 2,18,19
 376 53.6154 376 53.6154 332.5 23.5 c 0,20,21
 298.556 -9.65493e-06 298.556 -9.65493e-06 244 0 c 2,22,-1
 232 0 l 1,23,-1
 232 396 l 1,12,-1
EndSplineSet
Validated: 524321
EndChar

StartChar: slash
Encoding: 47 47 131
Width: 446
Flags: HW
LayerCount: 2
Fore
SplineSet
242 762 m 1,0,-1
 254 762 l 2,1,2
 343.106 762 343.106 762 374 701.5 c 0,3,4
 386 678 386 678 386 642 c 2,5,-1
 386 486 l 2,6,7
 386 419.615 386 419.615 342.5 389.5 c 0,8,9
 308.556 366 308.556 366 254 366 c 2,10,-1
 242 366 l 1,11,-1
 242 762 l 1,0,-1
204 0 m 1,12,-1
 192 0 l 2,13,14
 102.894 0 102.894 0 72 60.5 c 0,15,16
 60 84 60 84 60 120 c 2,17,-1
 60 276 l 2,18,19
 60 342.385 60 342.385 103.5 372.5 c 0,20,21
 137.444 396 137.444 396 192 396 c 2,22,-1
 204 396 l 1,23,-1
 204 0 l 1,12,-1
EndSplineSet
Validated: 524289
EndChar

StartChar: braceright
Encoding: 125 125 132
Width: 383
Flags: HW
LayerCount: 2
Fore
SplineSet
363 246 m 256,0,1
 363 131 363 131 228 131 c 2,2,-1
 219 131 l 1,3,-1
 219 361 l 1,4,-1
 223 361 l 2,5,6
 315 361 315 361 349.5 303.5 c 0,7,8
 363 281 363 281 363 246 c 256,0,1
199 316 m 1,9,-1
 189 316 l 2,10,11
 96 316 96 316 66.5 375 c 0,12,13
 55 398 55 398 55 435 c 2,14,-1
 55 726 l 1,15,16
 149.596 726 149.596 726 185.5 663.5 c 0,17,18
 199 640 199 640 199 606 c 2,19,-1
 199 316 l 1,9,-1
199 -129 m 2,20,21
 199 -250 199 -250 65 -250 c 2,22,-1
 55 -250 l 1,23,-1
 55 42 l 2,24,25
 55 105.878 55 105.878 97.6111 133.939 c 0,26,27
 140.222 162 140.222 162 199 162 c 1,28,-1
 199 -129 l 2,20,21
EndSplineSet
Validated: 524289
EndChar

StartChar: braceleft
Encoding: 123 123 133
Width: 383
Flags: HW
LayerCount: 2
Fore
SplineSet
155 131 m 2,0,1
 20 131 20 131 20 246 c 256,2,3
 20 309.537 20 309.537 67.5 338.5 c 0,4,5
 104.4 361 104.4 361 160 361 c 2,6,-1
 164 361 l 1,7,-1
 164 131 l 1,8,-1
 155 131 l 2,0,1
184 606 m 2,9,10
 184 699.231 184 699.231 274 720 c 0,11,12
 300 726 300 726 328 726 c 1,13,-1
 328 435 l 2,14,15
 328 338.245 328 338.245 243.5 321 c 0,16,17
 219 316 219 316 194 316 c 2,18,-1
 184 316 l 1,19,-1
 184 606 l 2,9,10
318 -250 m 2,20,21
 184 -250 184 -250 184 -129 c 2,22,-1
 184 162 l 1,23,24
 278.596 162 278.596 162 314.5 99.5 c 0,25,26
 328 76 328 76 328 42 c 2,27,-1
 328 -250 l 1,28,-1
 318 -250 l 2,20,21
EndSplineSet
Validated: 524289
EndChar

StartChar: periodcentered
Encoding: 183 183 134
Width: 312
Flags: HW
LayerCount: 2
Fore
SplineSet
116 235 m 1,0,-1
 97 236 l 1,1,-1
 96 292 l 2,2,3
 95 349 95 349 119.5 373 c 128,-1,4
 144 397 144 397 198 397 c 2,5,-1
 207 397 l 2,6,7
 212 397 212 397 217 395 c 1,8,-1
 217 319 l 2,9,10
 217 279 217 279 192 257 c 128,-1,11
 167 235 167 235 116 235 c 1,0,-1
EndSplineSet
Validated: 33
EndChar

StartChar: ordmasculine
Encoding: 186 186 135
Width: 339
Flags: HW
LayerCount: 2
Fore
SplineSet
195 670 m 2,0,1
 195 702 195 702 175.5 702 c 0,2,3
 163 702 163 702 156 697 c 1,4,5
 153 703 153 703 153 717.5 c 128,-1,6
 153 732 153 732 167 748 c 128,-1,7
 181 764 181 764 214 764 c 128,-1,8
 247 764 247 764 265.5 744.5 c 128,-1,9
 284 725 284 725 284 690 c 2,10,-1
 284 575 l 2,11,12
 284 543 284 543 264 524.5 c 128,-1,13
 244 506 244 506 212 506 c 2,14,-1
 195 506 l 1,15,-1
 195 670 l 2,0,1
55 695 m 2,16,17
 55 727 55 727 76.5 745.5 c 128,-1,18
 98 764 98 764 138 764 c 2,19,-1
 144 764 l 1,20,-1
 144 602 l 2,21,22
 144 588 144 588 147.5 578 c 128,-1,23
 151 568 151 568 163.5 568 c 128,-1,24
 176 568 176 568 183 573 c 1,25,26
 186 565 186 565 186 552 c 128,-1,27
 186 539 186 539 173 522.5 c 128,-1,28
 160 506 160 506 127 506 c 128,-1,29
 94 506 94 506 74.5 525.5 c 128,-1,30
 55 545 55 545 55 580 c 2,31,-1
 55 695 l 2,16,17
EndSplineSet
Validated: 524289
EndChar

StartChar: degree
Encoding: 176 176 136
Width: 339
Flags: HW
LayerCount: 2
Fore
SplineSet
144 600 m 2,0,1
 144 568 144 568 163.5 568 c 0,2,3
 176 568 176 568 183 573 c 1,4,5
 186 565 186 565 186 553 c 128,-1,6
 186 541 186 541 170.5 524.5 c 128,-1,7
 155 508 155 508 129 506 c 1,8,-1
 123 506 l 2,9,10
 92 506 92 506 73.5 525.5 c 128,-1,11
 55 545 55 545 55 580 c 2,12,-1
 55 695 l 2,13,14
 55 727 55 727 75 743.5 c 128,-1,15
 95 760 95 760 127 760 c 2,16,-1
 135 760 l 2,17,18
 139 760 139 760 144 759 c 1,19,-1
 144 600 l 2,0,1
195 670 m 2,20,21
 195 702 195 702 175.5 702 c 0,22,23
 163 702 163 702 156 697 c 1,24,25
 153 704 153 704 153 716.5 c 128,-1,26
 153 729 153 729 168.5 745.5 c 128,-1,27
 184 762 184 762 210 764 c 1,28,-1
 216 764 l 2,29,30
 247 764 247 764 265.5 744.5 c 128,-1,31
 284 725 284 725 284 690 c 2,32,-1
 284 575 l 2,33,34
 284 543 284 543 264 526.5 c 128,-1,35
 244 510 244 510 212 510 c 2,36,-1
 203 510 l 2,37,38
 200 510 200 510 195 511 c 1,39,-1
 195 670 l 2,20,21
EndSplineSet
Validated: 524289
EndChar

StartChar: onesuperior
Encoding: 185 185 137
Width: 198
Flags: HW
LayerCount: 2
Fore
SplineSet
148 577 m 2,0,1
 148 510 148 510 67 510 c 2,2,-1
 60 510 l 1,3,-1
 60 763 l 1,4,5
 120.419 763 120.419 763 140.5 721.5 c 0,6,7
 148 706 148 706 148 684 c 2,8,-1
 148 577 l 2,0,1
EndSplineSet
Validated: 524289
EndChar

StartChar: onequarter
Encoding: 188 188 138
Width: 593
Flags: HW
LayerCount: 2
Fore
SplineSet
350 101 m 1,0,-1
 341 101 l 2,1,2
 263.19 101 263.19 101 236.5 160 c 0,3,4
 227 181 227 181 227 211 c 2,5,-1
 227 275 l 2,6,7
 227 331.562 227 331.562 259.885 358.281 c 128,-1,8
 292.769 385 292.769 385 341 385 c 2,9,-1
 350 385 l 1,10,-1
 350 101 l 1,0,-1
489 120 m 2,11,12
 489 1.08147e-05 489 1.08147e-05 377 0 c 2,13,-1
 365 0 l 1,14,-1
 365 185 l 2,15,16
 365 305 365 305 477 305 c 2,17,-1
 489 305 l 1,18,-1
 489 120 l 2,11,12
573 212 m 1,19,20
 572 157 572 157 556 130.5 c 128,-1,21
 540 104 540 104 504 102 c 1,22,-1
 504 212 l 1,23,-1
 573 212 l 1,19,20
232 762 m 1,24,-1
 244 762 l 2,25,26
 333.106 762 333.106 762 364 701.5 c 0,27,28
 376 678 376 678 376 642 c 2,29,-1
 376 526 l 2,30,31
 376 459.615 376 459.615 332.5 429.5 c 0,32,33
 298.556 406 298.556 406 244 406 c 2,34,-1
 232 406 l 1,35,-1
 232 762 l 1,24,-1
194 0 m 1,36,-1
 182 0 l 2,37,38
 92.8936 0 92.8936 0 62 60.5 c 0,39,40
 50 84 50 84 50 120 c 2,41,-1
 50 276 l 2,42,43
 50 342.385 50 342.385 93.5 372.5 c 0,44,45
 127.444 396 127.444 396 182 396 c 2,46,-1
 194 396 l 1,47,-1
 194 0 l 1,36,-1
81 725 m 1,48,-1
 90 725 l 2,49,50
 169.905 725 169.905 725 198 666 c 0,51,52
 208 645 208 645 208 615 c 2,53,-1
 208 551 l 2,54,55
 208 494.758 208 494.758 173.885 467.879 c 128,-1,56
 139.769 441 139.769 441 90 441 c 2,57,-1
 81 441 l 1,58,-1
 81 725 l 1,48,-1
EndSplineSet
Validated: 524289
EndChar

StartChar: percent
Encoding: 37 37 139
Width: 563
Flags: W
LayerCount: 2
Fore
SplineSet
222 0 m 1,0,-1
 210 0 l 2,1,2
 188 0 188 0 166 5 c 128,-1,3
 144 10 144 10 127 23.5 c 128,-1,4
 110 37 110 37 99 60.5 c 128,-1,5
 88 84 88 84 88 120 c 2,6,-1
 88 276 l 2,7,8
 88 312 88 312 99 335.5 c 128,-1,9
 110 359 110 359 127 372.5 c 128,-1,10
 144 386 144 386 166 391 c 128,-1,11
 188 396 188 396 210 396 c 2,12,-1
 222 396 l 1,13,-1
 222 0 l 1,0,-1
340 762 m 1,14,-1
 352 762 l 2,15,16
 374 762 374 762 396 757 c 128,-1,17
 418 752 418 752 435 738.5 c 128,-1,18
 452 725 452 725 463 701.5 c 128,-1,19
 474 678 474 678 474 642 c 2,20,-1
 474 486 l 2,21,22
 474 450 474 450 463 426.5 c 128,-1,23
 452 403 452 403 435 389.5 c 128,-1,24
 418 376 418 376 396 371 c 128,-1,25
 374 366 374 366 352 366 c 2,26,-1
 340 366 l 1,27,-1
 340 762 l 1,14,-1
139 555 m 2,28,29
 139 541 139 541 143 530 c 128,-1,30
 147 519 147 519 164 519 c 0,31,32
 177 519 177 519 184 526 c 128,-1,33
 191 533 191 533 196 536 c 1,34,35
 197 533 197 533 197 529 c 2,36,-1
 197 523 l 2,37,38
 197 497 197 497 181.5 476 c 128,-1,39
 166 455 166 455 129 455 c 0,40,41
 91 455 91 455 68 476.5 c 128,-1,42
 45 498 45 498 45 552 c 2,43,-1
 45 666 l 2,44,45
 45 709 45 709 71 727.5 c 128,-1,46
 97 746 97 746 130 746 c 2,47,-1
 139 746 l 1,48,-1
 139 555 l 2,28,29
350 101 m 2,49,50
 350 87 350 87 354 76 c 128,-1,51
 358 65 358 65 375 65 c 0,52,53
 388 65 388 65 395 72 c 128,-1,54
 402 79 402 79 407 82 c 1,55,56
 408 79 408 79 408 75 c 2,57,-1
 408 69 l 2,58,59
 408 43 408 43 392.5 22 c 128,-1,60
 377 1 377 1 340 1 c 0,61,62
 297 1 297 1 276.5 25 c 128,-1,63
 256 49 256 49 256 103 c 2,64,-1
 256 212 l 2,65,66
 256 255 256 255 282 273.5 c 128,-1,67
 308 292 308 292 341 292 c 2,68,-1
 350 292 l 1,69,-1
 350 101 l 2,49,50
424 209 m 2,70,71
 424 223 424 223 419.5 234 c 128,-1,72
 415 245 415 245 398 245 c 0,73,74
 385 245 385 245 378 238 c 128,-1,75
 371 231 371 231 366 228 c 1,76,77
 366 231 366 231 365.5 233.5 c 128,-1,78
 365 236 365 236 365 239 c 0,79,80
 365 252 365 252 368 264.5 c 128,-1,81
 371 277 371 277 378.5 287 c 128,-1,82
 386 297 386 297 399.5 303 c 128,-1,83
 413 309 413 309 433 309 c 0,84,85
 518 309 518 309 518 202 c 2,86,-1
 518 98 l 2,87,88
 518 76 518 76 510.5 61 c 128,-1,89
 503 46 503 46 491 36.5 c 128,-1,90
 479 27 479 27 463.5 22.5 c 128,-1,91
 448 18 448 18 432 18 c 2,92,-1
 424 18 l 1,93,-1
 424 209 l 2,70,71
213 663 m 2,94,95
 213 677 213 677 208.5 688 c 128,-1,96
 204 699 204 699 187 699 c 0,97,98
 174 699 174 699 167 692 c 128,-1,99
 160 685 160 685 155 682 c 1,100,101
 155 685 155 685 154.5 687.5 c 128,-1,102
 154 690 154 690 154 693 c 0,103,104
 154 706 154 706 157 718.5 c 128,-1,105
 160 731 160 731 167.5 741 c 128,-1,106
 175 751 175 751 188.5 757 c 128,-1,107
 202 763 202 763 222 763 c 0,108,109
 307 763 307 763 307 656 c 2,110,-1
 307 552 l 2,111,112
 307 530 307 530 299.5 515 c 128,-1,113
 292 500 292 500 280 490.5 c 128,-1,114
 268 481 268 481 252.5 476.5 c 128,-1,115
 237 472 237 472 221 472 c 2,116,-1
 213 472 l 1,117,-1
 213 663 l 2,94,95
EndSplineSet
Validated: 1
EndChar

StartChar: onehalf
Encoding: 189 189 140
Width: 545
Flags: HW
LayerCount: 2
Fore
SplineSet
194 0 m 1,0,-1
 182 0 l 2,1,2
 92.8936 0 92.8936 0 62 60.5 c 0,3,4
 50 84 50 84 50 120 c 2,5,-1
 50 276 l 2,6,7
 50 342.385 50 342.385 93.5 372.5 c 0,8,9
 127.444 396 127.444 396 182 396 c 2,10,-1
 194 396 l 1,11,-1
 194 0 l 1,0,-1
232 762 m 1,12,-1
 244 762 l 2,13,14
 333.106 762 333.106 762 364 701.5 c 0,15,16
 376 678 376 678 376 642 c 2,17,-1
 376 526 l 2,18,19
 376 459.615 376 459.615 332.5 429.5 c 0,20,21
 298.556 406 298.556 406 244 406 c 2,22,-1
 232 406 l 1,23,-1
 232 762 l 1,12,-1
81 725 m 1,24,-1
 90 725 l 2,25,26
 169.905 725 169.905 725 198 666 c 0,27,28
 208 645 208 645 208 615 c 2,29,-1
 208 551 l 2,30,31
 208 494.758 208 494.758 173.885 467.879 c 128,-1,32
 139.769 441 139.769 441 90 441 c 2,33,-1
 81 441 l 1,34,-1
 81 725 l 1,24,-1
376 399 m 1,35,36
 381 400 381 400 385 400 c 2,37,-1
 394 400 l 2,38,39
 439.88 400 439.88 400 472.44 373.742 c 128,-1,40
 505 347.484 505 347.484 505 300 c 2,41,-1
 505 271 l 2,42,43
 505 216.865 505 216.865 461.5 191 c 0,44,45
 429.545 172 429.545 172 381 172 c 2,46,-1
 376 172 l 1,47,-1
 376 399 l 1,35,36
225 95 m 2,48,49
 225 140.143 225 140.143 259 162 c 0,50,51
 282.333 177 282.333 177 316 177 c 0,52,53
 324 177 324 177 332 175 c 1,54,-1
 332 120 l 2,55,56
 332 103 332 103 335 95 c 128,-1,57
 338 87 338 87 351 87 c 128,-1,58
 364 87 364 87 371 97 c 1,59,60
 377 79 377 79 377 58 c 128,-1,61
 377 37 377 37 360.5 18 c 128,-1,62
 344 -1 344 -1 310.5 -1 c 128,-1,63
 277 -1 277 -1 251 21.5 c 128,-1,64
 225 44 225 44 225 79 c 2,65,-1
 225 95 l 2,48,49
500 1 m 1,66,-1
 482 0 l 1,67,68
 439.667 0 439.667 0 420.333 14 c 0,69,70
 383 41.0345 383 41.0345 383 91.7829 c 128,-1,71
 383 142.531 383 142.531 420 164.5 c 0,72,73
 447.789 181 447.789 181 484 181 c 0,74,75
 496 181 496 181 500 180 c 1,76,-1
 500 1 l 1,66,-1
310 237 m 0,77,78
 252.094 237 252.094 237 226.5 276 c 0,79,80
 216 292 216 292 216 312 c 0,81,82
 216 350.105 216 350.105 236.196 374.553 c 128,-1,83
 256.391 399 256.391 399 293.696 399 c 128,-1,84
 331 399 331 399 349.5 380.5 c 128,-1,85
 368 362 368 362 368 340.5 c 128,-1,86
 368 319 368 319 362 301 c 1,87,88
 355 311 355 311 342 311 c 128,-1,89
 329 311 329 311 326 303 c 128,-1,90
 323 295 323 295 323 278 c 2,91,-1
 323 238 l 1,92,93
 322 237 322 237 310 237 c 0,77,78
EndSplineSet
Validated: 524321
EndChar

StartChar: threequarters
Encoding: 190 190 141
Width: 684
Flags: HW
LayerCount: 2
Fore
SplineSet
285 0 m 1,0,-1
 273 0 l 2,1,2
 183.894 0 183.894 0 153 60.5 c 0,3,4
 141 84 141 84 141 120 c 2,5,-1
 141 276 l 2,6,7
 141 342.385 141 342.385 184.5 372.5 c 0,8,9
 218.444 396 218.444 396 273 396 c 2,10,-1
 285 396 l 1,11,-1
 285 0 l 1,0,-1
323 762 m 1,12,-1
 335 762 l 2,13,14
 424.106 762 424.106 762 455 701.5 c 0,15,16
 467 678 467 678 467 642 c 2,17,-1
 467 526 l 2,18,19
 467 459.615 467 459.615 423.5 429.5 c 0,20,21
 389.556 406 389.556 406 335 406 c 2,22,-1
 323 406 l 1,23,-1
 323 762 l 1,12,-1
580 120 m 2,24,25
 580 -4.81131e-05 580 -4.81131e-05 468 0 c 2,26,-1
 456 0 l 1,27,-1
 456 185 l 2,28,29
 456 305 456 305 568 305 c 2,30,-1
 580 305 l 1,31,-1
 580 120 l 2,24,25
441 101 m 1,32,-1
 432 101 l 2,33,34
 354.19 101 354.19 101 327.5 160 c 0,35,36
 318 181 318 181 318 211 c 2,37,-1
 318 275 l 2,38,39
 318 331.562 318 331.562 350.885 358.281 c 128,-1,40
 383.769 385 383.769 385 432 385 c 2,41,-1
 441 385 l 1,42,-1
 441 101 l 1,32,-1
304 489 m 0,43,44
 304 407 304 407 209 407 c 1,45,-1
 193 408 l 1,46,-1
 193 723 l 1,47,48
 198 724 198 724 203 724 c 2,49,-1
 213 724 l 2,50,51
 273.29 724 273.29 724 295.5 683.5 c 0,52,53
 304 668 304 668 304 642.5 c 0,54,55
 304 578.333 304 578.333 236 567 c 1,56,-1
 213 565 l 1,57,58
 253.598 561.877 253.598 561.877 269.799 552.939 c 0,59,60
 304 534.069 304 534.069 304 489 c 0,43,44
144 596 m 1,61,-1
 132 595 l 1,62,63
 80.96 595 80.96 595 59 625.5 c 0,64,65
 50 638 50 638 50 660 c 128,-1,66
 50 682 50 682 67 702 c 128,-1,67
 84 722 84 722 116 722 c 128,-1,68
 148 722 148 722 163 705.5 c 128,-1,69
 178 689 178 689 178 672 c 128,-1,70
 178 655 178 655 175 645 c 1,71,72
 168.6 653 168.6 653 156.3 653 c 128,-1,73
 144 653 144 653 144 627 c 2,74,-1
 144 596 l 1,61,-1
146.5 483 m 128,-1,76
 149 477 149 477 159.2 477 c 128,-1,77
 169.4 477 169.4 477 175 484 c 1,78,79
 178 473 178 473 178 456.5 c 128,-1,80
 178 440 178 440 163.5 424 c 128,-1,81
 149 408 149 408 120.5 408 c 128,-1,82
 92 408 92 408 71 425 c 128,-1,83
 50 442 50 442 50 466.5 c 0,84,85
 50 506.64 50 506.64 80.5 522.5 c 0,86,87
 102.615 534 102.615 534 122.808 534 c 128,-1,88
 143 534 143 534 144 533 c 1,89,-1
 144 503 l 2,90,75
 144 489 144 489 146.5 483 c 128,-1,76
664 212 m 1,91,92
 663 157 663 157 647 130.5 c 128,-1,93
 631 104 631 104 595 102 c 1,94,-1
 595 212 l 1,95,-1
 664 212 l 1,91,92
EndSplineSet
Validated: 524321
EndChar

StartChar: parenleft
Encoding: 40 40 142
Width: 538
Flags: HW
LayerCount: 2
Fore
SplineSet
214 -100 m 1,0,-1
 204 -100 l 2,1,2
 111 -100 111 -100 81.5 -41 c 0,3,4
 70 -18 70 -18 70 19 c 2,5,-1
 70 506 l 2,6,7
 70 571.5 70 571.5 106.333 598.75 c 128,-1,8
 142.667 626 142.667 626 198 626 c 2,9,-1
 214 626 l 1,10,-1
 214 -100 l 1,0,-1
470 -136 m 1,11,12
 478 -136 478 -136 478 -157.5 c 0,13,14
 478 -199.714 478 -199.714 456.438 -224.357 c 128,-1,15
 434.875 -249 434.875 -249 380.438 -249 c 128,-1,16
 326 -249 326 -249 293 -213 c 128,-1,17
 260 -177 260 -177 260 -114 c 2,18,-1
 260 591 l 2,19,20
 260 654 260 654 292 690 c 128,-1,21
 324 726 324 726 384 726 c 0,22,23
 457.677 726 457.677 726 473.5 671.5 c 0,24,25
 478 656 478 656 478 641.5 c 128,-1,26
 478 627 478 627 472 611 c 1,27,28
 458 623 458 623 447 623 c 0,29,30
 412 623 412 623 412 569 c 2,31,-1
 412 -81 l 2,32,33
 412 -146 412 -146 447 -146 c 0,34,35
 460 -146 460 -146 470 -136 c 1,11,12
EndSplineSet
Validated: 524289
EndChar

StartChar: parenright
Encoding: 41 41 143
Width: 538
Flags: HW
LayerCount: 2
Fore
SplineSet
324 626 m 1,0,-1
 340 626 l 2,1,2
 427.826 626 427.826 626 457 565 c 0,3,4
 468 542 468 542 468 506 c 2,5,-1
 468 19 l 2,6,7
 468 -77.7551 468 -77.7551 383.5 -95 c 0,8,9
 359 -100 359 -100 334 -100 c 2,10,-1
 324 -100 l 1,11,-1
 324 626 l 1,0,-1
68 613 m 1,12,13
 60 627 60 627 60 641.5 c 0,14,15
 60 676.565 60 676.565 83.6875 701.283 c 128,-1,16
 107.375 726 107.375 726 161.688 726 c 128,-1,17
 216 726 216 726 247 690 c 128,-1,18
 278 654 278 654 278 591 c 2,19,-1
 278 -114 l 2,20,21
 278 -177 278 -177 246 -213 c 128,-1,22
 214 -249 214 -249 154 -249 c 0,23,24
 80.3226 -249 80.3226 -249 64.5 -194.5 c 0,25,26
 60 -179 60 -179 60 -164.5 c 128,-1,27
 60 -150 60 -150 66 -134 c 1,28,29
 79 -146 79 -146 91 -146 c 256,30,31
 126 -146 126 -146 126 -81 c 2,32,-1
 126 569 l 2,33,34
 126 623 126 623 91 623 c 0,35,36
 78 623 78 623 68 613 c 1,12,13
EndSplineSet
Validated: 524289
EndChar

StartChar: ordfeminine
Encoding: 170 170 144
Width: 339
Flags: HW
LayerCount: 2
Fore
SplineSet
195 670 m 2,0,1
 195 702 195 702 175.5 702 c 0,2,3
 163 702 163 702 156 697 c 1,4,5
 153 704 153 704 153 718.5 c 128,-1,6
 153 733 153 733 167 748.5 c 128,-1,7
 181 764 181 764 214 764 c 128,-1,8
 247 764 247 764 265.5 744.5 c 128,-1,9
 284 725 284 725 284 690 c 2,10,-1
 284 507 l 1,11,12
 279 506 279 506 275 506 c 2,13,-1
 267 506 l 2,14,15
 235 506 235 506 215 524.5 c 128,-1,16
 195 543 195 543 195 575 c 2,17,-1
 195 670 l 2,0,1
144 600 m 2,18,19
 144 568 144 568 163.5 568 c 0,20,21
 176 568 176 568 183 573 c 1,22,23
 186 565 186 565 186 550.5 c 128,-1,24
 186 536 186 536 170 521 c 128,-1,25
 154 506 154 506 123 506 c 256,26,27
 92 506 92 506 73.5 525.5 c 128,-1,28
 55 545 55 545 55 580 c 2,29,-1
 55 675 l 2,30,31
 55 709 55 709 76 729.5 c 128,-1,32
 97 750 97 750 130 750 c 0,33,34
 141 750 141 750 144 749 c 1,35,-1
 144 600 l 2,18,19
EndSplineSet
Validated: 524289
EndChar

StartChar: numbersign
Encoding: 35 35 145
Width: 718
Flags: W
LayerCount: 2
Fore
SplineSet
361 439 m 2,0,1
 361 388 361 388 335.5 357 c 128,-1,2
 310 326 310 326 250 326 c 1,3,-1
 250 522 l 2,4,5
 250 554 250 554 259 576 c 128,-1,6
 268 598 268 598 283 611 c 128,-1,7
 298 624 298 624 318 629.5 c 128,-1,8
 338 635 338 635 361 635 c 1,9,-1
 361 439 l 2,0,1
501 439 m 2,10,11
 501 388 501 388 475.5 357 c 128,-1,12
 450 326 450 326 390 326 c 1,13,-1
 390 522 l 2,14,15
 390 554 390 554 399 576 c 128,-1,16
 408 598 408 598 423 611 c 128,-1,17
 438 624 438 624 458 629.5 c 128,-1,18
 478 635 478 635 501 635 c 1,19,-1
 501 439 l 2,10,11
328 116 m 2,20,21
 328 65 328 65 302.5 34 c 128,-1,22
 277 3 277 3 217 3 c 1,23,-1
 217 209 l 2,24,25
 217 241 217 241 226 263 c 128,-1,26
 235 285 235 285 250 298 c 128,-1,27
 265 311 265 311 285 316.5 c 128,-1,28
 305 322 305 322 328 322 c 1,29,-1
 328 116 l 2,20,21
478 117 m 2,30,31
 478 66 478 66 452.5 35 c 128,-1,32
 427 4 427 4 367 4 c 1,33,-1
 367 210 l 2,34,35
 367 242 367 242 376 264 c 128,-1,36
 385 286 385 286 400 299 c 128,-1,37
 415 312 415 312 435 317.5 c 128,-1,38
 455 323 455 323 478 323 c 1,39,-1
 478 117 l 2,30,31
663 459 m 1,40,41
 663 436 663 436 660.5 416 c 128,-1,42
 658 396 658 396 648.5 381 c 128,-1,43
 639 366 639 366 620.5 357.5 c 128,-1,44
 602 349 602 349 570 349 c 2,45,-1
 514 349 l 1,46,-1
 514 353 l 2,47,48
 514 388 514 388 520.5 409 c 128,-1,49
 527 430 527 430 538 441 c 128,-1,50
 549 452 549 452 564.5 455.5 c 128,-1,51
 580 459 580 459 597 459 c 2,52,-1
 663 459 l 1,40,41
644 296 m 1,53,54
 644 273 644 273 641.5 253 c 128,-1,55
 639 233 639 233 629.5 218 c 128,-1,56
 620 203 620 203 601.5 194.5 c 128,-1,57
 583 186 583 186 551 186 c 2,58,-1
 495 186 l 1,59,-1
 495 190 l 2,60,61
 495 225 495 225 501.5 246 c 128,-1,62
 508 267 508 267 519 278 c 128,-1,63
 530 289 530 289 545.5 292.5 c 128,-1,64
 561 296 561 296 578 296 c 2,65,-1
 644 296 l 1,53,54
236 459 m 1,66,67
 236 436 236 436 233.5 416 c 128,-1,68
 231 396 231 396 221.5 381 c 128,-1,69
 212 366 212 366 193.5 357.5 c 128,-1,70
 175 349 175 349 143 349 c 2,71,-1
 87 349 l 1,72,-1
 87 353 l 2,73,74
 87 388 87 388 93.5 409 c 128,-1,75
 100 430 100 430 111 441 c 128,-1,76
 122 452 122 452 137.5 455.5 c 128,-1,77
 153 459 153 459 170 459 c 2,78,-1
 236 459 l 1,66,67
205 296 m 1,79,80
 205 273 205 273 202.5 253 c 128,-1,81
 200 233 200 233 190.5 218 c 128,-1,82
 181 203 181 203 162.5 194.5 c 128,-1,83
 144 186 144 186 112 186 c 2,84,-1
 56 186 l 1,85,-1
 56 190 l 2,86,87
 56 225 56 225 62.5 246 c 128,-1,88
 69 267 69 267 80 278 c 128,-1,89
 91 289 91 289 106.5 292.5 c 128,-1,90
 122 296 122 296 139 296 c 2,91,-1
 205 296 l 1,79,80
EndSplineSet
Validated: 1
EndChar

StartChar: registered
Encoding: 174 174 146
Width: 830
Flags: HW
LayerCount: 2
Fore
SplineSet
266 431 m 2,0,1
 266 545 266 545 372 545 c 0,2,3
 405.333 545 405.333 545 426.167 521.974 c 128,-1,4
 447 498.947 447 498.947 447 471 c 0,5,6
 447 463 447 463 445 455 c 1,7,8
 434 463 434 463 416.5 463 c 0,9,10
 388 463 388 463 388 418 c 2,11,-1
 388 89 l 2,12,13
 388 44.1892 388 44.1892 344.5 19.5 c 0,14,15
 310.143 -2.78094e-06 310.143 -2.78094e-06 266 0 c 1,16,-1
 266 431 l 2,0,1
454 544 m 1,17,-1
 463 544 l 2,18,19
 508 544 508 544 535 517.5 c 128,-1,20
 562 491 562 491 562 440 c 2,21,-1
 562 361 l 2,22,23
 562 313 562 313 536.5 286 c 128,-1,24
 511 259 511 259 472.167 259 c 128,-1,25
 433.333 259 433.333 259 415.667 283.941 c 128,-1,26
 398 308.882 398 308.882 398 341 c 1,27,28
 404 334 404 334 408.5 331.5 c 128,-1,29
 413 329 413 329 425 329 c 0,30,31
 444.944 329 444.944 329 450.5 349 c 0,32,33
 454 361.6 454 361.6 454 387 c 2,34,-1
 454 544 l 1,17,-1
549 0 m 1,35,-1
 543 0 l 2,36,37
 463.824 0 463.824 0 436 43 c 0,38,39
 425 60 425 60 425 88 c 2,40,-1
 425 247 l 1,41,-1
 438 247 l 2,42,43
 513.571 247 513.571 247 539 202.5 c 0,44,45
 549 185 549 185 549 158 c 2,46,-1
 549 0 l 1,35,-1
347 -67 m 1,47,48
 354 -82 354 -82 354 -108 c 0,49,50
 354 -160.048 354 -160.048 309.862 -190.524 c 128,-1,51
 265.724 -221 265.724 -221 204.362 -221 c 128,-1,52
 143 -221 143 -221 99 -176.5 c 128,-1,53
 55 -132 55 -132 55 -47 c 2,54,-1
 55 567 l 2,55,56
 55 651.818 55 651.818 101 702 c 128,-1,57
 146.833 752 146.833 752 215.417 752 c 128,-1,58
 284 752 284 752 319 719.5 c 128,-1,59
 354 687 354 687 354 633 c 0,60,61
 354 607 354 607 344 586 c 1,62,63
 330 603 330 603 314.5 617 c 128,-1,64
 299 631 299 631 280.5 631 c 0,65,66
 245 631 245 631 230 619 c 0,67,68
 207 600.6 207 600.6 207 554 c 2,69,-1
 207 -24 l 2,70,71
 207 -72.0833 207 -72.0833 236 -89 c 0,72,73
 253.143 -99 253.143 -99 274.571 -99 c 0,74,75
 317.133 -99 317.133 -99 347 -67 c 1,47,48
623 554 m 2,76,77
 623 631 623 631 558 631 c 0,78,79
 531 631 531 631 515.5 617 c 128,-1,80
 500 603 500 603 486 586 c 1,81,82
 476 607 476 607 476 633 c 0,83,84
 476 693 476 693 513.5 722 c 128,-1,85
 551 751 551 751 618.5 751 c 128,-1,86
 686 751 686 751 730.5 701.5 c 128,-1,87
 775 652 775 652 775 567 c 2,88,-1
 775 -47 l 2,89,90
 775 -132 775 -132 731 -176.5 c 128,-1,91
 687 -221 687 -221 623.086 -221 c 128,-1,92
 559.172 -221 559.172 -221 517.586 -190.077 c 128,-1,93
 476 -159.154 476 -159.154 476 -105 c 0,94,95
 476 -82 476 -82 483 -67 c 1,96,97
 513 -99 513 -99 549.5 -99 c 128,-1,98
 586 -99 586 -99 604.5 -79 c 128,-1,99
 623 -59 623 -59 623 -24 c 2,100,-1
 623 554 l 2,76,77
EndSplineSet
Validated: 524321
EndChar

StartChar: copyright
Encoding: 169 169 147
Width: 830
Flags: HW
LayerCount: 2
Fore
SplineSet
347 -67 m 1,0,1
 354 -82 354 -82 354 -105 c 256,2,3
 354 -153.111 354 -153.111 315.812 -187.056 c 128,-1,4
 277.625 -221 277.625 -221 210.312 -221 c 128,-1,5
 143 -221 143 -221 99 -176.5 c 128,-1,6
 55 -132 55 -132 55 -47 c 2,7,-1
 55 567 l 2,8,9
 55 651.818 55 651.818 101 702 c 128,-1,10
 146.833 752 146.833 752 212.854 752 c 128,-1,11
 278.875 752 278.875 752 316.438 718.611 c 128,-1,12
 354 685.222 354 685.222 354 633 c 0,13,14
 354 607 354 607 344 586 c 1,15,16
 333 604 333 604 318.5 617.5 c 128,-1,17
 304 631 304 631 271 631 c 0,18,19
 207 631 207 631 207 554 c 2,20,-1
 207 -24 l 2,21,22
 207 -72.0833 207 -72.0833 236 -89 c 0,23,24
 253.143 -99 253.143 -99 274.571 -99 c 0,25,26
 317.133 -99 317.133 -99 347 -67 c 1,0,1
263 447 m 2,27,28
 263 552 263 552 376 552 c 2,29,-1
 389 552 l 1,30,-1
 389 -41 l 1,31,-1
 379 -41 l 2,32,33
 263 -41 263 -41 263 62 c 2,34,-1
 263 447 l 2,27,28
484.5 129 m 0,35,36
 543.559 129 543.559 129 569.5 87 c 0,37,38
 580 70 580 70 580 48.5 c 0,39,40
 580 10 580 10 556.625 -15.5 c 128,-1,41
 533.25 -41 533.25 -41 490.625 -41 c 128,-1,42
 448 -41 448 -41 426 -15.8571 c 128,-1,43
 404 9.28571 404 9.28571 404 30.3095 c 128,-1,44
 404 51.3333 404 51.3333 408 62 c 1,45,46
 422 51 422 51 435.5 51 c 0,47,48
 466 51 466 51 466 84 c 2,49,-1
 466 127 l 1,50,51
 474 129 474 129 484.5 129 c 0,35,36
408 450 m 1,52,53
 404 459.333 404 459.333 404 472.167 c 0,54,55
 404 501.2 404 501.2 425.583 527.1 c 128,-1,56
 447.167 553 447.167 553 490.208 553 c 128,-1,57
 533.25 553 533.25 553 556.625 527.5 c 128,-1,58
 580 502 580 502 580 471.5 c 0,59,60
 580 420.3 580 420.3 544 397.5 c 0,61,62
 519.526 382 519.526 382 483 382 c 0,63,64
 474 382 474 382 466 384 c 1,65,-1
 466 424 l 2,66,67
 466 460 466 460 436 460 c 0,68,69
 418 460 418 460 408 450 c 1,52,53
483 -67 m 1,70,71
 512.867 -99 512.867 -99 549.433 -99 c 128,-1,72
 586 -99 586 -99 604.5 -79 c 128,-1,73
 623 -59 623 -59 623 -24 c 2,74,-1
 623 554 l 2,75,76
 623 600.6 623 600.6 600 619 c 0,77,78
 585 631 585 631 557.5 631 c 128,-1,79
 530 631 530 631 513.5 617 c 128,-1,80
 497 603 497 603 486 586 c 1,81,82
 476 607 476 607 476 632 c 0,83,84
 476 681.576 476 681.576 511.797 716.288 c 128,-1,85
 547.594 751 547.594 751 598 751 c 0,86,87
 679 751 679 751 727 705 c 128,-1,88
 775 659 775 659 775 567 c 2,89,-1
 775 -47 l 2,90,91
 775 -132 775 -132 731 -176.5 c 128,-1,92
 687 -221 687 -221 619.688 -221 c 128,-1,93
 552.375 -221 552.375 -221 514.188 -187.056 c 128,-1,94
 476 -153.111 476 -153.111 476 -105 c 256,95,96
 476 -82 476 -82 483 -67 c 1,70,71
EndSplineSet
Validated: 524289
EndChar

StartChar: section
Encoding: 167 167 148
Width: 484
Flags: HW
LayerCount: 2
Fore
SplineSet
168 40 m 2,0,1
 112.143 40 112.143 40 90.5714 58.875 c 128,-1,2
 69 77.75 69 77.75 69 137 c 2,3,-1
 69 559 l 2,4,5
 69 633.216 69 633.216 110.5 663.5 c 0,6,7
 139.963 685 139.963 685 200 685 c 1,8,-1
 200 435 l 1,9,-1
 316 435 l 2,10,11
 371.857 435 371.857 435 393.429 416.125 c 128,-1,12
 415 397.25 415 397.25 415 338 c 2,13,-1
 415 -124 l 2,14,15
 415 -198.216 415 -198.216 373.5 -228.5 c 0,16,17
 344.037 -250 344.037 -250 284 -250 c 1,18,-1
 284 40 l 1,19,-1
 168 40 l 2,0,1
191 -101 m 2,20,21
 191 -154.077 191 -154.077 229.599 -154.077 c 0,22,23
 247.492 -154.077 247.492 -154.077 263 -143 c 1,24,25
 270 -157 270 -157 270 -181 c 128,-1,26
 270 -205 270 -205 243.5 -228 c 128,-1,27
 217 -251 217 -251 168 -251 c 0,28,29
 99 -251 99 -251 72 -195.5 c 0,30,31
 63 -177 63 -177 63 -157 c 0,32,33
 63 -115.636 63 -115.636 85.2692 -89.3182 c 128,-1,34
 107.538 -63 107.538 -63 155 -63 c 0,35,36
 179 -63 179 -63 191 -66 c 1,37,-1
 191 -101 l 2,20,21
295 575 m 2,38,39
 295 628.077 295 628.077 256.401 628.077 c 0,40,41
 238.508 628.077 238.508 628.077 223 617 c 1,42,43
 216 631 216 631 216 655 c 128,-1,44
 216 679 216 679 242.5 702 c 128,-1,45
 269 725 269 725 318 725 c 0,46,47
 387 725 387 725 414 669.5 c 0,48,49
 423 651 423 651 423 631 c 0,50,51
 423 589.636 423 589.636 400.731 563.318 c 128,-1,52
 378.462 537 378.462 537 331 537 c 0,53,54
 307 537 307 537 295 540 c 1,55,-1
 295 575 l 2,38,39
200 182 m 1,56,-1
 284 182 l 1,57,-1
 284 293 l 1,58,-1
 200 293 l 1,59,-1
 200 182 l 1,56,-1
EndSplineSet
Validated: 524289
EndChar

StartChar: aring
Encoding: 229 229 149
Width: 452
Flags: HW
LayerCount: 2
Fore
SplineSet
229 571 m 0,0,1
 229 532 229 532 174 532 c 0,2,3
 149 532 149 532 133.5 549 c 128,-1,4
 118 566 118 566 118 592 c 2,5,-1
 118 668 l 2,6,7
 118 697 118 697 135 713 c 128,-1,8
 152 729 152 729 178.5 729 c 0,9,10
 228 729 228 729 228 685 c 0,11,12
 228 678 228 678 226 675 c 1,13,14
 219 680 219 680 209 680 c 0,15,16
 187 680 187 680 187 655 c 2,17,-1
 187 613 l 2,18,19
 187 581 187 581 206.667 581 c 0,20,21
 219.333 581 219.333 581 226 586 c 1,22,23
 229 578 229 578 229 571 c 0,0,1
243 586 m 1,24,25
 249.667 581 249.667 581 262.333 581 c 128,-1,26
 275 581 275 581 278 591 c 128,-1,27
 281 601 281 601 282 613 c 1,28,-1
 282 655 l 2,29,30
 282 680 282 680 260 680 c 0,31,32
 250 680 250 680 243 675 c 1,33,34
 241 678 241 678 241 685 c 0,35,36
 241 729 241 729 287 729 c 0,37,38
 317 729 317 729 334 713 c 128,-1,39
 351 697 351 697 351 668 c 2,40,-1
 351 592 l 2,41,42
 351 566 351 566 335.5 549 c 128,-1,43
 320 532 320 532 295 532 c 0,44,45
 240 532 240 532 240 571 c 0,46,47
 240 578 240 578 243 586 c 1,24,25
197 403 m 1,48,49
 191 415 191 415 191 440.5 c 128,-1,50
 191 466 191 466 218 487 c 128,-1,51
 245 508 245 508 283 508 c 0,52,53
 343 508 343 508 375 477.5 c 128,-1,54
 407 447 407 447 407 390 c 2,55,-1
 407 0 l 1,56,57
 319.111 0 319.111 0 285.5 60.5 c 0,58,59
 273 83 273 83 273 118 c 2,60,-1
 273 352 l 2,61,62
 273 395.235 273 395.235 252.5 408.5 c 0,63,64
 244 414 244 414 226.917 414 c 128,-1,65
 209.833 414 209.833 414 197 403 c 1,48,49
255 105 m 1,66,67
 261 93 261 93 261 67.5 c 128,-1,68
 261 42 261 42 234 21 c 128,-1,69
 207 0 207 0 169 0 c 0,70,71
 109 0 109 0 77 32 c 128,-1,72
 45 64 45 64 45 112 c 2,73,-1
 45 390 l 2,74,75
 45 450.051 45 450.051 85.3571 479.026 c 128,-1,76
 125.714 508 125.714 508 179 508 c 1,77,-1
 179 156 l 2,78,79
 179 112.765 179 112.765 199.5 99.5 c 0,80,81
 208 94 208 94 225.083 94 c 128,-1,82
 242.167 94 242.167 94 255 105 c 1,66,67
EndSplineSet
Validated: 524289
EndChar

StartChar: twosuperior
Encoding: 178 178 150
Width: 301
Flags: HW
LayerCount: 2
Fore
SplineSet
164 763 m 1,0,1
 176 764 l 1,2,3
 204 764 204 764 225 748 c 128,-1,4
 246 732 246 732 246 700 c 2,5,-1
 246 682 l 2,6,7
 246 646.75 246 646.75 222.214 632.875 c 0,8,9
 198.429 619 198.429 619 168 619 c 2,10,-1
 164 619 l 1,11,-1
 164 763 l 1,0,1
161 562 m 0,12,13
 161 611 161 611 223 611 c 2,14,-1
 235 611 l 1,15,-1
 235 508 l 1,16,-1
 226 508 l 2,17,18
 200 508 200 508 180.5 518.5 c 128,-1,19
 161 529 161 529 161 562 c 0,12,13
72 673 m 128,-1,21
 56 686 56 686 56 707 c 128,-1,22
 56 728 56 728 68.5 745.5 c 128,-1,23
 81 763 81 763 106 763 c 128,-1,24
 131 763 131 763 142 750 c 128,-1,25
 153 737 153 737 153 724 c 128,-1,26
 153 711 153 711 150 701 c 1,27,28
 145 707 145 707 138 707 c 0,29,30
 124 707 124 707 124 686 c 2,31,-1
 124 660 l 1,32,-1
 111 660 l 2,33,20
 88 660 88 660 72 673 c 128,-1,21
148 571 m 1,34,35
 152 563 152 563 152 547.5 c 128,-1,36
 152 532 152 532 140.5 520.5 c 128,-1,37
 129 509 129 509 107.5 509 c 128,-1,38
 86 509 86 509 70.5 522.5 c 128,-1,39
 55 536 55 536 55 564 c 2,40,-1
 55 570 l 2,41,42
 55 599.474 55 599.474 74.4545 610.737 c 0,43,44
 93.9091 622 93.9091 622 114 622 c 1,45,-1
 123 621 l 1,46,-1
 123 589 l 2,47,48
 123 565 123 565 135 565 c 0,49,50
 142 565 142 565 148 571 c 1,34,35
EndSplineSet
Validated: 524289
EndChar

StartChar: threesuperior
Encoding: 179 179 151
Width: 300
Flags: HW
LayerCount: 2
Fore
SplineSet
163 763 m 1,0,-1
 174 763 l 2,1,2
 221.08 763 221.08 763 238.5 729.5 c 0,3,4
 245 717 245 717 245 698 c 128,-1,5
 245 679 245 679 237.5 667 c 0,6,7
 218.125 636 218.125 636 173 636 c 1,8,9
 242.418 628.287 242.418 628.287 244.071 580.714 c 0,10,11
 244.18 577.586 244.18 577.586 244.18 565.061 c 0,12,13
 244.18 537.987 244.18 537.987 222.19 522.993 c 128,-1,14
 200.2 508 200.2 508 170 508 c 2,15,-1
 163 508 l 1,16,-1
 163 763 l 1,0,-1
149 701 m 1,17,18
 144.5 707 144.5 707 136 707 c 0,19,20
 123 707 123 707 123 687 c 2,21,-1
 123 661 l 1,22,-1
 114 661 l 2,23,24
 77.1 661 77.1 661 61.5 685 c 0,25,26
 55 695 55 695 55 712.5 c 128,-1,27
 55 730 55 730 67.5 746.5 c 128,-1,28
 80 763 80 763 105 763 c 128,-1,29
 130 763 130 763 141 751.5 c 128,-1,30
 152 740 152 740 152 725.5 c 128,-1,31
 152 711 152 711 149 701 c 1,17,18
148 570 m 1,32,33
 152 564 152 564 152 547.5 c 128,-1,34
 152 531 152 531 140.5 519.5 c 128,-1,35
 129 508 129 508 107 508 c 128,-1,36
 85 508 85 508 70 522 c 128,-1,37
 55 536 55 536 55 555.5 c 0,38,39
 55 588.474 55 588.474 74.4545 599.737 c 128,-1,40
 93.9091 611 93.9091 611 114 611 c 1,41,-1
 123 610 l 1,42,-1
 123 581 l 2,43,44
 123 564 123 564 137 564 c 256,45,46
 143 564 143 564 148 570 c 1,32,33
EndSplineSet
Validated: 524289
EndChar

StartChar: currency
Encoding: 164 164 152
Width: 679
Flags: HW
LayerCount: 2
Fore
SplineSet
153 198 m 1,0,1
 117 253.636 117 253.636 117 321 c 256,2,3
 117 386.818 117 386.818 154 444 c 1,4,-1
 50 547 l 1,5,6
 65 571 65 571 87.5 588 c 128,-1,7
 110 605 110 605 132 605 c 0,8,9
 172 605 172 605 206 571 c 2,10,-1
 251 525 l 1,11,-1
 252 525 l 1,12,13
 293 543 293 543 339 543 c 256,14,15
 389 543 389 543 427 524 c 1,16,-1
 473 571 l 2,17,18
 506 605 506 605 537.5 605 c 0,19,20
 592.75 605 592.75 605 629 547 c 1,21,-1
 524 443 l 1,22,23
 561 385.818 561 385.818 561 321 c 256,24,25
 561 256.182 561 256.182 524 199 c 1,26,-1
 629 96 l 1,27,28
 614 72 614 72 591.5 55 c 128,-1,29
 569 38 569 38 547 38 c 0,30,31
 507 38 507 38 473 72 c 2,32,-1
 428 117 l 2,33,34
 427 117 427 117 425 116 c 0,35,36
 385 99 385 99 339 99 c 256,37,38
 286 99 286 99 250 117 c 1,39,-1
 206 72 l 2,40,41
 172 38 172 38 141 38 c 0,42,43
 86.25 38 86.25 38 50 96 c 1,44,-1
 153 198 l 1,0,1
255 234 m 128,-1,46
 291 198 291 198 342 198 c 128,-1,47
 393 198 393 198 429 234 c 128,-1,48
 465 270 465 270 465 321 c 128,-1,49
 465 372 465 372 429 408 c 128,-1,50
 393 444 393 444 342 444 c 128,-1,51
 291 444 291 444 255 408 c 128,-1,52
 219 372 219 372 219 321 c 128,-1,45
 219 270 219 270 255 234 c 128,-1,46
EndSplineSet
Validated: 524289
EndChar

StartChar: yen
Encoding: 165 165 153
Width: 503
Flags: HW
LayerCount: 2
Fore
SplineSet
339 -105 m 0,0,1
 321 -105 321 -105 309 -103 c 1,2,-1
 309 726 l 1,3,-1
 325 726 l 2,4,5
 412.826 726 412.826 726 442 665 c 0,6,7
 453 642 453 642 453 606 c 2,8,-1
 453 26 l 2,9,10
 453 -38.6061 453 -38.6061 418.766 -71.803 c 128,-1,11
 384.531 -105 384.531 -105 339 -105 c 0,0,1
231.5 389.5 m 0,12,13
 240 384 240 384 257.083 384 c 128,-1,14
 274.167 384 274.167 384 287 395 c 1,15,16
 287 317.05 287 317.05 229 289.5 c 0,17,18
 209 280 209 280 184 280 c 0,19,20
 134.485 280 134.485 280 100.742 314.797 c 128,-1,21
 67 349.594 67 349.594 67 412 c 2,22,-1
 67 726 l 1,23,-1
 84 726 l 2,24,25
 211 726 211 726 211 588 c 2,26,-1
 211 446 l 2,27,28
 211 402.765 211 402.765 231.5 389.5 c 0,12,13
272 -98 m 2,29,30
 272 -139 272 -139 308 -139 c 0,31,32
 325 -139 325 -139 339 -127 c 1,33,34
 343 -137.667 343 -137.667 343 -152.833 c 0,35,36
 343 -186.087 343 -186.087 317.907 -215.543 c 128,-1,37
 292.815 -245 292.815 -245 244.741 -245 c 128,-1,38
 196.667 -245 196.667 -245 169.333 -215.48 c 128,-1,39
 142 -185.96 142 -185.96 142 -151.98 c 0,40,41
 142 -94.5294 142 -94.5294 183 -68 c 0,42,43
 210.818 -50 210.818 -50 252 -50 c 0,44,45
 264 -50 264 -50 272 -52 c 1,46,-1
 272 -98 l 2,29,30
272 139 m 1,47,-1
 67 139 l 1,48,49
 67 221.981 67 221.981 141 253.5 c 0,50,51
 168 265 168 265 208 265 c 2,52,-1
 272 265 l 1,53,-1
 272 139 l 1,47,-1
272 -13 m 1,54,-1
 67 -13 l 1,55,56
 67 69.9815 67 69.9815 141 101.5 c 0,57,58
 168 113 168 113 208 113 c 2,59,-1
 272 113 l 1,60,-1
 272 -13 l 1,54,-1
EndSplineSet
Validated: 524289
EndChar

StartChar: macron
Encoding: 175 175 154
Width: 496
Flags: HW
LayerCount: 2
Fore
SplineSet
441 727 m 1,0,1
 441 641.5 441 641.5 382 612 c 0,2,3
 360 601 360 601 328 601 c 2,4,-1
 55 601 l 1,5,6
 55 683.927 55 683.927 130.5 715.5 c 0,7,8
 158 727 158 727 198 727 c 2,9,-1
 441 727 l 1,0,1
EndSplineSet
Validated: 524289
EndChar

StartChar: oslash
Encoding: 248 248 155
Width: 452
Flags: HW
LayerCount: 2
Fore
SplineSet
197 403 m 1,0,1
 191 415 191 415 191 440.5 c 128,-1,2
 191 466 191 466 218 487 c 128,-1,3
 245 508 245 508 283 508 c 0,4,5
 343 508 343 508 375 477.5 c 128,-1,6
 407 447 407 447 407 390 c 2,7,-1
 407 118 l 2,8,9
 407 55.3077 407 55.3077 362.5 24.5 c 0,10,11
 327.111 2.05611e-06 327.111 2.05611e-06 273 0 c 1,12,-1
 273 352 l 2,13,14
 273 395.235 273 395.235 252.5 408.5 c 0,15,16
 244 414 244 414 226.917 414 c 128,-1,17
 209.833 414 209.833 414 197 403 c 1,0,1
255 105 m 1,18,19
 261 93 261 93 261 67.5 c 128,-1,20
 261 42 261 42 234 21 c 128,-1,21
 207 0 207 0 169 0 c 0,22,23
 109 0 109 0 77 32 c 128,-1,24
 45 64 45 64 45 112 c 2,25,-1
 45 390 l 2,26,27
 45 450.051 45 450.051 85.3571 479.026 c 0,28,29
 125.714 508 125.714 508 179 508 c 1,30,-1
 179 156 l 2,31,32
 179 112.765 179 112.765 199.5 99.5 c 0,33,34
 208 94 208 94 225.083 94 c 128,-1,35
 242.167 94 242.167 94 255 105 c 1,18,19
403 461 m 1,36,37
 391.129 496.612 391.129 496.612 342 513.5 c 0,38,39
 326 519 326 519 308 519 c 2,40,-1
 300 519 l 2,41,42
 296 519 296 519 292 518 c 1,43,-1
 292 560 l 2,44,45
 292 673 292 673 403 673 c 1,46,-1
 403 461 l 1,36,37
51 37 m 1,47,48
 55.0442 16.7788 55.0442 16.7788 83.9339 -2.11062 c 0,49,50
 112.824 -21 112.824 -21 146 -21 c 2,51,-1
 154 -21 l 2,52,53
 158 -21 158 -21 162 -20 c 1,54,-1
 162 -62 l 2,55,56
 162 -151.122 162 -151.122 93.5 -169.5 c 0,57,58
 73 -175 73 -175 51 -175 c 1,59,-1
 51 37 l 1,47,48
EndSplineSet
Validated: 524289
EndChar

StartChar: ccedilla
Encoding: 231 231 156
Width: 436
Flags: HW
LayerCount: 2
Fore
SplineSet
179 0 m 1,0,-1
 170 0 l 2,1,2
 86 0 86 0 56 60 c 0,3,4
 45 82 45 82 45 114 c 2,5,-1
 45 390 l 2,6,7
 45 508 45 508 179 508 c 1,8,-1
 179 0 l 1,0,-1
272 358 m 2,9,10
 272 411.077 272 411.077 233.401 411.077 c 0,11,12
 215.508 411.077 215.508 411.077 200 400 c 1,13,14
 193 414 193 414 193 438 c 128,-1,15
 193 462 193 462 219 485 c 128,-1,16
 245 508 245 508 291 508 c 2,17,-1
 298 508 l 1,18,19
 337.667 505.667 337.667 505.667 359.333 488.333 c 0,20,21
 400 455.8 400 455.8 400 402.986 c 128,-1,22
 400 350.171 400 350.171 351.5 328 c 0,23,24
 334 320 334 320 310.5 320 c 128,-1,25
 287 320 287 320 272 324 c 1,26,-1
 272 358 l 2,9,10
230.817 96.9231 m 0,27,28
 272 96.9231 272 96.9231 272 150 c 2,29,-1
 272 184 l 1,30,31
 287 188 287 188 310.5 188 c 128,-1,32
 334 188 334 188 351.5 180 c 128,-1,33
 369 172 369 172 380 159 c 128,-1,34
 391 146 391 146 395.5 129.5 c 128,-1,35
 400 113 400 113 400 93 c 0,36,37
 400 52.2 400 52.2 368.833 27.2667 c 128,-1,38
 337.667 2.33333 337.667 2.33333 298 0 c 1,39,-1
 291 0 l 2,40,41
 245 0 245 0 219 23 c 128,-1,42
 193 46 193 46 193 70 c 128,-1,43
 193 94 193 94 200 108 c 1,44,45
 212 96.9231 212 96.9231 230.817 96.9231 c 0,27,28
178 -12 m 1,46,47
 197.2 -20 197.2 -20 239.6 -20 c 128,-1,48
 282 -20 282 -20 303 -17 c 1,49,-1
 303 -82 l 2,50,51
 303 -167.756 303 -167.756 248.5 -197 c 0,52,53
 228 -208 228 -208 188.5 -208 c 128,-1,54
 149 -208 149 -208 127 -183.5 c 128,-1,55
 105 -159 105 -159 105 -127 c 0,56,57
 105 -113 105 -113 111 -89 c 1,58,59
 114 -98 114 -98 123.5 -102.5 c 128,-1,60
 133 -107 133 -107 141 -107 c 0,61,62
 178 -107 178 -107 178 -62 c 2,63,-1
 178 -12 l 1,46,47
EndSplineSet
Validated: 524289
EndChar

StartChar: mu
Encoding: 181 181 157
AltUni2: 0003bc.ffffffff.0
Width: 462
Flags: HW
LayerCount: 2
Fore
SplineSet
189 149 m 1,0,1
 191.65 96.0001 191.65 96.0001 229.583 96 c 0,2,3
 252.167 96 252.167 96 265 107 c 1,4,5
 271 95 271 95 271 71 c 128,-1,6
 271 47 271 47 249 25.5 c 128,-1,7
 227 4 227 4 189 0 c 1,8,-1
 189 -249 l 1,9,-1
 178 -249 l 2,10,11
 126 -249 126 -249 90.5 -221.5 c 128,-1,12
 55 -194 55 -194 55 -132 c 2,13,-1
 55 508 l 1,14,-1
 71 508 l 2,15,16
 129 508 129 508 159 476 c 128,-1,17
 189 444 189 444 189 393 c 2,18,-1
 189 149 l 1,0,1
417 0 m 1,19,-1
 406 0 l 2,20,21
 353 0 353 0 318 28.5 c 128,-1,22
 283 57 283 57 283 119 c 2,23,-1
 283 508 l 1,24,-1
 289 508 l 2,25,26
 339.185 508 339.185 508 378.093 479.608 c 128,-1,27
 417 451.216 417 451.216 417 393 c 2,28,-1
 417 0 l 1,19,-1
EndSplineSet
Validated: 524289
EndChar

StartChar: thorn
Encoding: 254 254 158
Width: 452
Flags: HW
LayerCount: 2
Fore
SplineSet
50 759 m 1,0,-1
 55 759 l 2,1,2
 109.231 759 109.231 759 138 737 c 0,3,4
 176 707.941 176 707.941 176 639 c 2,5,-1
 176 -133 l 2,6,7
 176 -230.333 176 -230.333 106 -247 c 0,8,9
 85 -252 85 -252 60 -252 c 2,10,-1
 50 -252 l 1,11,-1
 50 759 l 1,0,-1
197 403 m 1,12,13
 191 415 191 415 191 440.5 c 128,-1,14
 191 466 191 466 218 487 c 128,-1,15
 245 508 245 508 283 508 c 0,16,17
 343 508 343 508 375 477 c 128,-1,18
 407 446 407 446 407 398 c 2,19,-1
 407 132 l 2,20,21
 407 0 407 0 283 0 c 0,22,23
 245 0 245 0 218 21 c 128,-1,24
 191 42 191 42 191 74 c 0,25,26
 191 91 191 91 198 105 c 1,27,28
 211 94 211 94 230 94 c 128,-1,29
 249 94 249 94 261 110 c 128,-1,30
 273 126 273 126 273 159 c 2,31,-1
 273 360 l 2,32,33
 273 414 273 414 233 414 c 0,34,35
 211 414 211 414 197 403 c 1,12,13
EndSplineSet
Validated: 524289
EndChar

StartChar: Agrave
Encoding: 192 192 159
Width: 485
Flags: HW
LayerCount: 2
Fore
SplineSet
184 0 m 2,0,1
 91 0 91 0 61.5 59 c 0,2,3
 50 82 50 82 50 119 c 2,4,-1
 50 606 l 2,5,6
 50 669 50 669 99 700.5 c 0,7,8
 138.667 726 138.667 726 194 726 c 1,9,-1
 194 0 l 1,10,-1
 184 0 l 2,0,1
204 416 m 1,11,-1
 285 416 l 1,12,13
 285 375 285 375 270 347.5 c 128,-1,14
 255 320 255 320 209 320 c 2,15,-1
 204 320 l 1,16,-1
 204 416 l 1,11,-1
292 559 m 2,17,18
 292 603.529 292 603.529 271.5 618 c 0,19,20
 263 624 263 624 246 624 c 128,-1,21
 229 624 229 624 216 612 c 1,22,23
 210 628 210 628 210 642.5 c 0,24,25
 210 677 210 677 235 702 c 128,-1,26
 260 727 260 727 299.5 727 c 0,27,28
 367.838 727 367.838 727 401.419 688.172 c 128,-1,29
 435 649.344 435 649.344 435 592 c 2,30,-1
 435 0 l 1,31,32
 370.12 0 370.12 0 343.06 16.5 c 128,-1,33
 316 33 316 33 304 58 c 128,-1,34
 292 83 292 83 292 125 c 2,35,-1
 292 559 l 2,17,18
256 770 m 2,36,37
 190.857 770 190.857 770 168 818 c 0,38,39
 153 849.5 153 849.5 153 912 c 1,40,-1
 229 912 l 2,41,42
 292 912 292 912 316.5 863 c 0,43,44
 332 832 332 832 332 770 c 1,45,-1
 256 770 l 2,36,37
EndSplineSet
Validated: 524289
EndChar

StartChar: Aacute
Encoding: 193 193 160
Width: 485
Flags: HW
LayerCount: 2
Fore
SplineSet
184 0 m 2,0,1
 91 0 91 0 61.5 59 c 0,2,3
 50 82 50 82 50 119 c 2,4,-1
 50 606 l 2,5,6
 50 669 50 669 99 700.5 c 0,7,8
 138.667 726 138.667 726 194 726 c 1,9,-1
 194 0 l 1,10,-1
 184 0 l 2,0,1
204 416 m 1,11,-1
 285 416 l 1,12,13
 285 375 285 375 270 347.5 c 128,-1,14
 255 320 255 320 209 320 c 2,15,-1
 204 320 l 1,16,-1
 204 416 l 1,11,-1
292 559 m 2,17,18
 292 603.529 292 603.529 271.5 618 c 0,19,20
 263 624 263 624 246 624 c 128,-1,21
 229 624 229 624 216 612 c 1,22,23
 210 628 210 628 210 642.5 c 0,24,25
 210 677 210 677 235 702 c 128,-1,26
 260 727 260 727 299.5 727 c 0,27,28
 367.838 727 367.838 727 401.419 688.172 c 128,-1,29
 435 649.344 435 649.344 435 592 c 2,30,-1
 435 0 l 1,31,32
 370.12 0 370.12 0 343.06 16.5 c 128,-1,33
 316 33 316 33 304 58 c 128,-1,34
 292 83 292 83 292 125 c 2,35,-1
 292 559 l 2,17,18
153 780 m 1,36,37
 153 842 153 842 166 868 c 128,-1,38
 179 894 179 894 199.5 908 c 128,-1,39
 220 922 220 922 256 922 c 2,40,-1
 332 922 l 1,41,42
 332 859.5 332 859.5 319.5 833.25 c 0,43,44
 294.143 780 294.143 780 229 780 c 2,45,-1
 153 780 l 1,36,37
EndSplineSet
Validated: 524289
EndChar

StartChar: Acircumflex
Encoding: 194 194 161
Width: 485
Flags: HW
LayerCount: 2
Fore
SplineSet
366 852 m 2,0,1
 392 837.143 392 837.143 392 811.071 c 128,-1,2
 392 785 392 785 379.5 766.5 c 128,-1,3
 367 748 367 748 344 743 c 1,4,-1
 268 785 l 1,5,-1
 194 743 l 1,6,7
 168 750 168 750 156 767 c 128,-1,8
 144 784 144 784 144 800.5 c 0,9,10
 144 836.462 144 836.462 171 851 c 2,11,-1
 268 905 l 1,12,-1
 366 852 l 2,0,1
184 0 m 2,13,14
 91 0 91 0 61.5 59 c 0,15,16
 50 82 50 82 50 119 c 2,17,-1
 50 606 l 2,18,19
 50 669 50 669 99 700.5 c 0,20,21
 138.667 726 138.667 726 194 726 c 1,22,-1
 194 0 l 1,23,-1
 184 0 l 2,13,14
204 416 m 1,24,-1
 285 416 l 1,25,26
 285 375 285 375 270 347.5 c 128,-1,27
 255 320 255 320 209 320 c 2,28,-1
 204 320 l 1,29,-1
 204 416 l 1,24,-1
292 559 m 2,30,31
 292 603.529 292 603.529 271.5 618 c 0,32,33
 263 624 263 624 246 624 c 128,-1,34
 229 624 229 624 216 612 c 1,35,36
 210 628 210 628 210 642.5 c 0,37,38
 210 677 210 677 235 702 c 128,-1,39
 260 727 260 727 299.5 727 c 0,40,41
 367.838 727 367.838 727 401.419 688.172 c 128,-1,42
 435 649.344 435 649.344 435 592 c 2,43,-1
 435 0 l 1,44,45
 370.12 0 370.12 0 343.06 16.5 c 128,-1,46
 316 33 316 33 304 58 c 128,-1,47
 292 83 292 83 292 125 c 2,48,-1
 292 559 l 2,30,31
EndSplineSet
Validated: 524289
EndChar

StartChar: Atilde
Encoding: 195 195 162
Width: 485
Flags: HW
LayerCount: 2
Fore
SplineSet
292 559 m 2,0,1
 292 603.529 292 603.529 271.5 618 c 0,2,3
 263 624 263 624 246 624 c 128,-1,4
 229 624 229 624 216 612 c 1,5,6
 210 628 210 628 210 642.5 c 0,7,8
 210 677 210 677 235 702 c 128,-1,9
 260 727 260 727 299.5 727 c 0,10,11
 367.838 727 367.838 727 401.419 688.172 c 128,-1,12
 435 649.344 435 649.344 435 592 c 2,13,-1
 435 0 l 1,14,15
 370.12 0 370.12 0 343.06 16.5 c 128,-1,16
 316 33 316 33 304 58 c 128,-1,17
 292 83 292 83 292 125 c 2,18,-1
 292 559 l 2,0,1
184 0 m 2,19,20
 91 0 91 0 61.5 59 c 0,21,22
 50 82 50 82 50 119 c 2,23,-1
 50 606 l 2,24,25
 50 669 50 669 99 700.5 c 0,26,27
 138.667 726 138.667 726 194 726 c 1,28,-1
 194 0 l 1,29,-1
 184 0 l 2,19,20
306 870 m 256,30,31
 341.533 870 341.533 870 371 896 c 1,32,33
 395 860 395 860 395 828.5 c 128,-1,34
 395 797 395 797 373 773 c 128,-1,35
 351 749 351 749 309 749 c 2,36,-1
 300 749 l 2,37,38
 284 749 284 749 257 758 c 2,39,-1
 227.5 767.5 l 2,40,41
 190.444 779 190.444 779 169 779 c 0,42,43
 130.5 779 130.5 779 106 744 c 1,44,45
 87 772 87 772 87 797 c 0,46,47
 87 843.111 87 843.111 116.1 870.056 c 128,-1,48
 145.2 897 145.2 897 184 897 c 256,49,50
 214.636 897 214.636 897 249 883.5 c 128,-1,51
 283.364 870 283.364 870 306 870 c 256,30,31
204 416 m 1,52,-1
 285 416 l 1,53,54
 285 375 285 375 270 347.5 c 128,-1,55
 255 320 255 320 209 320 c 2,56,-1
 204 320 l 1,57,-1
 204 416 l 1,52,-1
EndSplineSet
Validated: 524289
EndChar

StartChar: Adieresis
Encoding: 196 196 163
Width: 485
Flags: HW
LayerCount: 2
Fore
SplineSet
184 0 m 2,0,1
 91 0 91 0 61.5 59 c 0,2,3
 50 82 50 82 50 119 c 2,4,-1
 50 606 l 2,5,6
 50 669 50 669 99 700.5 c 0,7,8
 138.667 726 138.667 726 194 726 c 1,9,-1
 194 0 l 1,10,-1
 184 0 l 2,0,1
204 416 m 1,11,-1
 285 416 l 1,12,13
 285 375 285 375 270 347.5 c 128,-1,14
 255 320 255 320 209 320 c 2,15,-1
 204 320 l 1,16,-1
 204 416 l 1,11,-1
292 559 m 2,17,18
 292 603.529 292 603.529 271.5 618 c 0,19,20
 263 624 263 624 246 624 c 128,-1,21
 229 624 229 624 216 612 c 1,22,23
 210 628 210 628 210 642.5 c 0,24,25
 210 677 210 677 235 702 c 128,-1,26
 260 727 260 727 299.5 727 c 0,27,28
 367.838 727 367.838 727 401.419 688.172 c 128,-1,29
 435 649.344 435 649.344 435 592 c 2,30,-1
 435 0 l 1,31,32
 370.12 0 370.12 0 343.06 16.5 c 128,-1,33
 316 33 316 33 304 58 c 128,-1,34
 292 83 292 83 292 125 c 2,35,-1
 292 559 l 2,17,18
94 822 m 256,36,37
 94 851 94 851 114.5 871.5 c 128,-1,38
 135 892 135 892 164 892 c 256,39,40
 193 892 193 892 213.5 871.5 c 128,-1,41
 234 851 234 851 234 822 c 256,42,43
 234 793 234 793 213.5 773 c 128,-1,44
 193 753 193 753 164 753 c 256,45,46
 135 753 135 753 114.5 773 c 128,-1,47
 94 793 94 793 94 822 c 256,36,37
250 822 m 256,48,49
 250 851 250 851 271 871.5 c 128,-1,50
 292 892 292 892 321 892 c 256,51,52
 350 892 350 892 370 871.5 c 128,-1,53
 390 851 390 851 390 822 c 256,54,55
 390 793 390 793 370 773 c 128,-1,56
 350 753 350 753 321 753 c 256,57,58
 292 753 292 753 271 773 c 128,-1,59
 250 793 250 793 250 822 c 256,48,49
EndSplineSet
Validated: 524289
EndChar

StartChar: Aring
Encoding: 197 197 164
Width: 485
Flags: HW
LayerCount: 2
Fore
SplineSet
197 845 m 2,0,1
 197 813 197 813 216.667 813 c 0,2,3
 229.333 813 229.333 813 236 818 c 1,4,5
 239 810 239 810 239 796.5 c 128,-1,6
 239 783 239 783 224 769.5 c 128,-1,7
 209 756 209 756 179.5 756 c 128,-1,8
 150 756 150 756 134 777 c 128,-1,9
 118 798 118 798 118 824 c 2,10,-1
 118 890 l 2,11,12
 118 919 118 919 135 938.5 c 128,-1,13
 152 958 152 958 182.5 958 c 128,-1,14
 213 958 213 958 225.5 942 c 128,-1,15
 238 926 238 926 238 913 c 128,-1,16
 238 900 238 900 236 897 c 1,17,18
 229 902 229 902 219 902 c 0,19,20
 197 902 197 902 197 877 c 2,21,-1
 197 845 l 2,0,1
247 818 m 1,22,23
 253.667 813 253.667 813 266.333 813 c 0,24,25
 286 813 286 813 286 845 c 2,26,-1
 286 877 l 2,27,28
 286 902 286 902 264 902 c 0,29,30
 254 902 254 902 247 897 c 1,31,32
 245 900 245 900 245 913 c 128,-1,33
 245 926 245 926 257 942 c 128,-1,34
 269 958 269 958 300 958 c 128,-1,35
 331 958 331 958 348 938.5 c 128,-1,36
 365 919 365 919 365 890 c 2,37,-1
 365 824 l 2,38,39
 365 798 365 798 349 777 c 128,-1,40
 333 756 333 756 303.5 756 c 128,-1,41
 274 756 274 756 259 769.5 c 128,-1,42
 244 783 244 783 244 796.5 c 128,-1,43
 244 810 244 810 247 818 c 1,22,23
184 0 m 2,44,45
 91 0 91 0 61.5 59 c 0,46,47
 50 82 50 82 50 119 c 2,48,-1
 50 606 l 2,49,50
 50 669 50 669 99 700.5 c 0,51,52
 138.667 726 138.667 726 194 726 c 1,53,-1
 194 0 l 1,54,-1
 184 0 l 2,44,45
204 416 m 1,55,-1
 285 416 l 1,56,57
 285 375 285 375 270 347.5 c 128,-1,58
 255 320 255 320 209 320 c 2,59,-1
 204 320 l 1,60,-1
 204 416 l 1,55,-1
292 559 m 2,61,62
 292 603.529 292 603.529 271.5 618 c 0,63,64
 263 624 263 624 246 624 c 128,-1,65
 229 624 229 624 216 612 c 1,66,67
 210 628 210 628 210 642.5 c 0,68,69
 210 677 210 677 235 702 c 128,-1,70
 260 727 260 727 299.5 727 c 0,71,72
 367.838 727 367.838 727 401.419 688.172 c 128,-1,73
 435 649.344 435 649.344 435 592 c 2,74,-1
 435 0 l 1,75,76
 370.12 0 370.12 0 343.06 16.5 c 128,-1,77
 316 33 316 33 304 58 c 128,-1,78
 292 83 292 83 292 125 c 2,79,-1
 292 559 l 2,61,62
EndSplineSet
Validated: 524289
EndChar

StartChar: Egrave
Encoding: 200 200 165
Width: 438
Flags: HW
LayerCount: 2
Fore
SplineSet
194 0 m 1,0,-1
 184 0 l 2,1,2
 91 0 91 0 61.5 59 c 0,3,4
 50 82 50 82 50 119 c 2,5,-1
 50 606 l 2,6,7
 50 671.5 50 671.5 86.3333 698.75 c 128,-1,8
 122.667 726 122.667 726 178 726 c 2,9,-1
 194 726 l 1,10,-1
 194 0 l 1,0,-1
215 416 m 1,11,-1
 304 416 l 1,12,13
 304 365.684 304 365.684 291 345.842 c 128,-1,14
 278 326 278 326 262 318 c 128,-1,15
 246 310 246 310 221 310 c 2,16,-1
 215 310 l 1,17,-1
 215 416 l 1,11,-1
304 195 m 0,18,19
 371.154 195 371.154 195 401 146.5 c 0,20,21
 413 127 413 127 413 103 c 0,22,23
 413 57.4615 413 57.4615 385.333 28.7308 c 128,-1,24
 357.667 0 357.667 0 311 0 c 0,25,26
 248.656 0 248.656 0 220.5 53 c 0,27,28
 212 69 212 69 212 88.1667 c 128,-1,29
 212 107.333 212 107.333 216 118 c 1,30,31
 229 106 229 106 246 106 c 0,32,33
 283 106 283 106 283 144 c 2,34,-1
 283 193 l 1,35,36
 291 195 291 195 304 195 c 0,18,19
283 580 m 2,37,38
 283 621 283 621 246.5 621 c 0,39,40
 229 621 229 621 216 609 c 1,41,42
 212 619.667 212 619.667 212 634.833 c 0,43,44
 212 668.087 212 668.087 237.093 697.543 c 128,-1,45
 262.185 727 262.185 727 309 727 c 0,46,47
 376.571 727 376.571 727 404.5 669.5 c 0,48,49
 413 652 413 652 413 625.5 c 0,50,51
 413 576.529 413 576.529 372 550 c 0,52,53
 344.182 532 344.182 532 303 532 c 0,54,55
 291 532 291 532 283 534 c 1,56,-1
 283 580 l 2,37,38
230 770 m 2,57,58
 164.857 770 164.857 770 142 818 c 0,59,60
 127 849.5 127 849.5 127 912 c 1,61,-1
 203 912 l 2,62,63
 266 912 266 912 290.5 863 c 0,64,65
 306 832 306 832 306 770 c 1,66,-1
 230 770 l 2,57,58
EndSplineSet
Validated: 524289
EndChar

StartChar: Eacute
Encoding: 201 201 166
Width: 438
Flags: HW
LayerCount: 2
Fore
SplineSet
194 0 m 1,0,-1
 184 0 l 2,1,2
 91 0 91 0 61.5 59 c 0,3,4
 50 82 50 82 50 119 c 2,5,-1
 50 606 l 2,6,7
 50 671.5 50 671.5 86.3333 698.75 c 128,-1,8
 122.667 726 122.667 726 178 726 c 2,9,-1
 194 726 l 1,10,-1
 194 0 l 1,0,-1
215 416 m 1,11,-1
 304 416 l 1,12,13
 304 365.684 304 365.684 291 345.842 c 128,-1,14
 278 326 278 326 262 318 c 128,-1,15
 246 310 246 310 221 310 c 2,16,-1
 215 310 l 1,17,-1
 215 416 l 1,11,-1
304 195 m 0,18,19
 371.154 195 371.154 195 401 146.5 c 0,20,21
 413 127 413 127 413 103 c 0,22,23
 413 57.4615 413 57.4615 385.333 28.7308 c 128,-1,24
 357.667 0 357.667 0 311 0 c 0,25,26
 248.656 0 248.656 0 220.5 53 c 0,27,28
 212 69 212 69 212 88.1667 c 128,-1,29
 212 107.333 212 107.333 216 118 c 1,30,31
 229 106 229 106 246 106 c 0,32,33
 283 106 283 106 283 144 c 2,34,-1
 283 193 l 1,35,36
 291 195 291 195 304 195 c 0,18,19
283 580 m 2,37,38
 283 621 283 621 246.5 621 c 0,39,40
 229 621 229 621 216 609 c 1,41,42
 212 619.667 212 619.667 212 634.833 c 0,43,44
 212 668.087 212 668.087 237.093 697.543 c 128,-1,45
 262.185 727 262.185 727 309 727 c 0,46,47
 376.571 727 376.571 727 404.5 669.5 c 0,48,49
 413 652 413 652 413 625.5 c 0,50,51
 413 576.529 413 576.529 372 550 c 0,52,53
 344.182 532 344.182 532 303 532 c 0,54,55
 291 532 291 532 283 534 c 1,56,-1
 283 580 l 2,37,38
156 770 m 1,57,58
 156 832 156 832 169 858 c 128,-1,59
 182 884 182 884 202.5 898 c 128,-1,60
 223 912 223 912 259 912 c 2,61,-1
 335 912 l 1,62,63
 335 849.5 335 849.5 322.5 823.25 c 0,64,65
 297.143 770 297.143 770 232 770 c 2,66,-1
 156 770 l 1,57,58
EndSplineSet
Validated: 524289
EndChar

StartChar: Edieresis
Encoding: 203 203 167
Width: 438
Flags: HW
LayerCount: 2
Fore
SplineSet
194 0 m 1,0,-1
 184 0 l 2,1,2
 91 0 91 0 61.5 59 c 0,3,4
 50 82 50 82 50 119 c 2,5,-1
 50 606 l 2,6,7
 50 671.5 50 671.5 86.3333 698.75 c 128,-1,8
 122.667 726 122.667 726 178 726 c 2,9,-1
 194 726 l 1,10,-1
 194 0 l 1,0,-1
215 416 m 1,11,-1
 304 416 l 1,12,13
 304 365.684 304 365.684 291 345.842 c 128,-1,14
 278 326 278 326 262 318 c 128,-1,15
 246 310 246 310 221 310 c 2,16,-1
 215 310 l 1,17,-1
 215 416 l 1,11,-1
304 195 m 0,18,19
 371.154 195 371.154 195 401 146.5 c 0,20,21
 413 127 413 127 413 103 c 0,22,23
 413 57.4615 413 57.4615 385.333 28.7308 c 128,-1,24
 357.667 0 357.667 0 311 0 c 0,25,26
 248.656 0 248.656 0 220.5 53 c 0,27,28
 212 69 212 69 212 88.1667 c 128,-1,29
 212 107.333 212 107.333 216 118 c 1,30,31
 229 106 229 106 246 106 c 0,32,33
 283 106 283 106 283 144 c 2,34,-1
 283 193 l 1,35,36
 291 195 291 195 304 195 c 0,18,19
283 580 m 2,37,38
 283 621 283 621 246.5 621 c 0,39,40
 229 621 229 621 216 609 c 1,41,42
 212 619.667 212 619.667 212 634.833 c 0,43,44
 212 668.087 212 668.087 237.093 697.543 c 128,-1,45
 262.185 727 262.185 727 309 727 c 0,46,47
 376.571 727 376.571 727 404.5 669.5 c 0,48,49
 413 652 413 652 413 625.5 c 0,50,51
 413 576.529 413 576.529 372 550 c 0,52,53
 344.182 532 344.182 532 303 532 c 0,54,55
 291 532 291 532 283 534 c 1,56,-1
 283 580 l 2,37,38
88 839 m 256,57,58
 88 868 88 868 108.5 888.5 c 128,-1,59
 129 909 129 909 158 909 c 256,60,61
 187 909 187 909 207.5 888.5 c 128,-1,62
 228 868 228 868 228 839 c 256,63,64
 228 810 228 810 207.5 790 c 128,-1,65
 187 770 187 770 158 770 c 256,66,67
 129 770 129 770 108.5 790 c 128,-1,68
 88 810 88 810 88 839 c 256,57,58
244 839 m 256,69,70
 244 868 244 868 265 888.5 c 128,-1,71
 286 909 286 909 315 909 c 256,72,73
 344 909 344 909 364 888.5 c 128,-1,74
 384 868 384 868 384 839 c 256,75,76
 384 810 384 810 364 790 c 128,-1,77
 344 770 344 770 315 770 c 256,78,79
 286 770 286 770 265 790 c 128,-1,80
 244 810 244 810 244 839 c 256,69,70
EndSplineSet
Validated: 524289
EndChar

StartChar: Igrave
Encoding: 204 204 168
Width: 279
Flags: HW
LayerCount: 2
Fore
SplineSet
212 0 m 1,0,-1
 202 0 l 2,1,2
 109 0 109 0 79.5 59 c 0,3,4
 68 82 68 82 68 119 c 2,5,-1
 68 726 l 1,6,-1
 84 726 l 2,7,8
 171.826 726 171.826 726 201 665 c 0,9,10
 212 642 212 642 212 606 c 2,11,-1
 212 0 l 1,0,-1
153 770 m 2,12,13
 87.8571 770 87.8571 770 65 818 c 0,14,15
 50 849.5 50 849.5 50 912 c 1,16,-1
 126 912 l 2,17,18
 189 912 189 912 213.5 863 c 0,19,20
 229 832 229 832 229 770 c 1,21,-1
 153 770 l 2,12,13
EndSplineSet
Validated: 524289
EndChar

StartChar: Iacute
Encoding: 205 205 169
Width: 279
Flags: HW
LayerCount: 2
Fore
SplineSet
195 0 m 1,0,-1
 185 0 l 2,1,2
 92 0 92 0 62.5 59 c 0,3,4
 51 82 51 82 51 119 c 2,5,-1
 51 726 l 1,6,-1
 67 726 l 2,7,8
 154.826 726 154.826 726 184 665 c 0,9,10
 195 642 195 642 195 606 c 2,11,-1
 195 0 l 1,0,-1
50 770 m 1,12,13
 50 832 50 832 63 858 c 128,-1,14
 76 884 76 884 96.5 898 c 128,-1,15
 117 912 117 912 153 912 c 2,16,-1
 229 912 l 1,17,18
 229 849.5 229 849.5 216.5 823.25 c 0,19,20
 191.143 770 191.143 770 126 770 c 2,21,-1
 50 770 l 1,12,13
EndSplineSet
Validated: 524289
EndChar

StartChar: Idieresis
Encoding: 207 207 170
Width: 296
Flags: HW
LayerCount: 2
Fore
SplineSet
221 0 m 1,0,-1
 211 0 l 2,1,2
 118 0 118 0 88.5 59 c 0,3,4
 77 82 77 82 77 119 c 2,5,-1
 77 726 l 1,6,-1
 93 726 l 2,7,8
 180.826 726 180.826 726 210 665 c 0,9,10
 221 642 221 642 221 606 c 2,11,-1
 221 0 l 1,0,-1
0 842 m 256,12,13
 0 871 0 871 20.5 891.5 c 128,-1,14
 41 912 41 912 70 912 c 256,15,16
 99 912 99 912 119.5 891.5 c 128,-1,17
 140 871 140 871 140 842 c 256,18,19
 140 813 140 813 119.5 793 c 128,-1,20
 99 773 99 773 70 773 c 256,21,22
 41 773 41 773 20.5 793 c 128,-1,23
 0 813 0 813 0 842 c 256,12,13
156 842 m 256,24,25
 156 871 156 871 177 891.5 c 128,-1,26
 198 912 198 912 227 912 c 256,27,28
 256 912 256 912 276 891.5 c 128,-1,29
 296 871 296 871 296 842 c 256,30,31
 296 813 296 813 276 793 c 128,-1,32
 256 773 256 773 227 773 c 256,33,34
 198 773 198 773 177 793 c 128,-1,35
 156 813 156 813 156 842 c 256,24,25
EndSplineSet
Validated: 524289
EndChar

StartChar: Ograve
Encoding: 210 210 171
Width: 484
Flags: HW
LayerCount: 2
Fore
SplineSet
291 559 m 2,0,1
 291 603.529 291 603.529 270.5 618 c 0,2,3
 262 624 262 624 245 624 c 128,-1,4
 228 624 228 624 215 612 c 1,5,6
 209 628 209 628 209 642.5 c 0,7,8
 209 677 209 677 234 702 c 128,-1,9
 259 727 259 727 313.5 727 c 128,-1,10
 368 727 368 727 401 691 c 128,-1,11
 434 655 434 655 434 592 c 2,12,-1
 434 125 l 2,13,14
 434 18.1961 434 18.1961 343.5 4 c 0,15,16
 318 0 318 0 291 0 c 1,17,-1
 291 559 l 2,0,1
269 116 m 1,18,19
 275 100 275 100 275 85.5 c 0,20,21
 275 51 275 51 250 26 c 128,-1,22
 225 1 225 1 170.5 1 c 128,-1,23
 116 1 116 1 83 37 c 128,-1,24
 50 73 50 73 50 136 c 2,25,-1
 50 603 l 2,26,27
 50 709.804 50 709.804 140.5 724 c 0,28,29
 166 728 166 728 193 728 c 1,30,-1
 193 169 l 2,31,32
 193 124.471 193 124.471 213.5 110 c 0,33,34
 222 104 222 104 238.5 104 c 128,-1,35
 255 104 255 104 269 116 c 1,18,19
248 771 m 2,36,37
 182.857 771 182.857 771 160 819 c 0,38,39
 145 850.5 145 850.5 145 913 c 1,40,-1
 221 913 l 2,41,42
 284 913 284 913 308.5 864 c 0,43,44
 324 833 324 833 324 771 c 1,45,-1
 248 771 l 2,36,37
EndSplineSet
Validated: 524289
EndChar

StartChar: Oacute
Encoding: 211 211 172
Width: 484
Flags: HW
LayerCount: 2
Fore
SplineSet
291 559 m 2,0,1
 291 603.529 291 603.529 270.5 618 c 0,2,3
 262 624 262 624 245 624 c 128,-1,4
 228 624 228 624 215 612 c 1,5,6
 209 628 209 628 209 642.5 c 0,7,8
 209 677 209 677 234 702 c 128,-1,9
 259 727 259 727 313.5 727 c 128,-1,10
 368 727 368 727 401 691 c 128,-1,11
 434 655 434 655 434 592 c 2,12,-1
 434 125 l 2,13,14
 434 18.1961 434 18.1961 343.5 4 c 0,15,16
 318 0 318 0 291 0 c 1,17,-1
 291 559 l 2,0,1
269 116 m 1,18,19
 275 100 275 100 275 85.5 c 0,20,21
 275 51 275 51 250 26 c 128,-1,22
 225 1 225 1 170.5 1 c 128,-1,23
 116 1 116 1 83 37 c 128,-1,24
 50 73 50 73 50 136 c 2,25,-1
 50 603 l 2,26,27
 50 709.804 50 709.804 140.5 724 c 0,28,29
 166 728 166 728 193 728 c 1,30,-1
 193 169 l 2,31,32
 193 124.471 193 124.471 213.5 110 c 0,33,34
 222 104 222 104 238.5 104 c 128,-1,35
 255 104 255 104 269 116 c 1,18,19
175 770 m 1,36,37
 175 832 175 832 188 858 c 128,-1,38
 201 884 201 884 221.5 898 c 128,-1,39
 242 912 242 912 278 912 c 2,40,-1
 354 912 l 1,41,42
 354 849.5 354 849.5 341.5 823.25 c 0,43,44
 316.143 770 316.143 770 251 770 c 2,45,-1
 175 770 l 1,36,37
EndSplineSet
Validated: 524289
EndChar

StartChar: Ugrave
Encoding: 217 217 173
Width: 485
Flags: HW
LayerCount: 2
Fore
SplineSet
269 116 m 1,0,1
 275 100 275 100 275 85.5 c 0,2,3
 275 51 275 51 250 26 c 128,-1,4
 225 1 225 1 170.5 1 c 128,-1,5
 116 1 116 1 83 37 c 128,-1,6
 50 73 50 73 50 136 c 2,7,-1
 50 728 l 1,8,9
 114.88 728 114.88 728 141.94 711.5 c 128,-1,10
 169 695 169 695 181 670 c 128,-1,11
 193 645 193 645 193 603 c 2,12,-1
 193 169 l 2,13,14
 193 124.471 193 124.471 213.5 110 c 0,15,16
 222 104 222 104 238.5 104 c 128,-1,17
 255 104 255 104 269 116 c 1,0,1
435 0 m 1,18,-1
 425 0 l 2,19,20
 332 0 332 0 302.5 59 c 0,21,22
 291 82 291 82 291 119 c 2,23,-1
 291 726 l 1,24,-1
 307 726 l 2,25,26
 394.826 726 394.826 726 424 665 c 0,27,28
 435 642 435 642 435 606 c 2,29,-1
 435 0 l 1,18,-1
236 770 m 2,30,31
 170.857 770 170.857 770 148 818 c 0,32,33
 133 849.5 133 849.5 133 912 c 1,34,-1
 209 912 l 2,35,36
 272 912 272 912 296.5 863 c 0,37,38
 312 832 312 832 312 770 c 1,39,-1
 236 770 l 2,30,31
EndSplineSet
Validated: 524289
EndChar

StartChar: Uacute
Encoding: 218 218 174
Width: 485
Flags: HW
LayerCount: 2
Fore
SplineSet
269 116 m 1,0,1
 275 100 275 100 275 85.5 c 0,2,3
 275 51 275 51 250 26 c 128,-1,4
 225 1 225 1 170.5 1 c 128,-1,5
 116 1 116 1 83 37 c 128,-1,6
 50 73 50 73 50 136 c 2,7,-1
 50 728 l 1,8,9
 114.88 728 114.88 728 141.94 711.5 c 128,-1,10
 169 695 169 695 181 670 c 128,-1,11
 193 645 193 645 193 603 c 2,12,-1
 193 169 l 2,13,14
 193 124.471 193 124.471 213.5 110 c 0,15,16
 222 104 222 104 238.5 104 c 128,-1,17
 255 104 255 104 269 116 c 1,0,1
435 0 m 1,18,-1
 425 0 l 2,19,20
 332 0 332 0 302.5 59 c 0,21,22
 291 82 291 82 291 119 c 2,23,-1
 291 726 l 1,24,-1
 307 726 l 2,25,26
 394.826 726 394.826 726 424 665 c 0,27,28
 435 642 435 642 435 606 c 2,29,-1
 435 0 l 1,18,-1
153 770 m 1,30,31
 153 832 153 832 166 858 c 128,-1,32
 179 884 179 884 199.5 898 c 128,-1,33
 220 912 220 912 256 912 c 2,34,-1
 332 912 l 1,35,36
 332 849.5 332 849.5 319.5 823.25 c 0,37,38
 294.143 770 294.143 770 229 770 c 2,39,-1
 153 770 l 1,30,31
EndSplineSet
Validated: 524289
EndChar

StartChar: Udieresis
Encoding: 220 220 175
Width: 485
Flags: HW
LayerCount: 2
Fore
SplineSet
269 116 m 1,0,1
 275 100 275 100 275 85.5 c 0,2,3
 275 51 275 51 250 26 c 128,-1,4
 225 1 225 1 170.5 1 c 128,-1,5
 116 1 116 1 83 37 c 128,-1,6
 50 73 50 73 50 136 c 2,7,-1
 50 728 l 1,8,9
 114.88 728 114.88 728 141.94 711.5 c 128,-1,10
 169 695 169 695 181 670 c 128,-1,11
 193 645 193 645 193 603 c 2,12,-1
 193 169 l 2,13,14
 193 124.471 193 124.471 213.5 110 c 0,15,16
 222 104 222 104 238.5 104 c 128,-1,17
 255 104 255 104 269 116 c 1,0,1
435 0 m 1,18,-1
 425 0 l 2,19,20
 332 0 332 0 302.5 59 c 0,21,22
 291 82 291 82 291 119 c 2,23,-1
 291 726 l 1,24,-1
 307 726 l 2,25,26
 394.826 726 394.826 726 424 665 c 0,27,28
 435 642 435 642 435 606 c 2,29,-1
 435 0 l 1,18,-1
94 839 m 256,30,31
 94 868 94 868 114.5 888.5 c 128,-1,32
 135 909 135 909 164 909 c 256,33,34
 193 909 193 909 213.5 888.5 c 128,-1,35
 234 868 234 868 234 839 c 256,36,37
 234 810 234 810 213.5 790 c 128,-1,38
 193 770 193 770 164 770 c 256,39,40
 135 770 135 770 114.5 790 c 128,-1,41
 94 810 94 810 94 839 c 256,30,31
250 839 m 256,42,43
 250 868 250 868 271 888.5 c 128,-1,44
 292 909 292 909 321 909 c 256,45,46
 350 909 350 909 370 888.5 c 128,-1,47
 390 868 390 868 390 839 c 256,48,49
 390 810 390 810 370 790 c 128,-1,50
 350 770 350 770 321 770 c 256,51,52
 292 770 292 770 271 790 c 128,-1,53
 250 810 250 810 250 839 c 256,42,43
EndSplineSet
Validated: 524289
EndChar

